<svg xmlns="http://www.w3.org/2000/svg" width="1156" height="1004" viewBox="0 0 1156 1004" font-family="Segoe UI, Helvetica, Arial, sans-serif" font-size="12">
<rect width="1156" height="1004" fill="#ffffff"/>
<text x="16" y="24" font-size="17" font-weight="700" fill="#1f2933">eCPM ponderado por app según cuántos content objects trae el registro</text>
<text x="16" y="42" font-size="12" fill="#5f6b76">Top 12 apps por requests vendidos. Barra = eCPM ponderado (eCPM &gt; 0) de los registros con ese número de campos llenos; debajo, % de los requests vendidos de la app en ese nivel.</text>
<text x="16" y="58" font-size="12" fill="#5f6b76">Sin barra: el nivel tiene menos del 2% de los requests vendidos de la app. Línea punteada: eCPM ponderado de toda la app.</text>
<text x="60" y="100" font-size="13" font-weight="700" fill="#1f2933">Live TV</text>
<text x="60" y="113" font-size="10.5" fill="#5f6b76">eCPM $2.74 · 16.9% del tráfico vendido · vende 60% de sus requests</text>
<line x1="60" y1="270.0" x2="382" y2="270.0" stroke="#e3e7ea"/>
<text x="55" y="274.0" text-anchor="end" font-size="10" fill="#5f6b76">$0</text>
<line x1="60" y1="242.7" x2="382" y2="242.7" stroke="#e3e7ea"/>
<text x="55" y="246.7" text-anchor="end" font-size="10" fill="#5f6b76">$2</text>
<line x1="60" y1="215.4" x2="382" y2="215.4" stroke="#e3e7ea"/>
<text x="55" y="219.4" text-anchor="end" font-size="10" fill="#5f6b76">$4</text>
<line x1="60" y1="188.1" x2="382" y2="188.1" stroke="#e3e7ea"/>
<text x="55" y="192.1" text-anchor="end" font-size="10" fill="#5f6b76">$6</text>
<line x1="60" y1="160.8" x2="382" y2="160.8" stroke="#e3e7ea"/>
<text x="55" y="164.8" text-anchor="end" font-size="10" fill="#5f6b76">$8</text>
<line x1="60" y1="133.5" x2="382" y2="133.5" stroke="#e3e7ea"/>
<text x="55" y="137.5" text-anchor="end" font-size="10" fill="#5f6b76">$10</text>
<text x="77.9" y="284" text-anchor="middle" font-size="10.5" fill="#5f6b76">0</text>
<text x="113.7" y="284" text-anchor="middle" font-size="10.5" fill="#5f6b76">1</text>
<text x="113.7" y="297" text-anchor="middle" font-size="9" fill="#5f6b76">&lt;2%</text>
<text x="149.4" y="284" text-anchor="middle" font-size="10.5" fill="#5f6b76">2</text>
<rect x="136.6" y="231.7" width="25.8" height="38.3" rx="3" fill="#2a78d6"/>
<text x="149.4" y="227.7" text-anchor="middle" font-size="10" font-weight="700" fill="#1f2933">$2.81</text>
<text x="149.4" y="297" text-anchor="middle" font-size="9" fill="#5f6b76">9%</text>
<text x="185.2" y="284" text-anchor="middle" font-size="10.5" fill="#5f6b76">3</text>
<rect x="172.3" y="232.7" width="25.8" height="37.3" rx="3" fill="#2a78d6"/>
<text x="185.2" y="228.7" text-anchor="middle" font-size="10" font-weight="700" fill="#1f2933">$2.73</text>
<text x="185.2" y="297" text-anchor="middle" font-size="9" fill="#5f6b76">47%</text>
<text x="221.0" y="284" text-anchor="middle" font-size="10.5" fill="#5f6b76">4</text>
<rect x="208.1" y="232.9" width="25.8" height="37.1" rx="3" fill="#2a78d6"/>
<text x="221.0" y="228.9" text-anchor="middle" font-size="10" font-weight="700" fill="#1f2933">$2.71</text>
<text x="221.0" y="297" text-anchor="middle" font-size="9" fill="#5f6b76">40%</text>
<text x="256.8" y="284" text-anchor="middle" font-size="10.5" fill="#5f6b76">5</text>
<rect x="243.9" y="231.9" width="25.8" height="38.1" rx="3" fill="#2a78d6"/>
<text x="256.8" y="227.9" text-anchor="middle" font-size="10" font-weight="700" fill="#1f2933">$2.79</text>
<text x="256.8" y="297" text-anchor="middle" font-size="9" fill="#5f6b76">2%</text>
<text x="292.6" y="284" text-anchor="middle" font-size="10.5" fill="#5f6b76">6</text>
<text x="292.6" y="297" text-anchor="middle" font-size="9" fill="#5f6b76">&lt;2%</text>
<text x="328.3" y="284" text-anchor="middle" font-size="10.5" fill="#5f6b76">7</text>
<text x="364.1" y="284" text-anchor="middle" font-size="10.5" fill="#5f6b76">8</text>
<line x1="60" y1="232.6" x2="382" y2="232.6" stroke="#5f6b76" stroke-dasharray="4 3"/>
<text x="221.0" y="310" text-anchor="middle" font-size="10" fill="#1f2933">content objects con dato útil (de 8)</text>
<text x="440" y="100" font-size="13" font-weight="700" fill="#1f2933">The Roku Channel</text>
<text x="440" y="113" font-size="10.5" fill="#5f6b76">eCPM $5.68 · 13.4% del tráfico vendido · vende 68% de sus requests</text>
<line x1="440" y1="270.0" x2="762" y2="270.0" stroke="#e3e7ea"/>
<text x="435" y="274.0" text-anchor="end" font-size="10" fill="#5f6b76">$0</text>
<line x1="440" y1="242.7" x2="762" y2="242.7" stroke="#e3e7ea"/>
<text x="435" y="246.7" text-anchor="end" font-size="10" fill="#5f6b76">$2</text>
<line x1="440" y1="215.4" x2="762" y2="215.4" stroke="#e3e7ea"/>
<text x="435" y="219.4" text-anchor="end" font-size="10" fill="#5f6b76">$4</text>
<line x1="440" y1="188.1" x2="762" y2="188.1" stroke="#e3e7ea"/>
<text x="435" y="192.1" text-anchor="end" font-size="10" fill="#5f6b76">$6</text>
<line x1="440" y1="160.8" x2="762" y2="160.8" stroke="#e3e7ea"/>
<text x="435" y="164.8" text-anchor="end" font-size="10" fill="#5f6b76">$8</text>
<line x1="440" y1="133.5" x2="762" y2="133.5" stroke="#e3e7ea"/>
<text x="435" y="137.5" text-anchor="end" font-size="10" fill="#5f6b76">$10</text>
<text x="457.9" y="284" text-anchor="middle" font-size="10.5" fill="#5f6b76">0</text>
<text x="493.7" y="284" text-anchor="middle" font-size="10.5" fill="#5f6b76">1</text>
<text x="529.4" y="284" text-anchor="middle" font-size="10.5" fill="#5f6b76">2</text>
<text x="565.2" y="284" text-anchor="middle" font-size="10.5" fill="#5f6b76">3</text>
<text x="565.2" y="297" text-anchor="middle" font-size="9" fill="#5f6b76">&lt;2%</text>
<text x="601.0" y="284" text-anchor="middle" font-size="10.5" fill="#5f6b76">4</text>
<rect x="588.1" y="191.9" width="25.8" height="78.1" rx="3" fill="#2a78d6"/>
<text x="601.0" y="187.9" text-anchor="middle" font-size="10" font-weight="700" fill="#1f2933">$5.72</text>
<text x="601.0" y="297" text-anchor="middle" font-size="9" fill="#5f6b76">2%</text>
<text x="636.8" y="284" text-anchor="middle" font-size="10.5" fill="#5f6b76">5</text>
<rect x="623.9" y="195.1" width="25.8" height="74.9" rx="3" fill="#2a78d6"/>
<text x="636.8" y="191.1" text-anchor="middle" font-size="10" font-weight="700" fill="#1f2933">$5.48</text>
<text x="636.8" y="297" text-anchor="middle" font-size="9" fill="#5f6b76">5%</text>
<text x="672.6" y="284" text-anchor="middle" font-size="10.5" fill="#5f6b76">6</text>
<rect x="659.7" y="190.3" width="25.8" height="79.7" rx="3" fill="#2a78d6"/>
<text x="672.6" y="186.3" text-anchor="middle" font-size="10" font-weight="700" fill="#1f2933">$5.84</text>
<text x="672.6" y="297" text-anchor="middle" font-size="9" fill="#5f6b76">39%</text>
<text x="708.3" y="284" text-anchor="middle" font-size="10.5" fill="#5f6b76">7</text>
<rect x="695.5" y="193.8" width="25.8" height="76.2" rx="3" fill="#2a78d6"/>
<text x="708.3" y="189.8" text-anchor="middle" font-size="10" font-weight="700" fill="#1f2933">$5.58</text>
<text x="708.3" y="297" text-anchor="middle" font-size="9" fill="#5f6b76">53%</text>
<text x="744.1" y="284" text-anchor="middle" font-size="10.5" fill="#5f6b76">8</text>
<text x="744.1" y="297" text-anchor="middle" font-size="9" fill="#5f6b76">&lt;2%</text>
<line x1="440" y1="192.4" x2="762" y2="192.4" stroke="#5f6b76" stroke-dasharray="4 3"/>
<text x="601.0" y="310" text-anchor="middle" font-size="10" fill="#1f2933">content objects con dato útil (de 8)</text>
<text x="820" y="100" font-size="13" font-weight="700" fill="#1f2933">ViX Deportes y Noticias</text>
<text x="820" y="113" font-size="10.5" fill="#5f6b76">eCPM $2.47 · 10.1% del tráfico vendido · vende 95% de sus requests</text>
<line x1="820" y1="270.0" x2="1142" y2="270.0" stroke="#e3e7ea"/>
<text x="815" y="274.0" text-anchor="end" font-size="10" fill="#5f6b76">$0</text>
<line x1="820" y1="242.7" x2="1142" y2="242.7" stroke="#e3e7ea"/>
<text x="815" y="246.7" text-anchor="end" font-size="10" fill="#5f6b76">$2</text>
<line x1="820" y1="215.4" x2="1142" y2="215.4" stroke="#e3e7ea"/>
<text x="815" y="219.4" text-anchor="end" font-size="10" fill="#5f6b76">$4</text>
<line x1="820" y1="188.1" x2="1142" y2="188.1" stroke="#e3e7ea"/>
<text x="815" y="192.1" text-anchor="end" font-size="10" fill="#5f6b76">$6</text>
<line x1="820" y1="160.8" x2="1142" y2="160.8" stroke="#e3e7ea"/>
<text x="815" y="164.8" text-anchor="end" font-size="10" fill="#5f6b76">$8</text>
<line x1="820" y1="133.5" x2="1142" y2="133.5" stroke="#e3e7ea"/>
<text x="815" y="137.5" text-anchor="end" font-size="10" fill="#5f6b76">$10</text>
<text x="837.9" y="284" text-anchor="middle" font-size="10.5" fill="#5f6b76">0</text>
<text x="873.7" y="284" text-anchor="middle" font-size="10.5" fill="#5f6b76">1</text>
<text x="873.7" y="297" text-anchor="middle" font-size="9" fill="#5f6b76">&lt;2%</text>
<text x="909.4" y="284" text-anchor="middle" font-size="10.5" fill="#5f6b76">2</text>
<rect x="896.6" y="233.3" width="25.8" height="36.7" rx="3" fill="#2a78d6"/>
<text x="909.4" y="229.3" text-anchor="middle" font-size="10" font-weight="700" fill="#1f2933">$2.69</text>
<text x="909.4" y="297" text-anchor="middle" font-size="9" fill="#5f6b76">7%</text>
<text x="945.2" y="284" text-anchor="middle" font-size="10.5" fill="#5f6b76">3</text>
<rect x="932.3" y="233.0" width="25.8" height="37.0" rx="3" fill="#2a78d6"/>
<text x="945.2" y="229.0" text-anchor="middle" font-size="10" font-weight="700" fill="#1f2933">$2.71</text>
<text x="945.2" y="297" text-anchor="middle" font-size="9" fill="#5f6b76">19%</text>
<text x="981.0" y="284" text-anchor="middle" font-size="10.5" fill="#5f6b76">4</text>
<rect x="968.1" y="237.8" width="25.8" height="32.2" rx="3" fill="#2a78d6"/>
<text x="981.0" y="233.8" text-anchor="middle" font-size="10" font-weight="700" fill="#1f2933">$2.36</text>
<text x="981.0" y="297" text-anchor="middle" font-size="9" fill="#5f6b76">68%</text>
<text x="1016.8" y="284" text-anchor="middle" font-size="10.5" fill="#5f6b76">5</text>
<text x="1016.8" y="297" text-anchor="middle" font-size="9" fill="#5f6b76">&lt;2%</text>
<text x="1052.6" y="284" text-anchor="middle" font-size="10.5" fill="#5f6b76">6</text>
<rect x="1039.7" y="236.1" width="25.8" height="33.9" rx="3" fill="#2a78d6"/>
<text x="1052.6" y="232.1" text-anchor="middle" font-size="10" font-weight="700" fill="#1f2933">$2.48</text>
<text x="1052.6" y="297" text-anchor="middle" font-size="9" fill="#5f6b76">3%</text>
<text x="1088.3" y="284" text-anchor="middle" font-size="10.5" fill="#5f6b76">7</text>
<text x="1124.1" y="284" text-anchor="middle" font-size="10.5" fill="#5f6b76">8</text>
<line x1="820" y1="236.2" x2="1142" y2="236.2" stroke="#5f6b76" stroke-dasharray="4 3"/>
<text x="981.0" y="310" text-anchor="middle" font-size="10" fill="#1f2933">content objects con dato útil (de 8)</text>
<text x="60" y="330" font-size="13" font-weight="700" fill="#1f2933">(App Name vacío)</text>
<text x="60" y="343" font-size="10.5" fill="#5f6b76">eCPM $2.48 · 9.3% del tráfico vendido · vende 67% de sus requests</text>
<line x1="60" y1="500.0" x2="382" y2="500.0" stroke="#e3e7ea"/>
<text x="55" y="504.0" text-anchor="end" font-size="10" fill="#5f6b76">$0</text>
<line x1="60" y1="472.7" x2="382" y2="472.7" stroke="#e3e7ea"/>
<text x="55" y="476.7" text-anchor="end" font-size="10" fill="#5f6b76">$2</text>
<line x1="60" y1="445.4" x2="382" y2="445.4" stroke="#e3e7ea"/>
<text x="55" y="449.4" text-anchor="end" font-size="10" fill="#5f6b76">$4</text>
<line x1="60" y1="418.1" x2="382" y2="418.1" stroke="#e3e7ea"/>
<text x="55" y="422.1" text-anchor="end" font-size="10" fill="#5f6b76">$6</text>
<line x1="60" y1="390.8" x2="382" y2="390.8" stroke="#e3e7ea"/>
<text x="55" y="394.8" text-anchor="end" font-size="10" fill="#5f6b76">$8</text>
<line x1="60" y1="363.5" x2="382" y2="363.5" stroke="#e3e7ea"/>
<text x="55" y="367.5" text-anchor="end" font-size="10" fill="#5f6b76">$10</text>
<text x="77.9" y="514" text-anchor="middle" font-size="10.5" fill="#5f6b76">0</text>
<text x="77.9" y="527" text-anchor="middle" font-size="9" fill="#5f6b76">&lt;2%</text>
<text x="113.7" y="514" text-anchor="middle" font-size="10.5" fill="#5f6b76">1</text>
<text x="113.7" y="527" text-anchor="middle" font-size="9" fill="#5f6b76">&lt;2%</text>
<text x="149.4" y="514" text-anchor="middle" font-size="10.5" fill="#5f6b76">2</text>
<rect x="136.6" y="465.6" width="25.8" height="34.4" rx="3" fill="#2a78d6"/>
<text x="149.4" y="461.6" text-anchor="middle" font-size="10" font-weight="700" fill="#1f2933">$2.52</text>
<text x="149.4" y="527" text-anchor="middle" font-size="9" fill="#5f6b76">8%</text>
<text x="185.2" y="514" text-anchor="middle" font-size="10.5" fill="#5f6b76">3</text>
<rect x="172.3" y="449.5" width="25.8" height="50.5" rx="3" fill="#2a78d6"/>
<text x="185.2" y="445.5" text-anchor="middle" font-size="10" font-weight="700" fill="#1f2933">$3.70</text>
<text x="185.2" y="527" text-anchor="middle" font-size="9" fill="#5f6b76">6%</text>
<text x="221.0" y="514" text-anchor="middle" font-size="10.5" fill="#5f6b76">4</text>
<rect x="208.1" y="459.7" width="25.8" height="40.3" rx="3" fill="#2a78d6"/>
<text x="221.0" y="455.7" text-anchor="middle" font-size="10" font-weight="700" fill="#1f2933">$2.95</text>
<text x="221.0" y="527" text-anchor="middle" font-size="9" fill="#5f6b76">34%</text>
<text x="256.8" y="514" text-anchor="middle" font-size="10.5" fill="#5f6b76">5</text>
<rect x="243.9" y="470.8" width="25.8" height="29.2" rx="3" fill="#2a78d6"/>
<text x="256.8" y="466.8" text-anchor="middle" font-size="10" font-weight="700" fill="#1f2933">$2.14</text>
<text x="256.8" y="527" text-anchor="middle" font-size="9" fill="#5f6b76">28%</text>
<text x="292.6" y="514" text-anchor="middle" font-size="10.5" fill="#5f6b76">6</text>
<rect x="279.7" y="476.1" width="25.8" height="23.9" rx="3" fill="#2a78d6"/>
<text x="292.6" y="472.1" text-anchor="middle" font-size="10" font-weight="700" fill="#1f2933">$1.75</text>
<text x="292.6" y="527" text-anchor="middle" font-size="9" fill="#5f6b76">19%</text>
<text x="328.3" y="514" text-anchor="middle" font-size="10.5" fill="#5f6b76">7</text>
<rect x="315.5" y="462.3" width="25.8" height="37.7" rx="3" fill="#2a78d6"/>
<text x="328.3" y="458.3" text-anchor="middle" font-size="10" font-weight="700" fill="#1f2933">$2.76</text>
<text x="328.3" y="527" text-anchor="middle" font-size="9" fill="#5f6b76">4%</text>
<text x="364.1" y="514" text-anchor="middle" font-size="10.5" fill="#5f6b76">8</text>
<text x="364.1" y="527" text-anchor="middle" font-size="9" fill="#5f6b76">&lt;2%</text>
<line x1="60" y1="466.2" x2="382" y2="466.2" stroke="#5f6b76" stroke-dasharray="4 3"/>
<text x="221.0" y="540" text-anchor="middle" font-size="10" fill="#1f2933">content objects con dato útil (de 8)</text>
<text x="440" y="330" font-size="13" font-weight="700" fill="#1f2933">TCL CHANNEL</text>
<text x="440" y="343" font-size="10.5" fill="#5f6b76">eCPM $5.32 · 8.9% del tráfico vendido · vende 54% de sus requests</text>
<line x1="440" y1="500.0" x2="762" y2="500.0" stroke="#e3e7ea"/>
<text x="435" y="504.0" text-anchor="end" font-size="10" fill="#5f6b76">$0</text>
<line x1="440" y1="472.7" x2="762" y2="472.7" stroke="#e3e7ea"/>
<text x="435" y="476.7" text-anchor="end" font-size="10" fill="#5f6b76">$2</text>
<line x1="440" y1="445.4" x2="762" y2="445.4" stroke="#e3e7ea"/>
<text x="435" y="449.4" text-anchor="end" font-size="10" fill="#5f6b76">$4</text>
<line x1="440" y1="418.1" x2="762" y2="418.1" stroke="#e3e7ea"/>
<text x="435" y="422.1" text-anchor="end" font-size="10" fill="#5f6b76">$6</text>
<line x1="440" y1="390.8" x2="762" y2="390.8" stroke="#e3e7ea"/>
<text x="435" y="394.8" text-anchor="end" font-size="10" fill="#5f6b76">$8</text>
<line x1="440" y1="363.5" x2="762" y2="363.5" stroke="#e3e7ea"/>
<text x="435" y="367.5" text-anchor="end" font-size="10" fill="#5f6b76">$10</text>
<text x="457.9" y="514" text-anchor="middle" font-size="10.5" fill="#5f6b76">0</text>
<rect x="445.0" y="425.2" width="25.8" height="74.8" rx="3" fill="#2a78d6"/>
<text x="457.9" y="421.2" text-anchor="middle" font-size="10" font-weight="700" fill="#1f2933">$5.48</text>
<text x="457.9" y="527" text-anchor="middle" font-size="9" fill="#5f6b76">19%</text>
<text x="493.7" y="514" text-anchor="middle" font-size="10.5" fill="#5f6b76">1</text>
<text x="493.7" y="527" text-anchor="middle" font-size="9" fill="#5f6b76">&lt;2%</text>
<text x="529.4" y="514" text-anchor="middle" font-size="10.5" fill="#5f6b76">2</text>
<rect x="516.6" y="423.6" width="25.8" height="76.4" rx="3" fill="#2a78d6"/>
<text x="529.4" y="419.6" text-anchor="middle" font-size="10" font-weight="700" fill="#1f2933">$5.60</text>
<text x="529.4" y="527" text-anchor="middle" font-size="9" fill="#5f6b76">6%</text>
<text x="565.2" y="514" text-anchor="middle" font-size="10.5" fill="#5f6b76">3</text>
<rect x="552.3" y="435.1" width="25.8" height="64.9" rx="3" fill="#2a78d6"/>
<text x="565.2" y="431.1" text-anchor="middle" font-size="10" font-weight="700" fill="#1f2933">$4.75</text>
<text x="565.2" y="527" text-anchor="middle" font-size="9" fill="#5f6b76">25%</text>
<text x="601.0" y="514" text-anchor="middle" font-size="10.5" fill="#5f6b76">4</text>
<rect x="588.1" y="438.1" width="25.8" height="61.9" rx="3" fill="#2a78d6"/>
<text x="601.0" y="434.1" text-anchor="middle" font-size="10" font-weight="700" fill="#1f2933">$4.54</text>
<text x="601.0" y="527" text-anchor="middle" font-size="9" fill="#5f6b76">11%</text>
<text x="636.8" y="514" text-anchor="middle" font-size="10.5" fill="#5f6b76">5</text>
<rect x="623.9" y="420.1" width="25.8" height="79.9" rx="3" fill="#2a78d6"/>
<text x="636.8" y="416.1" text-anchor="middle" font-size="10" font-weight="700" fill="#1f2933">$5.85</text>
<text x="636.8" y="527" text-anchor="middle" font-size="9" fill="#5f6b76">37%</text>
<text x="672.6" y="514" text-anchor="middle" font-size="10.5" fill="#5f6b76">6</text>
<text x="672.6" y="527" text-anchor="middle" font-size="9" fill="#5f6b76">&lt;2%</text>
<text x="708.3" y="514" text-anchor="middle" font-size="10.5" fill="#5f6b76">7</text>
<text x="744.1" y="514" text-anchor="middle" font-size="10.5" fill="#5f6b76">8</text>
<line x1="440" y1="427.4" x2="762" y2="427.4" stroke="#5f6b76" stroke-dasharray="4 3"/>
<text x="601.0" y="540" text-anchor="middle" font-size="10" fill="#1f2933">content objects con dato útil (de 8)</text>
<text x="820" y="330" font-size="13" font-weight="700" fill="#1f2933">MovieArk</text>
<text x="820" y="343" font-size="10.5" fill="#5f6b76">eCPM $3.61 · 8.8% del tráfico vendido · vende 26% de sus requests</text>
<line x1="820" y1="500.0" x2="1142" y2="500.0" stroke="#e3e7ea"/>
<text x="815" y="504.0" text-anchor="end" font-size="10" fill="#5f6b76">$0</text>
<line x1="820" y1="472.7" x2="1142" y2="472.7" stroke="#e3e7ea"/>
<text x="815" y="476.7" text-anchor="end" font-size="10" fill="#5f6b76">$2</text>
<line x1="820" y1="445.4" x2="1142" y2="445.4" stroke="#e3e7ea"/>
<text x="815" y="449.4" text-anchor="end" font-size="10" fill="#5f6b76">$4</text>
<line x1="820" y1="418.1" x2="1142" y2="418.1" stroke="#e3e7ea"/>
<text x="815" y="422.1" text-anchor="end" font-size="10" fill="#5f6b76">$6</text>
<line x1="820" y1="390.8" x2="1142" y2="390.8" stroke="#e3e7ea"/>
<text x="815" y="394.8" text-anchor="end" font-size="10" fill="#5f6b76">$8</text>
<line x1="820" y1="363.5" x2="1142" y2="363.5" stroke="#e3e7ea"/>
<text x="815" y="367.5" text-anchor="end" font-size="10" fill="#5f6b76">$10</text>
<text x="837.9" y="514" text-anchor="middle" font-size="10.5" fill="#5f6b76">0</text>
<text x="837.9" y="527" text-anchor="middle" font-size="9" fill="#5f6b76">&lt;2%</text>
<text x="873.7" y="514" text-anchor="middle" font-size="10.5" fill="#5f6b76">1</text>
<text x="873.7" y="527" text-anchor="middle" font-size="9" fill="#5f6b76">&lt;2%</text>
<text x="909.4" y="514" text-anchor="middle" font-size="10.5" fill="#5f6b76">2</text>
<rect x="896.6" y="454.9" width="25.8" height="45.1" rx="3" fill="#2a78d6"/>
<text x="909.4" y="450.9" text-anchor="middle" font-size="10" font-weight="700" fill="#1f2933">$3.30</text>
<text x="909.4" y="527" text-anchor="middle" font-size="9" fill="#5f6b76">11%</text>
<text x="945.2" y="514" text-anchor="middle" font-size="10.5" fill="#5f6b76">3</text>
<rect x="932.3" y="454.1" width="25.8" height="45.9" rx="3" fill="#2a78d6"/>
<text x="945.2" y="450.1" text-anchor="middle" font-size="10" font-weight="700" fill="#1f2933">$3.36</text>
<text x="945.2" y="527" text-anchor="middle" font-size="9" fill="#5f6b76">50%</text>
<text x="981.0" y="514" text-anchor="middle" font-size="10.5" fill="#5f6b76">4</text>
<rect x="968.1" y="445.7" width="25.8" height="54.3" rx="3" fill="#2a78d6"/>
<text x="981.0" y="441.7" text-anchor="middle" font-size="10" font-weight="700" fill="#1f2933">$3.98</text>
<text x="981.0" y="527" text-anchor="middle" font-size="9" fill="#5f6b76">34%</text>
<text x="1016.8" y="514" text-anchor="middle" font-size="10.5" fill="#5f6b76">5</text>
<text x="1016.8" y="527" text-anchor="middle" font-size="9" fill="#5f6b76">&lt;2%</text>
<text x="1052.6" y="514" text-anchor="middle" font-size="10.5" fill="#5f6b76">6</text>
<text x="1052.6" y="527" text-anchor="middle" font-size="9" fill="#5f6b76">&lt;2%</text>
<text x="1088.3" y="514" text-anchor="middle" font-size="10.5" fill="#5f6b76">7</text>
<text x="1124.1" y="514" text-anchor="middle" font-size="10.5" fill="#5f6b76">8</text>
<line x1="820" y1="450.7" x2="1142" y2="450.7" stroke="#5f6b76" stroke-dasharray="4 3"/>
<text x="981.0" y="540" text-anchor="middle" font-size="10" fill="#1f2933">content objects con dato útil (de 8)</text>
<text x="60" y="560" font-size="13" font-weight="700" fill="#1f2933">Tubi</text>
<text x="60" y="573" font-size="10.5" fill="#5f6b76">eCPM $5.33 · 7.4% del tráfico vendido · vende 91% de sus requests</text>
<line x1="60" y1="730.0" x2="382" y2="730.0" stroke="#e3e7ea"/>
<text x="55" y="734.0" text-anchor="end" font-size="10" fill="#5f6b76">$0</text>
<line x1="60" y1="702.7" x2="382" y2="702.7" stroke="#e3e7ea"/>
<text x="55" y="706.7" text-anchor="end" font-size="10" fill="#5f6b76">$2</text>
<line x1="60" y1="675.4" x2="382" y2="675.4" stroke="#e3e7ea"/>
<text x="55" y="679.4" text-anchor="end" font-size="10" fill="#5f6b76">$4</text>
<line x1="60" y1="648.1" x2="382" y2="648.1" stroke="#e3e7ea"/>
<text x="55" y="652.1" text-anchor="end" font-size="10" fill="#5f6b76">$6</text>
<line x1="60" y1="620.8" x2="382" y2="620.8" stroke="#e3e7ea"/>
<text x="55" y="624.8" text-anchor="end" font-size="10" fill="#5f6b76">$8</text>
<line x1="60" y1="593.5" x2="382" y2="593.5" stroke="#e3e7ea"/>
<text x="55" y="597.5" text-anchor="end" font-size="10" fill="#5f6b76">$10</text>
<text x="77.9" y="744" text-anchor="middle" font-size="10.5" fill="#5f6b76">0</text>
<rect x="65.0" y="657.5" width="25.8" height="72.5" rx="3" fill="#2a78d6"/>
<text x="77.9" y="653.5" text-anchor="middle" font-size="10" font-weight="700" fill="#1f2933">$5.31</text>
<text x="77.9" y="757" text-anchor="middle" font-size="9" fill="#5f6b76">3%</text>
<text x="113.7" y="744" text-anchor="middle" font-size="10.5" fill="#5f6b76">1</text>
<rect x="100.8" y="621.4" width="25.8" height="108.6" rx="3" fill="#2a78d6"/>
<text x="113.7" y="617.4" text-anchor="middle" font-size="10" font-weight="700" fill="#1f2933">$7.95</text>
<text x="113.7" y="757" text-anchor="middle" font-size="9" fill="#5f6b76">6%</text>
<text x="149.4" y="744" text-anchor="middle" font-size="10.5" fill="#5f6b76">2</text>
<rect x="136.6" y="658.1" width="25.8" height="71.9" rx="3" fill="#2a78d6"/>
<text x="149.4" y="654.1" text-anchor="middle" font-size="10" font-weight="700" fill="#1f2933">$5.27</text>
<text x="149.4" y="757" text-anchor="middle" font-size="9" fill="#5f6b76">28%</text>
<text x="185.2" y="744" text-anchor="middle" font-size="10.5" fill="#5f6b76">3</text>
<rect x="172.3" y="660.5" width="25.8" height="69.5" rx="3" fill="#2a78d6"/>
<text x="185.2" y="656.5" text-anchor="middle" font-size="10" font-weight="700" fill="#1f2933">$5.09</text>
<text x="185.2" y="757" text-anchor="middle" font-size="9" fill="#5f6b76">63%</text>
<text x="221.0" y="744" text-anchor="middle" font-size="10.5" fill="#5f6b76">4</text>
<text x="256.8" y="744" text-anchor="middle" font-size="10.5" fill="#5f6b76">5</text>
<text x="292.6" y="744" text-anchor="middle" font-size="10.5" fill="#5f6b76">6</text>
<text x="328.3" y="744" text-anchor="middle" font-size="10.5" fill="#5f6b76">7</text>
<text x="364.1" y="744" text-anchor="middle" font-size="10.5" fill="#5f6b76">8</text>
<line x1="60" y1="657.2" x2="382" y2="657.2" stroke="#5f6b76" stroke-dasharray="4 3"/>
<text x="221.0" y="770" text-anchor="middle" font-size="10" fill="#1f2933">content objects con dato útil (de 8)</text>
<text x="440" y="560" font-size="13" font-weight="700" fill="#1f2933">ViX Sports and News</text>
<text x="440" y="573" font-size="10.5" fill="#5f6b76">eCPM $1.70 · 6.7% del tráfico vendido · vende 81% de sus requests</text>
<line x1="440" y1="730.0" x2="762" y2="730.0" stroke="#e3e7ea"/>
<text x="435" y="734.0" text-anchor="end" font-size="10" fill="#5f6b76">$0</text>
<line x1="440" y1="702.7" x2="762" y2="702.7" stroke="#e3e7ea"/>
<text x="435" y="706.7" text-anchor="end" font-size="10" fill="#5f6b76">$2</text>
<line x1="440" y1="675.4" x2="762" y2="675.4" stroke="#e3e7ea"/>
<text x="435" y="679.4" text-anchor="end" font-size="10" fill="#5f6b76">$4</text>
<line x1="440" y1="648.1" x2="762" y2="648.1" stroke="#e3e7ea"/>
<text x="435" y="652.1" text-anchor="end" font-size="10" fill="#5f6b76">$6</text>
<line x1="440" y1="620.8" x2="762" y2="620.8" stroke="#e3e7ea"/>
<text x="435" y="624.8" text-anchor="end" font-size="10" fill="#5f6b76">$8</text>
<line x1="440" y1="593.5" x2="762" y2="593.5" stroke="#e3e7ea"/>
<text x="435" y="597.5" text-anchor="end" font-size="10" fill="#5f6b76">$10</text>
<text x="457.9" y="744" text-anchor="middle" font-size="10.5" fill="#5f6b76">0</text>
<text x="457.9" y="757" text-anchor="middle" font-size="9" fill="#5f6b76">&lt;2%</text>
<text x="493.7" y="744" text-anchor="middle" font-size="10.5" fill="#5f6b76">1</text>
<text x="493.7" y="757" text-anchor="middle" font-size="9" fill="#5f6b76">&lt;2%</text>
<text x="529.4" y="744" text-anchor="middle" font-size="10.5" fill="#5f6b76">2</text>
<rect x="516.6" y="707.6" width="25.8" height="22.4" rx="3" fill="#2a78d6"/>
<text x="529.4" y="703.6" text-anchor="middle" font-size="10" font-weight="700" fill="#1f2933">$1.64</text>
<text x="529.4" y="757" text-anchor="middle" font-size="9" fill="#5f6b76">26%</text>
<text x="565.2" y="744" text-anchor="middle" font-size="10.5" fill="#5f6b76">3</text>
<rect x="552.3" y="707.2" width="25.8" height="22.8" rx="3" fill="#2a78d6"/>
<text x="565.2" y="703.2" text-anchor="middle" font-size="10" font-weight="700" fill="#1f2933">$1.67</text>
<text x="565.2" y="757" text-anchor="middle" font-size="9" fill="#5f6b76">53%</text>
<text x="601.0" y="744" text-anchor="middle" font-size="10.5" fill="#5f6b76">4</text>
<rect x="588.1" y="706.9" width="25.8" height="23.1" rx="3" fill="#2a78d6"/>
<text x="601.0" y="702.9" text-anchor="middle" font-size="10" font-weight="700" fill="#1f2933">$1.69</text>
<text x="601.0" y="757" text-anchor="middle" font-size="9" fill="#5f6b76">11%</text>
<text x="636.8" y="744" text-anchor="middle" font-size="10.5" fill="#5f6b76">5</text>
<rect x="623.9" y="701.3" width="25.8" height="28.7" rx="3" fill="#2a78d6"/>
<text x="636.8" y="697.3" text-anchor="middle" font-size="10" font-weight="700" fill="#1f2933">$2.10</text>
<text x="636.8" y="757" text-anchor="middle" font-size="9" fill="#5f6b76">8%</text>
<text x="672.6" y="744" text-anchor="middle" font-size="10.5" fill="#5f6b76">6</text>
<text x="672.6" y="757" text-anchor="middle" font-size="9" fill="#5f6b76">&lt;2%</text>
<text x="708.3" y="744" text-anchor="middle" font-size="10.5" fill="#5f6b76">7</text>
<text x="708.3" y="757" text-anchor="middle" font-size="9" fill="#5f6b76">&lt;2%</text>
<text x="744.1" y="744" text-anchor="middle" font-size="10.5" fill="#5f6b76">8</text>
<line x1="440" y1="706.8" x2="762" y2="706.8" stroke="#5f6b76" stroke-dasharray="4 3"/>
<text x="601.0" y="770" text-anchor="middle" font-size="10" fill="#1f2933">content objects con dato útil (de 8)</text>
<text x="820" y="560" font-size="13" font-weight="700" fill="#1f2933">BrowseHere</text>
<text x="820" y="573" font-size="10.5" fill="#5f6b76">eCPM $6.97 · 4.4% del tráfico vendido · vende 48% de sus requests</text>
<line x1="820" y1="730.0" x2="1142" y2="730.0" stroke="#e3e7ea"/>
<text x="815" y="734.0" text-anchor="end" font-size="10" fill="#5f6b76">$0</text>
<line x1="820" y1="702.7" x2="1142" y2="702.7" stroke="#e3e7ea"/>
<text x="815" y="706.7" text-anchor="end" font-size="10" fill="#5f6b76">$2</text>
<line x1="820" y1="675.4" x2="1142" y2="675.4" stroke="#e3e7ea"/>
<text x="815" y="679.4" text-anchor="end" font-size="10" fill="#5f6b76">$4</text>
<line x1="820" y1="648.1" x2="1142" y2="648.1" stroke="#e3e7ea"/>
<text x="815" y="652.1" text-anchor="end" font-size="10" fill="#5f6b76">$6</text>
<line x1="820" y1="620.8" x2="1142" y2="620.8" stroke="#e3e7ea"/>
<text x="815" y="624.8" text-anchor="end" font-size="10" fill="#5f6b76">$8</text>
<line x1="820" y1="593.5" x2="1142" y2="593.5" stroke="#e3e7ea"/>
<text x="815" y="597.5" text-anchor="end" font-size="10" fill="#5f6b76">$10</text>
<text x="837.9" y="744" text-anchor="middle" font-size="10.5" fill="#5f6b76">0</text>
<rect x="825.0" y="654.7" width="25.8" height="75.3" rx="3" fill="#2a78d6"/>
<text x="837.9" y="650.7" text-anchor="middle" font-size="10" font-weight="700" fill="#1f2933">$5.52</text>
<text x="837.9" y="757" text-anchor="middle" font-size="9" fill="#5f6b76">23%</text>
<text x="873.7" y="744" text-anchor="middle" font-size="10.5" fill="#5f6b76">1</text>
<text x="873.7" y="757" text-anchor="middle" font-size="9" fill="#5f6b76">&lt;2%</text>
<text x="909.4" y="744" text-anchor="middle" font-size="10.5" fill="#5f6b76">2</text>
<rect x="896.6" y="637.7" width="25.8" height="92.3" rx="3" fill="#2a78d6"/>
<text x="909.4" y="633.7" text-anchor="middle" font-size="10" font-weight="700" fill="#1f2933">$6.76</text>
<text x="909.4" y="757" text-anchor="middle" font-size="9" fill="#5f6b76">4%</text>
<text x="945.2" y="744" text-anchor="middle" font-size="10.5" fill="#5f6b76">3</text>
<rect x="932.3" y="653.7" width="25.8" height="76.3" rx="3" fill="#2a78d6"/>
<text x="945.2" y="649.7" text-anchor="middle" font-size="10" font-weight="700" fill="#1f2933">$5.59</text>
<text x="945.2" y="757" text-anchor="middle" font-size="9" fill="#5f6b76">16%</text>
<text x="981.0" y="744" text-anchor="middle" font-size="10.5" fill="#5f6b76">4</text>
<rect x="968.1" y="632.7" width="25.8" height="97.3" rx="3" fill="#2a78d6"/>
<text x="981.0" y="628.7" text-anchor="middle" font-size="10" font-weight="700" fill="#1f2933">$7.12</text>
<text x="981.0" y="757" text-anchor="middle" font-size="9" fill="#5f6b76">34%</text>
<text x="1016.8" y="744" text-anchor="middle" font-size="10.5" fill="#5f6b76">5</text>
<rect x="1003.9" y="601.2" width="25.8" height="128.8" rx="3" fill="#2a78d6"/>
<text x="1016.8" y="597.2" text-anchor="middle" font-size="10" font-weight="700" fill="#1f2933">$9.43</text>
<text x="1016.8" y="757" text-anchor="middle" font-size="9" fill="#5f6b76">22%</text>
<text x="1052.6" y="744" text-anchor="middle" font-size="10.5" fill="#5f6b76">6</text>
<text x="1052.6" y="757" text-anchor="middle" font-size="9" fill="#5f6b76">&lt;2%</text>
<text x="1088.3" y="744" text-anchor="middle" font-size="10.5" fill="#5f6b76">7</text>
<text x="1124.1" y="744" text-anchor="middle" font-size="10.5" fill="#5f6b76">8</text>
<line x1="820" y1="634.8" x2="1142" y2="634.8" stroke="#5f6b76" stroke-dasharray="4 3"/>
<text x="981.0" y="770" text-anchor="middle" font-size="10" fill="#1f2933">content objects con dato útil (de 8)</text>
<text x="60" y="790" font-size="13" font-weight="700" fill="#1f2933">Coolita Channel</text>
<text x="60" y="803" font-size="10.5" fill="#5f6b76">eCPM $3.16 · 4.0% del tráfico vendido · vende 72% de sus requests</text>
<line x1="60" y1="960.0" x2="382" y2="960.0" stroke="#e3e7ea"/>
<text x="55" y="964.0" text-anchor="end" font-size="10" fill="#5f6b76">$0</text>
<line x1="60" y1="932.7" x2="382" y2="932.7" stroke="#e3e7ea"/>
<text x="55" y="936.7" text-anchor="end" font-size="10" fill="#5f6b76">$2</text>
<line x1="60" y1="905.4" x2="382" y2="905.4" stroke="#e3e7ea"/>
<text x="55" y="909.4" text-anchor="end" font-size="10" fill="#5f6b76">$4</text>
<line x1="60" y1="878.1" x2="382" y2="878.1" stroke="#e3e7ea"/>
<text x="55" y="882.1" text-anchor="end" font-size="10" fill="#5f6b76">$6</text>
<line x1="60" y1="850.8" x2="382" y2="850.8" stroke="#e3e7ea"/>
<text x="55" y="854.8" text-anchor="end" font-size="10" fill="#5f6b76">$8</text>
<line x1="60" y1="823.5" x2="382" y2="823.5" stroke="#e3e7ea"/>
<text x="55" y="827.5" text-anchor="end" font-size="10" fill="#5f6b76">$10</text>
<text x="77.9" y="974" text-anchor="middle" font-size="10.5" fill="#5f6b76">0</text>
<text x="113.7" y="974" text-anchor="middle" font-size="10.5" fill="#5f6b76">1</text>
<text x="113.7" y="987" text-anchor="middle" font-size="9" fill="#5f6b76">&lt;2%</text>
<text x="149.4" y="974" text-anchor="middle" font-size="10.5" fill="#5f6b76">2</text>
<text x="185.2" y="974" text-anchor="middle" font-size="10.5" fill="#5f6b76">3</text>
<text x="221.0" y="974" text-anchor="middle" font-size="10.5" fill="#5f6b76">4</text>
<text x="221.0" y="987" text-anchor="middle" font-size="9" fill="#5f6b76">&lt;2%</text>
<text x="256.8" y="974" text-anchor="middle" font-size="10.5" fill="#5f6b76">5</text>
<text x="256.8" y="987" text-anchor="middle" font-size="9" fill="#5f6b76">&lt;2%</text>
<text x="292.6" y="974" text-anchor="middle" font-size="10.5" fill="#5f6b76">6</text>
<rect x="279.7" y="922.2" width="25.8" height="37.8" rx="3" fill="#2a78d6"/>
<text x="292.6" y="918.2" text-anchor="middle" font-size="10" font-weight="700" fill="#1f2933">$2.77</text>
<text x="292.6" y="987" text-anchor="middle" font-size="9" fill="#5f6b76">10%</text>
<text x="328.3" y="974" text-anchor="middle" font-size="10.5" fill="#5f6b76">7</text>
<rect x="315.5" y="915.4" width="25.8" height="44.6" rx="3" fill="#2a78d6"/>
<text x="328.3" y="911.4" text-anchor="middle" font-size="10" font-weight="700" fill="#1f2933">$3.27</text>
<text x="328.3" y="987" text-anchor="middle" font-size="9" fill="#5f6b76">21%</text>
<text x="364.1" y="974" text-anchor="middle" font-size="10.5" fill="#5f6b76">8</text>
<rect x="351.2" y="916.1" width="25.8" height="43.9" rx="3" fill="#2a78d6"/>
<text x="364.1" y="912.1" text-anchor="middle" font-size="10" font-weight="700" fill="#1f2933">$3.22</text>
<text x="364.1" y="987" text-anchor="middle" font-size="9" fill="#5f6b76">66%</text>
<line x1="60" y1="916.8" x2="382" y2="916.8" stroke="#5f6b76" stroke-dasharray="4 3"/>
<text x="221.0" y="1000" text-anchor="middle" font-size="10" fill="#1f2933">content objects con dato útil (de 8)</text>
<text x="440" y="790" font-size="13" font-weight="700" fill="#1f2933">WhaleLive</text>
<text x="440" y="803" font-size="10.5" fill="#5f6b76">eCPM $2.51 · 3.3% del tráfico vendido · vende 99% de sus requests</text>
<line x1="440" y1="960.0" x2="762" y2="960.0" stroke="#e3e7ea"/>
<text x="435" y="964.0" text-anchor="end" font-size="10" fill="#5f6b76">$0</text>
<line x1="440" y1="932.7" x2="762" y2="932.7" stroke="#e3e7ea"/>
<text x="435" y="936.7" text-anchor="end" font-size="10" fill="#5f6b76">$2</text>
<line x1="440" y1="905.4" x2="762" y2="905.4" stroke="#e3e7ea"/>
<text x="435" y="909.4" text-anchor="end" font-size="10" fill="#5f6b76">$4</text>
<line x1="440" y1="878.1" x2="762" y2="878.1" stroke="#e3e7ea"/>
<text x="435" y="882.1" text-anchor="end" font-size="10" fill="#5f6b76">$6</text>
<line x1="440" y1="850.8" x2="762" y2="850.8" stroke="#e3e7ea"/>
<text x="435" y="854.8" text-anchor="end" font-size="10" fill="#5f6b76">$8</text>
<line x1="440" y1="823.5" x2="762" y2="823.5" stroke="#e3e7ea"/>
<text x="435" y="827.5" text-anchor="end" font-size="10" fill="#5f6b76">$10</text>
<text x="457.9" y="974" text-anchor="middle" font-size="10.5" fill="#5f6b76">0</text>
<text x="493.7" y="974" text-anchor="middle" font-size="10.5" fill="#5f6b76">1</text>
<text x="493.7" y="987" text-anchor="middle" font-size="9" fill="#5f6b76">&lt;2%</text>
<text x="529.4" y="974" text-anchor="middle" font-size="10.5" fill="#5f6b76">2</text>
<rect x="516.6" y="925.8" width="25.8" height="34.2" rx="3" fill="#2a78d6"/>
<text x="529.4" y="921.8" text-anchor="middle" font-size="10" font-weight="700" fill="#1f2933">$2.51</text>
<text x="529.4" y="987" text-anchor="middle" font-size="9" fill="#5f6b76">98%</text>
<text x="565.2" y="974" text-anchor="middle" font-size="10.5" fill="#5f6b76">3</text>
<text x="565.2" y="987" text-anchor="middle" font-size="9" fill="#5f6b76">&lt;2%</text>
<text x="601.0" y="974" text-anchor="middle" font-size="10.5" fill="#5f6b76">4</text>
<text x="601.0" y="987" text-anchor="middle" font-size="9" fill="#5f6b76">&lt;2%</text>
<text x="636.8" y="974" text-anchor="middle" font-size="10.5" fill="#5f6b76">5</text>
<text x="672.6" y="974" text-anchor="middle" font-size="10.5" fill="#5f6b76">6</text>
<text x="708.3" y="974" text-anchor="middle" font-size="10.5" fill="#5f6b76">7</text>
<text x="744.1" y="974" text-anchor="middle" font-size="10.5" fill="#5f6b76">8</text>
<line x1="440" y1="925.7" x2="762" y2="925.7" stroke="#5f6b76" stroke-dasharray="4 3"/>
<text x="601.0" y="1000" text-anchor="middle" font-size="10" fill="#1f2933">content objects con dato útil (de 8)</text>
<text x="820" y="790" font-size="13" font-weight="700" fill="#1f2933">Vidaa</text>
<text x="820" y="803" font-size="10.5" fill="#5f6b76">eCPM $1.53 · 2.6% del tráfico vendido · vende 84% de sus requests</text>
<line x1="820" y1="960.0" x2="1142" y2="960.0" stroke="#e3e7ea"/>
<text x="815" y="964.0" text-anchor="end" font-size="10" fill="#5f6b76">$0</text>
<line x1="820" y1="932.7" x2="1142" y2="932.7" stroke="#e3e7ea"/>
<text x="815" y="936.7" text-anchor="end" font-size="10" fill="#5f6b76">$2</text>
<line x1="820" y1="905.4" x2="1142" y2="905.4" stroke="#e3e7ea"/>
<text x="815" y="909.4" text-anchor="end" font-size="10" fill="#5f6b76">$4</text>
<line x1="820" y1="878.1" x2="1142" y2="878.1" stroke="#e3e7ea"/>
<text x="815" y="882.1" text-anchor="end" font-size="10" fill="#5f6b76">$6</text>
<line x1="820" y1="850.8" x2="1142" y2="850.8" stroke="#e3e7ea"/>
<text x="815" y="854.8" text-anchor="end" font-size="10" fill="#5f6b76">$8</text>
<line x1="820" y1="823.5" x2="1142" y2="823.5" stroke="#e3e7ea"/>
<text x="815" y="827.5" text-anchor="end" font-size="10" fill="#5f6b76">$10</text>
<text x="837.9" y="974" text-anchor="middle" font-size="10.5" fill="#5f6b76">0</text>
<text x="873.7" y="974" text-anchor="middle" font-size="10.5" fill="#5f6b76">1</text>
<text x="873.7" y="987" text-anchor="middle" font-size="9" fill="#5f6b76">&lt;2%</text>
<text x="909.4" y="974" text-anchor="middle" font-size="10.5" fill="#5f6b76">2</text>
<text x="909.4" y="987" text-anchor="middle" font-size="9" fill="#5f6b76">&lt;2%</text>
<text x="945.2" y="974" text-anchor="middle" font-size="10.5" fill="#5f6b76">3</text>
<rect x="932.3" y="942.2" width="25.8" height="17.8" rx="3" fill="#2a78d6"/>
<text x="945.2" y="938.2" text-anchor="middle" font-size="10" font-weight="700" fill="#1f2933">$1.30</text>
<text x="945.2" y="987" text-anchor="middle" font-size="9" fill="#5f6b76">5%</text>
<text x="981.0" y="974" text-anchor="middle" font-size="10.5" fill="#5f6b76">4</text>
<rect x="968.1" y="939.4" width="25.8" height="20.6" rx="3" fill="#2a78d6"/>
<text x="981.0" y="935.4" text-anchor="middle" font-size="10" font-weight="700" fill="#1f2933">$1.51</text>
<text x="981.0" y="987" text-anchor="middle" font-size="9" fill="#5f6b76">7%</text>
<text x="1016.8" y="974" text-anchor="middle" font-size="10.5" fill="#5f6b76">5</text>
<rect x="1003.9" y="938.4" width="25.8" height="21.6" rx="3" fill="#2a78d6"/>
<text x="1016.8" y="934.4" text-anchor="middle" font-size="10" font-weight="700" fill="#1f2933">$1.58</text>
<text x="1016.8" y="987" text-anchor="middle" font-size="9" fill="#5f6b76">73%</text>
<text x="1052.6" y="974" text-anchor="middle" font-size="10.5" fill="#5f6b76">6</text>
<rect x="1039.7" y="941.1" width="25.8" height="18.9" rx="3" fill="#2a78d6"/>
<text x="1052.6" y="937.1" text-anchor="middle" font-size="10" font-weight="700" fill="#1f2933">$1.38</text>
<text x="1052.6" y="987" text-anchor="middle" font-size="9" fill="#5f6b76">15%</text>
<text x="1088.3" y="974" text-anchor="middle" font-size="10.5" fill="#5f6b76">7</text>
<text x="1124.1" y="974" text-anchor="middle" font-size="10.5" fill="#5f6b76">8</text>
<line x1="820" y1="939.1" x2="1142" y2="939.1" stroke="#5f6b76" stroke-dasharray="4 3"/>
<text x="981.0" y="1000" text-anchor="middle" font-size="10" fill="#1f2933">content objects con dato útil (de 8)</text>
</svg>