<svg xmlns="http://www.w3.org/2000/svg" width="2188" height="336" viewBox="0 0 2188 336" font-family="Arial, sans-serif">
<rect width="2188" height="336" fill="white"/>
<rect x="10" y="10" width="712" height="26" fill="#efefef"/>
<rect x="10" y="10" width="712" height="26" fill="none" stroke="#b7b7b7" stroke-width="1"/>
<text x="366.0" y="27.333333333333332" font-size="13" text-anchor="middle" font-weight="bold">MX</text>
<rect x="10" y="36" width="158" height="26" fill="#f7f7f7"/>
<rect x="10" y="36" width="158" height="26" fill="none" stroke="#b7b7b7" stroke-width="1"/>
<text x="16" y="53.0" font-size="12" text-anchor="start" font-weight="bold">Columna</text>
<rect x="168" y="36" width="84" height="26" fill="#f7f7f7"/>
<rect x="168" y="36" width="84" height="26" fill="none" stroke="#b7b7b7" stroke-width="1"/>
<text x="174" y="53.0" font-size="12" text-anchor="start" font-weight="bold">No vacías</text>
<rect x="252" y="36" width="470" height="26" fill="#f7f7f7"/>
<rect x="252" y="36" width="470" height="26" fill="none" stroke="#b7b7b7" stroke-width="1"/>
<text x="258" y="53.0" font-size="12" text-anchor="start" font-weight="bold">Top valores (% filas del país)</text>
<rect x="10" y="62" width="158" height="24" fill="none" stroke="#b7b7b7" stroke-width="1"/>
<text x="16" y="77.83333333333333" font-size="11.5" text-anchor="start">Publisher</text>
<rect x="168" y="62" width="84" height="24" fill="#d9ead3"/>
<rect x="168" y="62" width="84" height="24" fill="none" stroke="#b7b7b7" stroke-width="1"/>
<text x="246" y="77.83333333333333" font-size="11.5" text-anchor="end">100.00%</text>
<rect x="252" y="62" width="470" height="24" fill="none" stroke="#b7b7b7" stroke-width="1"/>
<text x="258" y="77.66666666666667" font-size="11" text-anchor="start">OTTera 13.9%, iion 13.2%, TCL Springserve 10.8%, TCL APAC 10.2%</text>
<rect x="10" y="86" width="158" height="24" fill="none" stroke="#b7b7b7" stroke-width="1"/>
<text x="16" y="101.83333333333333" font-size="11.5" text-anchor="start">App Name</text>
<rect x="168" y="86" width="84" height="24" fill="#fff2cc"/>
<rect x="168" y="86" width="84" height="24" fill="none" stroke="#b7b7b7" stroke-width="1"/>
<text x="246" y="101.83333333333333" font-size="11.5" text-anchor="end">83.47%</text>
<rect x="252" y="86" width="470" height="24" fill="none" stroke="#b7b7b7" stroke-width="1"/>
<text x="258" y="101.66666666666667" font-size="11" text-anchor="start">MovieArk 25.1%, Live TV 18.9%, N/A 16.5%, BrowseHere 4.9%</text>
<rect x="10" y="110" width="158" height="24" fill="none" stroke="#b7b7b7" stroke-width="1"/>
<text x="16" y="125.83333333333333" font-size="11.5" text-anchor="start">contentTitle</text>
<rect x="168" y="110" width="84" height="24" fill="#fff2cc"/>
<rect x="168" y="110" width="84" height="24" fill="none" stroke="#b7b7b7" stroke-width="1"/>
<text x="246" y="125.83333333333333" font-size="11.5" text-anchor="end">83.68%</text>
<rect x="252" y="110" width="470" height="24" fill="none" stroke="#b7b7b7" stroke-width="1"/>
<text x="258" y="125.66666666666667" font-size="11" text-anchor="start">N/A 16.3%, las estrellas 0.5%, canal 5 0.4%, golden edge 0.4%</text>
<rect x="10" y="134" width="158" height="24" fill="none" stroke="#b7b7b7" stroke-width="1"/>
<text x="16" y="149.83333333333334" font-size="11.5" text-anchor="start">contentGenre</text>
<rect x="168" y="134" width="84" height="24" fill="#d9ead3"/>
<rect x="168" y="134" width="84" height="24" fill="none" stroke="#b7b7b7" stroke-width="1"/>
<text x="246" y="149.83333333333334" font-size="11.5" text-anchor="end">99.07%</text>
<rect x="252" y="134" width="470" height="24" fill="none" stroke="#b7b7b7" stroke-width="1"/>
<text x="258" y="149.66666666666666" font-size="11" text-anchor="start">drama 11.1%, documentary 4.0%, other 3.9%, comedy 3.8%</text>
<rect x="10" y="158" width="158" height="24" fill="none" stroke="#b7b7b7" stroke-width="1"/>
<text x="16" y="173.83333333333334" font-size="11.5" text-anchor="start">contentSeries</text>
<rect x="168" y="158" width="84" height="24" fill="#f4cccc"/>
<rect x="168" y="158" width="84" height="24" fill="none" stroke="#b7b7b7" stroke-width="1"/>
<text x="246" y="173.83333333333334" font-size="11.5" text-anchor="end">7.21%</text>
<rect x="252" y="158" width="470" height="24" fill="none" stroke="#b7b7b7" stroke-width="1"/>
<text x="258" y="173.66666666666666" font-size="11" text-anchor="start">N/A 91.5%, md5-vacío 1.3%, VOD 0.5%, OTT Studios Entertainment… 0.4%</text>
<rect x="10" y="182" width="158" height="24" fill="none" stroke="#b7b7b7" stroke-width="1"/>
<text x="16" y="197.83333333333334" font-size="11.5" text-anchor="start">contentLanguage</text>
<rect x="168" y="182" width="84" height="24" fill="#fff2cc"/>
<rect x="168" y="182" width="84" height="24" fill="none" stroke="#b7b7b7" stroke-width="1"/>
<text x="246" y="197.83333333333334" font-size="11.5" text-anchor="end">75.88%</text>
<rect x="252" y="182" width="470" height="24" fill="none" stroke="#b7b7b7" stroke-width="1"/>
<text x="258" y="197.66666666666666" font-size="11" text-anchor="start">es 36.5%, en 34.1%, N/A 23.8%, spa 0.8%</text>
<rect x="10" y="206" width="158" height="24" fill="none" stroke="#b7b7b7" stroke-width="1"/>
<text x="16" y="221.83333333333334" font-size="11.5" text-anchor="start">contentCategory</text>
<rect x="168" y="206" width="84" height="24" fill="#fce5cd"/>
<rect x="168" y="206" width="84" height="24" fill="none" stroke="#b7b7b7" stroke-width="1"/>
<text x="246" y="221.83333333333334" font-size="11.5" text-anchor="end">25.33%</text>
<rect x="252" y="206" width="470" height="24" fill="none" stroke="#b7b7b7" stroke-width="1"/>
<text x="258" y="221.66666666666666" font-size="11" text-anchor="start">[-7] 74.7%, [IAB12] 5.2%, [IAB1-5] 4.2%, [IAB1] 4.0%</text>
<rect x="10" y="230" width="158" height="24" fill="none" stroke="#b7b7b7" stroke-width="1"/>
<text x="16" y="245.83333333333334" font-size="11.5" text-anchor="start">contentRating</text>
<rect x="168" y="230" width="84" height="24" fill="#fff2cc"/>
<rect x="168" y="230" width="84" height="24" fill="none" stroke="#b7b7b7" stroke-width="1"/>
<text x="246" y="245.83333333333334" font-size="11.5" text-anchor="end">82.80%</text>
<rect x="252" y="230" width="470" height="24" fill="none" stroke="#b7b7b7" stroke-width="1"/>
<text x="258" y="245.66666666666666" font-size="11" text-anchor="start">N/A 17.1%, tv-14 13.7%, r 9.7%, tv-pg 8.0%</text>
<rect x="10" y="254" width="158" height="24" fill="none" stroke="#b7b7b7" stroke-width="1"/>
<text x="16" y="269.8333333333333" font-size="11.5" text-anchor="start">contentLength</text>
<rect x="168" y="254" width="84" height="24" fill="#f4cccc"/>
<rect x="168" y="254" width="84" height="24" fill="none" stroke="#b7b7b7" stroke-width="1"/>
<text x="246" y="269.8333333333333" font-size="11.5" text-anchor="end">17.03%</text>
<rect x="252" y="254" width="470" height="24" fill="none" stroke="#b7b7b7" stroke-width="1"/>
<text x="258" y="269.6666666666667" font-size="11" text-anchor="start">N/A 83.0%, 6 6.4%, 5 3.9%, 8 3.0%</text>
<rect x="10" y="278" width="158" height="24" fill="none" stroke="#b7b7b7" stroke-width="1"/>
<text x="16" y="293.8333333333333" font-size="11.5" text-anchor="start">contentIsLiveStream</text>
<rect x="168" y="278" width="84" height="24" fill="#fce5cd"/>
<rect x="168" y="278" width="84" height="24" fill="none" stroke="#b7b7b7" stroke-width="1"/>
<text x="246" y="293.8333333333333" font-size="11.5" text-anchor="end">26.33%</text>
<rect x="252" y="278" width="470" height="24" fill="none" stroke="#b7b7b7" stroke-width="1"/>
<text x="258" y="293.6666666666667" font-size="11" text-anchor="start">Unknown 37.1%, N/A 36.5%, 1 26.3%</text>
<rect x="10" y="302" width="158" height="24" fill="none" stroke="#b7b7b7" stroke-width="1"/>
<text x="16" y="317.8333333333333" font-size="11.5" text-anchor="start">contentIsTitlePresent</text>
<rect x="168" y="302" width="84" height="24" fill="#d9ead3"/>
<rect x="168" y="302" width="84" height="24" fill="none" stroke="#b7b7b7" stroke-width="1"/>
<text x="246" y="317.8333333333333" font-size="11.5" text-anchor="end">100.00%</text>
<rect x="252" y="302" width="470" height="24" fill="none" stroke="#b7b7b7" stroke-width="1"/>
<text x="258" y="317.6666666666667" font-size="11" text-anchor="start">true 83.7%, false 16.3%</text>
<rect x="738" y="10" width="712" height="26" fill="#efefef"/>
<rect x="738" y="10" width="712" height="26" fill="none" stroke="#b7b7b7" stroke-width="1"/>
<text x="1094.0" y="27.333333333333332" font-size="13" text-anchor="middle" font-weight="bold">CO</text>
<rect x="738" y="36" width="158" height="26" fill="#f7f7f7"/>
<rect x="738" y="36" width="158" height="26" fill="none" stroke="#b7b7b7" stroke-width="1"/>
<text x="744" y="53.0" font-size="12" text-anchor="start" font-weight="bold">Columna</text>
<rect x="896" y="36" width="84" height="26" fill="#f7f7f7"/>
<rect x="896" y="36" width="84" height="26" fill="none" stroke="#b7b7b7" stroke-width="1"/>
<text x="902" y="53.0" font-size="12" text-anchor="start" font-weight="bold">No vacías</text>
<rect x="980" y="36" width="470" height="26" fill="#f7f7f7"/>
<rect x="980" y="36" width="470" height="26" fill="none" stroke="#b7b7b7" stroke-width="1"/>
<text x="986" y="53.0" font-size="12" text-anchor="start" font-weight="bold">Top valores (% filas del país)</text>
<rect x="738" y="62" width="158" height="24" fill="none" stroke="#b7b7b7" stroke-width="1"/>
<text x="744" y="77.83333333333333" font-size="11.5" text-anchor="start">Publisher</text>
<rect x="896" y="62" width="84" height="24" fill="#d9ead3"/>
<rect x="896" y="62" width="84" height="24" fill="none" stroke="#b7b7b7" stroke-width="1"/>
<text x="974" y="77.83333333333333" font-size="11.5" text-anchor="end">100.00%</text>
<rect x="980" y="62" width="470" height="24" fill="none" stroke="#b7b7b7" stroke-width="1"/>
<text x="986" y="77.66666666666667" font-size="11" text-anchor="start">iion 28.6%, OTTera 21.5%, TCL APAC 10.9%, Select Plus 10.1%</text>
<rect x="738" y="86" width="158" height="24" fill="none" stroke="#b7b7b7" stroke-width="1"/>
<text x="744" y="101.83333333333333" font-size="11.5" text-anchor="start">App Name</text>
<rect x="896" y="86" width="84" height="24" fill="#d9ead3"/>
<rect x="896" y="86" width="84" height="24" fill="none" stroke="#b7b7b7" stroke-width="1"/>
<text x="974" y="101.83333333333333" font-size="11.5" text-anchor="end">96.54%</text>
<rect x="980" y="86" width="470" height="24" fill="none" stroke="#b7b7b7" stroke-width="1"/>
<text x="986" y="101.66666666666667" font-size="11" text-anchor="start">MovieArk 35.0%, Live TV 28.4%, TCL CHANNEL 12.3%, BrowseHere 7.8%</text>
<rect x="738" y="110" width="158" height="24" fill="none" stroke="#b7b7b7" stroke-width="1"/>
<text x="744" y="125.83333333333333" font-size="11.5" text-anchor="start">contentTitle</text>
<rect x="896" y="110" width="84" height="24" fill="#d9ead3"/>
<rect x="896" y="110" width="84" height="24" fill="none" stroke="#b7b7b7" stroke-width="1"/>
<text x="974" y="125.83333333333333" font-size="11.5" text-anchor="end">94.91%</text>
<rect x="980" y="110" width="470" height="24" fill="none" stroke="#b7b7b7" stroke-width="1"/>
<text x="986" y="125.66666666666667" font-size="11" text-anchor="start">N/A 5.1%, {{content_title}} 0.2%, nail in the coffin: the f… 0.2%, breathe …</text>
<rect x="738" y="134" width="158" height="24" fill="none" stroke="#b7b7b7" stroke-width="1"/>
<text x="744" y="149.83333333333334" font-size="11.5" text-anchor="start">contentGenre</text>
<rect x="896" y="134" width="84" height="24" fill="#d9ead3"/>
<rect x="896" y="134" width="84" height="24" fill="none" stroke="#b7b7b7" stroke-width="1"/>
<text x="974" y="149.83333333333334" font-size="11.5" text-anchor="end">98.48%</text>
<rect x="980" y="134" width="470" height="24" fill="none" stroke="#b7b7b7" stroke-width="1"/>
<text x="986" y="149.66666666666666" font-size="11" text-anchor="start">drama 9.7%, other 7.2%, horror 4.7%, documentary 4.5%</text>
<rect x="738" y="158" width="158" height="24" fill="none" stroke="#b7b7b7" stroke-width="1"/>
<text x="744" y="173.83333333333334" font-size="11.5" text-anchor="start">contentSeries</text>
<rect x="896" y="158" width="84" height="24" fill="#f4cccc"/>
<rect x="896" y="158" width="84" height="24" fill="none" stroke="#b7b7b7" stroke-width="1"/>
<text x="974" y="173.83333333333334" font-size="11.5" text-anchor="end">6.17%</text>
<rect x="980" y="158" width="470" height="24" fill="none" stroke="#b7b7b7" stroke-width="1"/>
<text x="986" y="173.66666666666666" font-size="11" text-anchor="start">N/A 93.8%, VOD 0.9%, OTT Studios Entertainment… 0.3%, No Series 0.1%</text>
<rect x="738" y="182" width="158" height="24" fill="none" stroke="#b7b7b7" stroke-width="1"/>
<text x="744" y="197.83333333333334" font-size="11.5" text-anchor="start">contentLanguage</text>
<rect x="896" y="182" width="84" height="24" fill="#fff2cc"/>
<rect x="896" y="182" width="84" height="24" fill="none" stroke="#b7b7b7" stroke-width="1"/>
<text x="974" y="197.83333333333334" font-size="11.5" text-anchor="end">62.21%</text>
<rect x="980" y="182" width="470" height="24" fill="none" stroke="#b7b7b7" stroke-width="1"/>
<text x="986" y="197.66666666666666" font-size="11" text-anchor="start">en 41.9%, N/A 37.8%, es 15.6%, c 1.7%</text>
<rect x="738" y="206" width="158" height="24" fill="none" stroke="#b7b7b7" stroke-width="1"/>
<text x="744" y="221.83333333333334" font-size="11.5" text-anchor="start">contentCategory</text>
<rect x="896" y="206" width="84" height="24" fill="#fce5cd"/>
<rect x="896" y="206" width="84" height="24" fill="none" stroke="#b7b7b7" stroke-width="1"/>
<text x="974" y="221.83333333333334" font-size="11.5" text-anchor="end">23.54%</text>
<rect x="980" y="206" width="470" height="24" fill="none" stroke="#b7b7b7" stroke-width="1"/>
<text x="986" y="221.66666666666666" font-size="11" text-anchor="start">[-7] 76.5%, [IAB1] 6.5%, [IAB1-22] 3.2%, [IAB1, IAB1-5] 2.2%</text>
<rect x="738" y="230" width="158" height="24" fill="none" stroke="#b7b7b7" stroke-width="1"/>
<text x="744" y="245.83333333333334" font-size="11.5" text-anchor="start">contentRating</text>
<rect x="896" y="230" width="84" height="24" fill="#fff2cc"/>
<rect x="896" y="230" width="84" height="24" fill="none" stroke="#b7b7b7" stroke-width="1"/>
<text x="974" y="245.83333333333334" font-size="11.5" text-anchor="end">79.87%</text>
<rect x="980" y="230" width="470" height="24" fill="none" stroke="#b7b7b7" stroke-width="1"/>
<text x="986" y="245.66666666666666" font-size="11" text-anchor="start">N/A 20.1%, r 11.5%, tv-14 9.7%, nr 8.6%</text>
<rect x="738" y="254" width="158" height="24" fill="none" stroke="#b7b7b7" stroke-width="1"/>
<text x="744" y="269.8333333333333" font-size="11.5" text-anchor="start">contentLength</text>
<rect x="896" y="254" width="84" height="24" fill="#f4cccc"/>
<rect x="896" y="254" width="84" height="24" fill="none" stroke="#b7b7b7" stroke-width="1"/>
<text x="974" y="269.8333333333333" font-size="11.5" text-anchor="end">10.13%</text>
<rect x="980" y="254" width="470" height="24" fill="none" stroke="#b7b7b7" stroke-width="1"/>
<text x="986" y="269.6666666666667" font-size="11" text-anchor="start">N/A 89.9%, 4 3.3%, 5 2.9%, 6 2.7%</text>
<rect x="738" y="278" width="158" height="24" fill="none" stroke="#b7b7b7" stroke-width="1"/>
<text x="744" y="293.8333333333333" font-size="11.5" text-anchor="start">contentIsLiveStream</text>
<rect x="896" y="278" width="84" height="24" fill="#fce5cd"/>
<rect x="896" y="278" width="84" height="24" fill="none" stroke="#b7b7b7" stroke-width="1"/>
<text x="974" y="293.8333333333333" font-size="11.5" text-anchor="end">26.26%</text>
<rect x="980" y="278" width="470" height="24" fill="none" stroke="#b7b7b7" stroke-width="1"/>
<text x="986" y="293.6666666666667" font-size="11" text-anchor="start">Unknown 41.8%, N/A 31.9%, 1 26.3%</text>
<rect x="738" y="302" width="158" height="24" fill="none" stroke="#b7b7b7" stroke-width="1"/>
<text x="744" y="317.8333333333333" font-size="11.5" text-anchor="start">contentIsTitlePresent</text>
<rect x="896" y="302" width="84" height="24" fill="#d9ead3"/>
<rect x="896" y="302" width="84" height="24" fill="none" stroke="#b7b7b7" stroke-width="1"/>
<text x="974" y="317.8333333333333" font-size="11.5" text-anchor="end">100.00%</text>
<rect x="980" y="302" width="470" height="24" fill="none" stroke="#b7b7b7" stroke-width="1"/>
<text x="986" y="317.6666666666667" font-size="11" text-anchor="start">true 94.9%, false 5.1%</text>
<rect x="1466" y="10" width="712" height="26" fill="#efefef"/>
<rect x="1466" y="10" width="712" height="26" fill="none" stroke="#b7b7b7" stroke-width="1"/>
<text x="1822.0" y="27.333333333333332" font-size="13" text-anchor="middle" font-weight="bold">CL</text>
<rect x="1466" y="36" width="158" height="26" fill="#f7f7f7"/>
<rect x="1466" y="36" width="158" height="26" fill="none" stroke="#b7b7b7" stroke-width="1"/>
<text x="1472" y="53.0" font-size="12" text-anchor="start" font-weight="bold">Columna</text>
<rect x="1624" y="36" width="84" height="26" fill="#f7f7f7"/>
<rect x="1624" y="36" width="84" height="26" fill="none" stroke="#b7b7b7" stroke-width="1"/>
<text x="1630" y="53.0" font-size="12" text-anchor="start" font-weight="bold">No vacías</text>
<rect x="1708" y="36" width="470" height="26" fill="#f7f7f7"/>
<rect x="1708" y="36" width="470" height="26" fill="none" stroke="#b7b7b7" stroke-width="1"/>
<text x="1714" y="53.0" font-size="12" text-anchor="start" font-weight="bold">Top valores (% filas del país)</text>
<rect x="1466" y="62" width="158" height="24" fill="none" stroke="#b7b7b7" stroke-width="1"/>
<text x="1472" y="77.83333333333333" font-size="11.5" text-anchor="start">Publisher</text>
<rect x="1624" y="62" width="84" height="24" fill="#d9ead3"/>
<rect x="1624" y="62" width="84" height="24" fill="none" stroke="#b7b7b7" stroke-width="1"/>
<text x="1702" y="77.83333333333333" font-size="11.5" text-anchor="end">100.00%</text>
<rect x="1708" y="62" width="470" height="24" fill="none" stroke="#b7b7b7" stroke-width="1"/>
<text x="1714" y="77.66666666666667" font-size="11" text-anchor="start">iion 21.4%, TCL Springserve 18.6%, OTTera 17.3%, TCL APAC 15.4%</text>
<rect x="1466" y="86" width="158" height="24" fill="none" stroke="#b7b7b7" stroke-width="1"/>
<text x="1472" y="101.83333333333333" font-size="11.5" text-anchor="start">App Name</text>
<rect x="1624" y="86" width="84" height="24" fill="#d9ead3"/>
<rect x="1624" y="86" width="84" height="24" fill="none" stroke="#b7b7b7" stroke-width="1"/>
<text x="1702" y="101.83333333333333" font-size="11.5" text-anchor="end">92.75%</text>
<rect x="1708" y="86" width="470" height="24" fill="none" stroke="#b7b7b7" stroke-width="1"/>
<text x="1714" y="101.66666666666667" font-size="11" text-anchor="start">MovieArk 43.6%, Live TV 28.5%, N/A 7.2%, TCL CHANNEL 6.5%</text>
<rect x="1466" y="110" width="158" height="24" fill="none" stroke="#b7b7b7" stroke-width="1"/>
<text x="1472" y="125.83333333333333" font-size="11.5" text-anchor="start">contentTitle</text>
<rect x="1624" y="110" width="84" height="24" fill="#d9ead3"/>
<rect x="1624" y="110" width="84" height="24" fill="none" stroke="#b7b7b7" stroke-width="1"/>
<text x="1702" y="125.83333333333333" font-size="11.5" text-anchor="end">96.69%</text>
<rect x="1708" y="110" width="470" height="24" fill="none" stroke="#b7b7b7" stroke-width="1"/>
<text x="1714" y="125.66666666666667" font-size="11" text-anchor="start">N/A 3.3%, catalunya �ber alles! 0.2%, the baddest bad boy 0.2%, haus of hor…</text>
<rect x="1466" y="134" width="158" height="24" fill="none" stroke="#b7b7b7" stroke-width="1"/>
<text x="1472" y="149.83333333333334" font-size="11.5" text-anchor="start">contentGenre</text>
<rect x="1624" y="134" width="84" height="24" fill="#d9ead3"/>
<rect x="1624" y="134" width="84" height="24" fill="none" stroke="#b7b7b7" stroke-width="1"/>
<text x="1702" y="149.83333333333334" font-size="11.5" text-anchor="end">99.46%</text>
<rect x="1708" y="134" width="470" height="24" fill="none" stroke="#b7b7b7" stroke-width="1"/>
<text x="1714" y="149.66666666666666" font-size="11" text-anchor="start">drama 8.5%, other 6.2%, documentary 5.9%, horror 4.0%</text>
<rect x="1466" y="158" width="158" height="24" fill="none" stroke="#b7b7b7" stroke-width="1"/>
<text x="1472" y="173.83333333333334" font-size="11.5" text-anchor="start">contentSeries</text>
<rect x="1624" y="158" width="84" height="24" fill="#f4cccc"/>
<rect x="1624" y="158" width="84" height="24" fill="none" stroke="#b7b7b7" stroke-width="1"/>
<text x="1702" y="173.83333333333334" font-size="11.5" text-anchor="end">5.16%</text>
<rect x="1708" y="158" width="470" height="24" fill="none" stroke="#b7b7b7" stroke-width="1"/>
<text x="1714" y="173.66666666666666" font-size="11" text-anchor="start">N/A 94.8%, VOD 0.8%, OTT Studios Entertainment… 0.2%, {{CONTENT_SERIES}} 0.…</text>
<rect x="1466" y="182" width="158" height="24" fill="none" stroke="#b7b7b7" stroke-width="1"/>
<text x="1472" y="197.83333333333334" font-size="11.5" text-anchor="start">contentLanguage</text>
<rect x="1624" y="182" width="84" height="24" fill="#fff2cc"/>
<rect x="1624" y="182" width="84" height="24" fill="none" stroke="#b7b7b7" stroke-width="1"/>
<text x="1702" y="197.83333333333334" font-size="11.5" text-anchor="end">73.06%</text>
<rect x="1708" y="182" width="470" height="24" fill="none" stroke="#b7b7b7" stroke-width="1"/>
<text x="1714" y="197.66666666666666" font-size="11" text-anchor="start">en 50.9%, N/A 26.9%, es 18.2%, pt 1.4%</text>
<rect x="1466" y="206" width="158" height="24" fill="none" stroke="#b7b7b7" stroke-width="1"/>
<text x="1472" y="221.83333333333334" font-size="11.5" text-anchor="start">contentCategory</text>
<rect x="1624" y="206" width="84" height="24" fill="#f4cccc"/>
<rect x="1624" y="206" width="84" height="24" fill="none" stroke="#b7b7b7" stroke-width="1"/>
<text x="1702" y="221.83333333333334" font-size="11.5" text-anchor="end">15.28%</text>
<rect x="1708" y="206" width="470" height="24" fill="none" stroke="#b7b7b7" stroke-width="1"/>
<text x="1714" y="221.66666666666666" font-size="11" text-anchor="start">[-7] 84.7%, [IAB1] 6.1%, [IAB1-22] 1.1%, [IAB17] 0.8%</text>
<rect x="1466" y="230" width="158" height="24" fill="none" stroke="#b7b7b7" stroke-width="1"/>
<text x="1472" y="245.83333333333334" font-size="11.5" text-anchor="start">contentRating</text>
<rect x="1624" y="230" width="84" height="24" fill="#fff2cc"/>
<rect x="1624" y="230" width="84" height="24" fill="none" stroke="#b7b7b7" stroke-width="1"/>
<text x="1702" y="245.83333333333334" font-size="11.5" text-anchor="end">82.91%</text>
<rect x="1708" y="230" width="470" height="24" fill="none" stroke="#b7b7b7" stroke-width="1"/>
<text x="1714" y="245.66666666666666" font-size="11" text-anchor="start">N/A 17.1%, tv-ma 13.1%, r 11.4%, tv-14 10.5%</text>
<rect x="1466" y="254" width="158" height="24" fill="none" stroke="#b7b7b7" stroke-width="1"/>
<text x="1472" y="269.8333333333333" font-size="11.5" text-anchor="start">contentLength</text>
<rect x="1624" y="254" width="84" height="24" fill="#f4cccc"/>
<rect x="1624" y="254" width="84" height="24" fill="none" stroke="#b7b7b7" stroke-width="1"/>
<text x="1702" y="269.8333333333333" font-size="11.5" text-anchor="end">7.67%</text>
<rect x="1708" y="254" width="470" height="24" fill="none" stroke="#b7b7b7" stroke-width="1"/>
<text x="1714" y="269.6666666666667" font-size="11" text-anchor="start">N/A 92.3%, 4 2.8%, 5 2.0%, 6 1.8%</text>
<rect x="1466" y="278" width="158" height="24" fill="none" stroke="#b7b7b7" stroke-width="1"/>
<text x="1472" y="293.8333333333333" font-size="11.5" text-anchor="start">contentIsLiveStream</text>
<rect x="1624" y="278" width="84" height="24" fill="#f4cccc"/>
<rect x="1624" y="278" width="84" height="24" fill="none" stroke="#b7b7b7" stroke-width="1"/>
<text x="1702" y="293.8333333333333" font-size="11.5" text-anchor="end">17.03%</text>
<rect x="1708" y="278" width="470" height="24" fill="none" stroke="#b7b7b7" stroke-width="1"/>
<text x="1714" y="293.6666666666667" font-size="11" text-anchor="start">N/A 43.7%, Unknown 39.3%, 1 17.0%</text>
<rect x="1466" y="302" width="158" height="24" fill="none" stroke="#b7b7b7" stroke-width="1"/>
<text x="1472" y="317.8333333333333" font-size="11.5" text-anchor="start">contentIsTitlePresent</text>
<rect x="1624" y="302" width="84" height="24" fill="#d9ead3"/>
<rect x="1624" y="302" width="84" height="24" fill="none" stroke="#b7b7b7" stroke-width="1"/>
<text x="1702" y="317.8333333333333" font-size="11.5" text-anchor="end">100.00%</text>
<rect x="1708" y="302" width="470" height="24" fill="none" stroke="#b7b7b7" stroke-width="1"/>
<text x="1714" y="317.6666666666667" font-size="11" text-anchor="start">true 96.7%, false 3.3%</text>
</svg>