<svg xmlns="http://www.w3.org/2000/svg" width="846" height="684" viewBox="0 0 846 684" font-family="Segoe UI, Helvetica, Arial, sans-serif" font-size="12">
<rect width="846" height="684" fill="#ffffff"/>
<text x="16" y="26" font-size="17" font-weight="700" fill="#1f2933">eCPM ponderado por publisher y país (filas con eCPM &gt; 0)</text>
<text x="16" y="46" font-size="12" fill="#5f6b76">Color = eCPM ponderado (más oscuro, más caro). En cada celda: eCPM y % del tráfico vendido del consolidado que cae ahí. Gris: menos de 0.05% del tráfico vendido.</text>
<text x="206.0" y="70" text-anchor="middle" font-weight="600" fill="#1f2933">México</text>
<text x="206.0" y="86" text-anchor="middle" fill="#5f6b76">67.5% vendido</text>
<text x="318.0" y="70" text-anchor="middle" font-weight="600" fill="#1f2933">Argentina</text>
<text x="318.0" y="86" text-anchor="middle" fill="#5f6b76">15.7% vendido</text>
<text x="430.0" y="70" text-anchor="middle" font-weight="600" fill="#1f2933">Colombia</text>
<text x="430.0" y="86" text-anchor="middle" fill="#5f6b76">6.1% vendido</text>
<text x="542.0" y="70" text-anchor="middle" font-weight="600" fill="#1f2933">Chile</text>
<text x="542.0" y="86" text-anchor="middle" fill="#5f6b76">4.3% vendido</text>
<text x="654.0" y="70" text-anchor="middle" font-weight="600" fill="#1f2933">Perú</text>
<text x="654.0" y="86" text-anchor="middle" fill="#5f6b76">3.2% vendido</text>
<text x="766.0" y="70" text-anchor="middle" font-weight="600" fill="#1f2933">Costa Rica</text>
<text x="766.0" y="86" text-anchor="middle" fill="#5f6b76">0.9% vendido</text>
<text x="142" y="122.0" text-anchor="end" fill="#1f2933">iion</text>
<rect x="151" y="97" width="110" height="42" rx="4" fill="#c5dbf4"/>
<text x="206.0" y="116.0" text-anchor="middle" font-weight="700" fill="#1f2933">$2.36</text>
<text x="206.0" y="131.0" text-anchor="middle" font-size="10.5" fill="#1f2933">7.9%</text>
<rect x="263" y="97" width="110" height="42" rx="4" fill="#6fa3dd"/>
<text x="318.0" y="116.0" text-anchor="middle" font-weight="700" fill="#1f2933">$3.96</text>
<text x="318.0" y="131.0" text-anchor="middle" font-size="10.5" fill="#1f2933">3.6%</text>
<rect x="375" y="97" width="110" height="42" rx="4" fill="#9dc1ea"/>
<text x="430.0" y="116.0" text-anchor="middle" font-weight="700" fill="#1f2933">$3.05</text>
<text x="430.0" y="131.0" text-anchor="middle" font-size="10.5" fill="#1f2933">3.5%</text>
<rect x="487" y="97" width="110" height="42" rx="4" fill="#f3f4f6"/>
<rect x="599" y="97" width="110" height="42" rx="4" fill="#6fa3dd"/>
<text x="654.0" y="116.0" text-anchor="middle" font-weight="700" fill="#1f2933">$4.77</text>
<text x="654.0" y="131.0" text-anchor="middle" font-size="10.5" fill="#1f2933">1.7%</text>
<rect x="711" y="97" width="110" height="42" rx="4" fill="#f3f4f6"/>
<text x="142" y="166.0" text-anchor="end" fill="#1f2933">Roku</text>
<rect x="151" y="141" width="110" height="42" rx="4" fill="#4386cf"/>
<text x="206.0" y="160.0" text-anchor="middle" font-weight="700" fill="#ffffff">$5.37</text>
<text x="206.0" y="175.0" text-anchor="middle" font-size="10.5" fill="#ffffff">14.5%</text>
<rect x="263" y="141" width="110" height="42" rx="4" fill="#f3f4f6"/>
<rect x="375" y="141" width="110" height="42" rx="4" fill="#f3f4f6"/>
<rect x="487" y="141" width="110" height="42" rx="4" fill="#f3f4f6"/>
<rect x="599" y="141" width="110" height="42" rx="4" fill="#f3f4f6"/>
<rect x="711" y="141" width="110" height="42" rx="4" fill="#f3f4f6"/>
<text x="142" y="210.0" text-anchor="end" fill="#1f2933">TCL Springserve</text>
<rect x="151" y="185" width="110" height="42" rx="4" fill="#c5dbf4"/>
<text x="206.0" y="204.0" text-anchor="middle" font-weight="700" fill="#1f2933">$2.31</text>
<text x="206.0" y="219.0" text-anchor="middle" font-size="10.5" fill="#1f2933">6.3%</text>
<rect x="263" y="185" width="110" height="42" rx="4" fill="#2a6fb8"/>
<text x="318.0" y="204.0" text-anchor="middle" font-weight="700" fill="#ffffff">$6.12</text>
<text x="318.0" y="219.0" text-anchor="middle" font-size="10.5" fill="#ffffff">4.8%</text>
<rect x="375" y="185" width="110" height="42" rx="4" fill="#f3f4f6"/>
<rect x="487" y="185" width="110" height="42" rx="4" fill="#1f568f"/>
<text x="542.0" y="204.0" text-anchor="middle" font-weight="700" fill="#ffffff">$7.56</text>
<text x="542.0" y="219.0" text-anchor="middle" font-size="10.5" fill="#ffffff">1.3%</text>
<rect x="599" y="185" width="110" height="42" rx="4" fill="#f3f4f6"/>
<rect x="711" y="185" width="110" height="42" rx="4" fill="#4386cf"/>
<text x="766.0" y="204.0" text-anchor="middle" font-weight="700" fill="#ffffff">$5.14</text>
<text x="766.0" y="219.0" text-anchor="middle" font-size="10.5" fill="#ffffff">0.4%</text>
<text x="142" y="254.0" text-anchor="end" fill="#1f2933">TV Azteca (SS)</text>
<rect x="151" y="229" width="110" height="42" rx="4" fill="#4386cf"/>
<text x="206.0" y="248.0" text-anchor="middle" font-weight="700" fill="#ffffff">$5.10</text>
<text x="206.0" y="263.0" text-anchor="middle" font-size="10.5" fill="#ffffff">10.1%</text>
<rect x="263" y="229" width="110" height="42" rx="4" fill="#f3f4f6"/>
<rect x="375" y="229" width="110" height="42" rx="4" fill="#f3f4f6"/>
<rect x="487" y="229" width="110" height="42" rx="4" fill="#f3f4f6"/>
<rect x="599" y="229" width="110" height="42" rx="4" fill="#f3f4f6"/>
<rect x="711" y="229" width="110" height="42" rx="4" fill="#f3f4f6"/>
<text x="142" y="298.0" text-anchor="end" fill="#1f2933">TCL APAC</text>
<rect x="151" y="273" width="110" height="42" rx="4" fill="#c5dbf4"/>
<text x="206.0" y="292.0" text-anchor="middle" font-weight="700" fill="#1f2933">$2.21</text>
<text x="206.0" y="307.0" text-anchor="middle" font-size="10.5" fill="#1f2933">3.2%</text>
<rect x="263" y="273" width="110" height="42" rx="4" fill="#1f568f"/>
<text x="318.0" y="292.0" text-anchor="middle" font-weight="700" fill="#ffffff">$6.99</text>
<text x="318.0" y="307.0" text-anchor="middle" font-size="10.5" fill="#ffffff">2.3%</text>
<rect x="375" y="273" width="110" height="42" rx="4" fill="#e8f1fb"/>
<text x="430.0" y="292.0" text-anchor="middle" font-weight="700" fill="#1f2933">$1.57</text>
<text x="430.0" y="307.0" text-anchor="middle" font-size="10.5" fill="#1f2933">1.1%</text>
<rect x="487" y="273" width="110" height="42" rx="4" fill="#1f568f"/>
<text x="542.0" y="292.0" text-anchor="middle" font-weight="700" fill="#ffffff">$7.75</text>
<text x="542.0" y="307.0" text-anchor="middle" font-size="10.5" fill="#ffffff">0.9%</text>
<rect x="599" y="273" width="110" height="42" rx="4" fill="#6fa3dd"/>
<text x="654.0" y="292.0" text-anchor="middle" font-weight="700" fill="#1f2933">$4.24</text>
<text x="654.0" y="307.0" text-anchor="middle" font-size="10.5" fill="#1f2933">0.6%</text>
<rect x="711" y="273" width="110" height="42" rx="4" fill="#f3f4f6"/>
<text x="142" y="342.0" text-anchor="end" fill="#1f2933">Televisa (SS)</text>
<rect x="151" y="317" width="110" height="42" rx="4" fill="#e8f1fb"/>
<text x="206.0" y="336.0" text-anchor="middle" font-weight="700" fill="#1f2933">$1.76</text>
<text x="206.0" y="351.0" text-anchor="middle" font-size="10.5" fill="#1f2933">6.3%</text>
<rect x="263" y="317" width="110" height="42" rx="4" fill="#6fa3dd"/>
<text x="318.0" y="336.0" text-anchor="middle" font-weight="700" fill="#1f2933">$4.54</text>
<text x="318.0" y="351.0" text-anchor="middle" font-size="10.5" fill="#1f2933">0.1%</text>
<rect x="375" y="317" width="110" height="42" rx="4" fill="#f3f4f6"/>
<rect x="487" y="317" width="110" height="42" rx="4" fill="#f3f4f6"/>
<rect x="599" y="317" width="110" height="42" rx="4" fill="#f3f4f6"/>
<rect x="711" y="317" width="110" height="42" rx="4" fill="#f3f4f6"/>
<text x="142" y="386.0" text-anchor="end" fill="#1f2933">Vidaa</text>
<rect x="151" y="361" width="110" height="42" rx="4" fill="#e8f1fb"/>
<text x="206.0" y="380.0" text-anchor="middle" font-weight="700" fill="#1f2933">$0.99</text>
<text x="206.0" y="395.0" text-anchor="middle" font-size="10.5" fill="#1f2933">3.8%</text>
<rect x="263" y="361" width="110" height="42" rx="4" fill="#c5dbf4"/>
<text x="318.0" y="380.0" text-anchor="middle" font-weight="700" fill="#1f2933">$2.49</text>
<text x="318.0" y="395.0" text-anchor="middle" font-size="10.5" fill="#1f2933">0.3%</text>
<rect x="375" y="361" width="110" height="42" rx="4" fill="#9dc1ea"/>
<text x="430.0" y="380.0" text-anchor="middle" font-weight="700" fill="#1f2933">$3.09</text>
<text x="430.0" y="395.0" text-anchor="middle" font-size="10.5" fill="#1f2933">0.2%</text>
<rect x="487" y="361" width="110" height="42" rx="4" fill="#9dc1ea"/>
<text x="542.0" y="380.0" text-anchor="middle" font-weight="700" fill="#1f2933">$3.81</text>
<text x="542.0" y="395.0" text-anchor="middle" font-size="10.5" fill="#1f2933">0.1%</text>
<rect x="599" y="361" width="110" height="42" rx="4" fill="#6fa3dd"/>
<text x="654.0" y="380.0" text-anchor="middle" font-weight="700" fill="#1f2933">$3.97</text>
<text x="654.0" y="395.0" text-anchor="middle" font-size="10.5" fill="#1f2933">0.1%</text>
<rect x="711" y="361" width="110" height="42" rx="4" fill="#f3f4f6"/>
<text x="142" y="430.0" text-anchor="end" fill="#1f2933">Equativ</text>
<rect x="151" y="405" width="110" height="42" rx="4" fill="#c5dbf4"/>
<text x="206.0" y="424.0" text-anchor="middle" font-weight="700" fill="#1f2933">$2.49</text>
<text x="206.0" y="439.0" text-anchor="middle" font-size="10.5" fill="#1f2933">4.4%</text>
<rect x="263" y="405" width="110" height="42" rx="4" fill="#f3f4f6"/>
<rect x="375" y="405" width="110" height="42" rx="4" fill="#f3f4f6"/>
<rect x="487" y="405" width="110" height="42" rx="4" fill="#f3f4f6"/>
<rect x="599" y="405" width="110" height="42" rx="4" fill="#f3f4f6"/>
<rect x="711" y="405" width="110" height="42" rx="4" fill="#f3f4f6"/>
<text x="142" y="474.0" text-anchor="end" fill="#1f2933">Televisa (OB)</text>
<rect x="151" y="449" width="110" height="42" rx="4" fill="#e8f1fb"/>
<text x="206.0" y="468.0" text-anchor="middle" font-weight="700" fill="#1f2933">$1.50</text>
<text x="206.0" y="483.0" text-anchor="middle" font-size="10.5" fill="#1f2933">4.1%</text>
<rect x="263" y="449" width="110" height="42" rx="4" fill="#e8f1fb"/>
<text x="318.0" y="468.0" text-anchor="middle" font-weight="700" fill="#1f2933">$1.78</text>
<text x="318.0" y="483.0" text-anchor="middle" font-size="10.5" fill="#1f2933">0.1%</text>
<rect x="375" y="449" width="110" height="42" rx="4" fill="#f3f4f6"/>
<rect x="487" y="449" width="110" height="42" rx="4" fill="#f3f4f6"/>
<rect x="599" y="449" width="110" height="42" rx="4" fill="#f3f4f6"/>
<rect x="711" y="449" width="110" height="42" rx="4" fill="#f3f4f6"/>
<text x="142" y="518.0" text-anchor="end" fill="#1f2933">Coocaa</text>
<rect x="151" y="493" width="110" height="42" rx="4" fill="#c5dbf4"/>
<text x="206.0" y="512.0" text-anchor="middle" font-weight="700" fill="#1f2933">$2.46</text>
<text x="206.0" y="527.0" text-anchor="middle" font-size="10.5" fill="#1f2933">0.5%</text>
<rect x="263" y="493" width="110" height="42" rx="4" fill="#9dc1ea"/>
<text x="318.0" y="512.0" text-anchor="middle" font-weight="700" fill="#1f2933">$3.78</text>
<text x="318.0" y="527.0" text-anchor="middle" font-size="10.5" fill="#1f2933">2.0%</text>
<rect x="375" y="493" width="110" height="42" rx="4" fill="#9dc1ea"/>
<text x="430.0" y="512.0" text-anchor="middle" font-weight="700" fill="#1f2933">$3.37</text>
<text x="430.0" y="527.0" text-anchor="middle" font-size="10.5" fill="#1f2933">0.7%</text>
<rect x="487" y="493" width="110" height="42" rx="4" fill="#2a6fb8"/>
<text x="542.0" y="512.0" text-anchor="middle" font-weight="700" fill="#ffffff">$6.38</text>
<text x="542.0" y="527.0" text-anchor="middle" font-size="10.5" fill="#ffffff">0.4%</text>
<rect x="599" y="493" width="110" height="42" rx="4" fill="#4386cf"/>
<text x="654.0" y="512.0" text-anchor="middle" font-weight="700" fill="#ffffff">$5.61</text>
<text x="654.0" y="527.0" text-anchor="middle" font-size="10.5" fill="#ffffff">0.3%</text>
<rect x="711" y="493" width="110" height="42" rx="4" fill="#173f68"/>
<text x="766.0" y="512.0" text-anchor="middle" font-weight="700" fill="#ffffff">$8.80</text>
<text x="766.0" y="527.0" text-anchor="middle" font-size="10.5" fill="#ffffff">0.2%</text>
<text x="142" y="562.0" text-anchor="end" fill="#1f2933">Vidaa APAC</text>
<rect x="151" y="537" width="110" height="42" rx="4" fill="#e8f1fb"/>
<text x="206.0" y="556.0" text-anchor="middle" font-weight="700" fill="#1f2933">$1.16</text>
<text x="206.0" y="571.0" text-anchor="middle" font-size="10.5" fill="#1f2933">2.1%</text>
<rect x="263" y="537" width="110" height="42" rx="4" fill="#9dc1ea"/>
<text x="318.0" y="556.0" text-anchor="middle" font-weight="700" fill="#1f2933">$3.31</text>
<text x="318.0" y="571.0" text-anchor="middle" font-size="10.5" fill="#1f2933">0.2%</text>
<rect x="375" y="537" width="110" height="42" rx="4" fill="#9dc1ea"/>
<text x="430.0" y="556.0" text-anchor="middle" font-weight="700" fill="#1f2933">$3.61</text>
<text x="430.0" y="571.0" text-anchor="middle" font-size="10.5" fill="#1f2933">0.1%</text>
<rect x="487" y="537" width="110" height="42" rx="4" fill="#9dc1ea"/>
<text x="542.0" y="556.0" text-anchor="middle" font-weight="700" fill="#1f2933">$3.76</text>
<text x="542.0" y="571.0" text-anchor="middle" font-size="10.5" fill="#1f2933">0.1%</text>
<rect x="599" y="537" width="110" height="42" rx="4" fill="#6fa3dd"/>
<text x="654.0" y="556.0" text-anchor="middle" font-weight="700" fill="#1f2933">$4.26</text>
<text x="654.0" y="571.0" text-anchor="middle" font-size="10.5" fill="#1f2933">0.1%</text>
<rect x="711" y="537" width="110" height="42" rx="4" fill="#f3f4f6"/>
<text x="142" y="606.0" text-anchor="end" fill="#1f2933">PML</text>
<rect x="151" y="581" width="110" height="42" rx="4" fill="#f3f4f6"/>
<rect x="263" y="581" width="110" height="42" rx="4" fill="#c5dbf4"/>
<text x="318.0" y="600.0" text-anchor="middle" font-weight="700" fill="#1f2933">$2.31</text>
<text x="318.0" y="615.0" text-anchor="middle" font-size="10.5" fill="#1f2933">1.1%</text>
<rect x="375" y="581" width="110" height="42" rx="4" fill="#f3f4f6"/>
<rect x="487" y="581" width="110" height="42" rx="4" fill="#c5dbf4"/>
<text x="542.0" y="600.0" text-anchor="middle" font-weight="700" fill="#1f2933">$2.52</text>
<text x="542.0" y="615.0" text-anchor="middle" font-size="10.5" fill="#1f2933">1.4%</text>
<rect x="599" y="581" width="110" height="42" rx="4" fill="#f3f4f6"/>
<rect x="711" y="581" width="110" height="42" rx="4" fill="#f3f4f6"/>
<text x="150" y="657" fill="#5f6b76">eCPM ponderado: $0.99</text>
<rect x="300" y="646" width="22" height="14" fill="#e8f1fb"/>
<rect x="322" y="646" width="22" height="14" fill="#c5dbf4"/>
<rect x="344" y="646" width="22" height="14" fill="#9dc1ea"/>
<rect x="366" y="646" width="22" height="14" fill="#6fa3dd"/>
<rect x="388" y="646" width="22" height="14" fill="#4386cf"/>
<rect x="410" y="646" width="22" height="14" fill="#2a6fb8"/>
<rect x="432" y="646" width="22" height="14" fill="#1f568f"/>
<rect x="454" y="646" width="22" height="14" fill="#173f68"/>
<text x="484" y="657" fill="#5f6b76">$8.80</text>
</svg>