<svg xmlns="http://www.w3.org/2000/svg" width="2134" height="336" viewBox="0 0 2134 336" font-family="Arial, sans-serif">
<rect width="2134" height="336" fill="white"/>
<rect x="10" y="10" width="694" height="26" fill="#efefef"/>
<rect x="10" y="10" width="694" height="26" fill="none" stroke="#b7b7b7" stroke-width="1"/>
<text x="357.0" y="27.333333333333332" font-size="13" text-anchor="middle" font-weight="bold">MX</text>
<rect x="10" y="36" width="158" height="26" fill="#f7f7f7"/>
<rect x="10" y="36" width="158" height="26" fill="none" stroke="#b7b7b7" stroke-width="1"/>
<text x="16" y="53.0" font-size="12" text-anchor="start" font-weight="bold">Columna</text>
<rect x="168" y="36" width="66" height="26" fill="#f7f7f7"/>
<rect x="168" y="36" width="66" height="26" fill="none" stroke="#b7b7b7" stroke-width="1"/>
<text x="174" y="53.0" font-size="12" text-anchor="start" font-weight="bold">Fill</text>
<rect x="234" y="36" width="470" height="26" fill="#f7f7f7"/>
<rect x="234" y="36" width="470" height="26" fill="none" stroke="#b7b7b7" stroke-width="1"/>
<text x="240" y="53.0" font-size="12" text-anchor="start" font-weight="bold">Top valores (% filas del país)</text>
<rect x="10" y="62" width="158" height="24" fill="none" stroke="#b7b7b7" stroke-width="1"/>
<text x="16" y="77.83333333333333" font-size="11.5" text-anchor="start">Publisher</text>
<rect x="168" y="62" width="66" height="24" fill="#d9ead3"/>
<rect x="168" y="62" width="66" height="24" fill="none" stroke="#b7b7b7" stroke-width="1"/>
<text x="228" y="77.83333333333333" font-size="11.5" text-anchor="end">100.00%</text>
<rect x="234" y="62" width="470" height="24" fill="none" stroke="#b7b7b7" stroke-width="1"/>
<text x="240" y="77.66666666666667" font-size="11" text-anchor="start">OTTera 14.4%, iion 13.3%, TCL Springserve 10.6%, TCL APAC 10.4%</text>
<rect x="10" y="86" width="158" height="24" fill="none" stroke="#b7b7b7" stroke-width="1"/>
<text x="16" y="101.83333333333333" font-size="11.5" text-anchor="start">App Name</text>
<rect x="168" y="86" width="66" height="24" fill="#fff2cc"/>
<rect x="168" y="86" width="66" height="24" fill="none" stroke="#b7b7b7" stroke-width="1"/>
<text x="228" y="101.83333333333333" font-size="11.5" text-anchor="end">83.18%</text>
<rect x="234" y="86" width="470" height="24" fill="none" stroke="#b7b7b7" stroke-width="1"/>
<text x="240" y="101.66666666666667" font-size="11" text-anchor="start">MovieArk 24.4%, Live TV 19.4%, N/A 16.8%, BrowseHere 5.1%</text>
<rect x="10" y="110" width="158" height="24" fill="none" stroke="#b7b7b7" stroke-width="1"/>
<text x="16" y="125.83333333333333" font-size="11.5" text-anchor="start">contentTitle</text>
<rect x="168" y="110" width="66" height="24" fill="#fff2cc"/>
<rect x="168" y="110" width="66" height="24" fill="none" stroke="#b7b7b7" stroke-width="1"/>
<text x="228" y="125.83333333333333" font-size="11.5" text-anchor="end">83.03%</text>
<rect x="234" y="110" width="470" height="24" fill="none" stroke="#b7b7b7" stroke-width="1"/>
<text x="240" y="125.66666666666667" font-size="11" text-anchor="start">N/A 17.0%, las estrellas 0.5%, canal 5 0.4%, golden edge 0.4%</text>
<rect x="10" y="134" width="158" height="24" fill="none" stroke="#b7b7b7" stroke-width="1"/>
<text x="16" y="149.83333333333334" font-size="11.5" text-anchor="start">contentGenre</text>
<rect x="168" y="134" width="66" height="24" fill="#d9ead3"/>
<rect x="168" y="134" width="66" height="24" fill="none" stroke="#b7b7b7" stroke-width="1"/>
<text x="228" y="149.83333333333334" font-size="11.5" text-anchor="end">99.07%</text>
<rect x="234" y="134" width="470" height="24" fill="none" stroke="#b7b7b7" stroke-width="1"/>
<text x="240" y="149.66666666666666" font-size="11" text-anchor="start">drama 11.2%, documentary 4.0%, other 3.9%, comedy 3.8%</text>
<rect x="10" y="158" width="158" height="24" fill="none" stroke="#b7b7b7" stroke-width="1"/>
<text x="16" y="173.83333333333334" font-size="11.5" text-anchor="start">contentSeries</text>
<rect x="168" y="158" width="66" height="24" fill="#f4cccc"/>
<rect x="168" y="158" width="66" height="24" fill="none" stroke="#b7b7b7" stroke-width="1"/>
<text x="228" y="173.83333333333334" font-size="11.5" text-anchor="end">6.83%</text>
<rect x="234" y="158" width="470" height="24" fill="none" stroke="#b7b7b7" stroke-width="1"/>
<text x="240" y="173.66666666666666" font-size="11" text-anchor="start">N/A 91.8%, md5-vacío 1.4%, VOD 0.5%, OTT Studios Entertainment… 0.4%</text>
<rect x="10" y="182" width="158" height="24" fill="none" stroke="#b7b7b7" stroke-width="1"/>
<text x="16" y="197.83333333333334" font-size="11.5" text-anchor="start">contentLanguage</text>
<rect x="168" y="182" width="66" height="24" fill="#fff2cc"/>
<rect x="168" y="182" width="66" height="24" fill="none" stroke="#b7b7b7" stroke-width="1"/>
<text x="228" y="197.83333333333334" font-size="11.5" text-anchor="end">76.42%</text>
<rect x="234" y="182" width="470" height="24" fill="none" stroke="#b7b7b7" stroke-width="1"/>
<text x="240" y="197.66666666666666" font-size="11" text-anchor="start">es 37.2%, en 34.3%, N/A 23.3%, spa 0.8%</text>
<rect x="10" y="206" width="158" height="24" fill="none" stroke="#b7b7b7" stroke-width="1"/>
<text x="16" y="221.83333333333334" font-size="11.5" text-anchor="start">contentCategory</text>
<rect x="168" y="206" width="66" height="24" fill="#fce5cd"/>
<rect x="168" y="206" width="66" height="24" fill="none" stroke="#b7b7b7" stroke-width="1"/>
<text x="228" y="221.83333333333334" font-size="11.5" text-anchor="end">25.29%</text>
<rect x="234" y="206" width="470" height="24" fill="none" stroke="#b7b7b7" stroke-width="1"/>
<text x="240" y="221.66666666666666" font-size="11" text-anchor="start">[-7] 74.7%, [IAB12] 5.5%, [IAB1] 4.1%, [IAB1-5] 4.0%</text>
<rect x="10" y="230" width="158" height="24" fill="none" stroke="#b7b7b7" stroke-width="1"/>
<text x="16" y="245.83333333333334" font-size="11.5" text-anchor="start">contentRating</text>
<rect x="168" y="230" width="66" height="24" fill="#fff2cc"/>
<rect x="168" y="230" width="66" height="24" fill="none" stroke="#b7b7b7" stroke-width="1"/>
<text x="228" y="245.83333333333334" font-size="11.5" text-anchor="end">83.95%</text>
<rect x="234" y="230" width="470" height="24" fill="none" stroke="#b7b7b7" stroke-width="1"/>
<text x="240" y="245.66666666666666" font-size="11" text-anchor="start">N/A 16.0%, tv-14 13.9%, r 9.8%, tv-pg 8.1%</text>
<rect x="10" y="254" width="158" height="24" fill="none" stroke="#b7b7b7" stroke-width="1"/>
<text x="16" y="269.8333333333333" font-size="11.5" text-anchor="start">contentLength</text>
<rect x="168" y="254" width="66" height="24" fill="#f4cccc"/>
<rect x="168" y="254" width="66" height="24" fill="none" stroke="#b7b7b7" stroke-width="1"/>
<text x="228" y="269.8333333333333" font-size="11.5" text-anchor="end">16.65%</text>
<rect x="234" y="254" width="470" height="24" fill="none" stroke="#b7b7b7" stroke-width="1"/>
<text x="240" y="269.6666666666667" font-size="11" text-anchor="start">N/A 83.3%, 6 6.3%, 5 3.7%, 8 3.1%</text>
<rect x="10" y="278" width="158" height="24" fill="none" stroke="#b7b7b7" stroke-width="1"/>
<text x="16" y="293.8333333333333" font-size="11.5" text-anchor="start">contentIsLiveStream</text>
<rect x="168" y="278" width="66" height="24" fill="#fce5cd"/>
<rect x="168" y="278" width="66" height="24" fill="none" stroke="#b7b7b7" stroke-width="1"/>
<text x="228" y="293.8333333333333" font-size="11.5" text-anchor="end">26.41%</text>
<rect x="234" y="278" width="470" height="24" fill="none" stroke="#b7b7b7" stroke-width="1"/>
<text x="240" y="293.6666666666667" font-size="11" text-anchor="start">Unknown 38.0%, N/A 35.5%, 1 26.4%</text>
<rect x="10" y="302" width="158" height="24" fill="none" stroke="#b7b7b7" stroke-width="1"/>
<text x="16" y="317.8333333333333" font-size="11.5" text-anchor="start">contentIsTitlePresent</text>
<rect x="168" y="302" width="66" height="24" fill="#d9ead3"/>
<rect x="168" y="302" width="66" height="24" fill="none" stroke="#b7b7b7" stroke-width="1"/>
<text x="228" y="317.8333333333333" font-size="11.5" text-anchor="end">100.00%</text>
<rect x="234" y="302" width="470" height="24" fill="none" stroke="#b7b7b7" stroke-width="1"/>
<text x="240" y="317.6666666666667" font-size="11" text-anchor="start">true 83.0%, false 17.0%</text>
<rect x="720" y="10" width="694" height="26" fill="#efefef"/>
<rect x="720" y="10" width="694" height="26" fill="none" stroke="#b7b7b7" stroke-width="1"/>
<text x="1067.0" y="27.333333333333332" font-size="13" text-anchor="middle" font-weight="bold">CO</text>
<rect x="720" y="36" width="158" height="26" fill="#f7f7f7"/>
<rect x="720" y="36" width="158" height="26" fill="none" stroke="#b7b7b7" stroke-width="1"/>
<text x="726" y="53.0" font-size="12" text-anchor="start" font-weight="bold">Columna</text>
<rect x="878" y="36" width="66" height="26" fill="#f7f7f7"/>
<rect x="878" y="36" width="66" height="26" fill="none" stroke="#b7b7b7" stroke-width="1"/>
<text x="884" y="53.0" font-size="12" text-anchor="start" font-weight="bold">Fill</text>
<rect x="944" y="36" width="470" height="26" fill="#f7f7f7"/>
<rect x="944" y="36" width="470" height="26" fill="none" stroke="#b7b7b7" stroke-width="1"/>
<text x="950" y="53.0" font-size="12" text-anchor="start" font-weight="bold">Top valores (% filas del país)</text>
<rect x="720" y="62" width="158" height="24" fill="none" stroke="#b7b7b7" stroke-width="1"/>
<text x="726" y="77.83333333333333" font-size="11.5" text-anchor="start">Publisher</text>
<rect x="878" y="62" width="66" height="24" fill="#d9ead3"/>
<rect x="878" y="62" width="66" height="24" fill="none" stroke="#b7b7b7" stroke-width="1"/>
<text x="938" y="77.83333333333333" font-size="11.5" text-anchor="end">100.00%</text>
<rect x="944" y="62" width="470" height="24" fill="none" stroke="#b7b7b7" stroke-width="1"/>
<text x="950" y="77.66666666666667" font-size="11" text-anchor="start">iion 29.1%, OTTera 23.1%, Select Plus 10.8%, TCL APAC 10.3%</text>
<rect x="720" y="86" width="158" height="24" fill="none" stroke="#b7b7b7" stroke-width="1"/>
<text x="726" y="101.83333333333333" font-size="11.5" text-anchor="start">App Name</text>
<rect x="878" y="86" width="66" height="24" fill="#d9ead3"/>
<rect x="878" y="86" width="66" height="24" fill="none" stroke="#b7b7b7" stroke-width="1"/>
<text x="938" y="101.83333333333333" font-size="11.5" text-anchor="end">96.51%</text>
<rect x="944" y="86" width="470" height="24" fill="none" stroke="#b7b7b7" stroke-width="1"/>
<text x="950" y="101.66666666666667" font-size="11" text-anchor="start">MovieArk 35.1%, Live TV 28.1%, TCL CHANNEL 12.7%, BrowseHere 7.8%</text>
<rect x="720" y="110" width="158" height="24" fill="none" stroke="#b7b7b7" stroke-width="1"/>
<text x="726" y="125.83333333333333" font-size="11.5" text-anchor="start">contentTitle</text>
<rect x="878" y="110" width="66" height="24" fill="#d9ead3"/>
<rect x="878" y="110" width="66" height="24" fill="none" stroke="#b7b7b7" stroke-width="1"/>
<text x="938" y="125.83333333333333" font-size="11.5" text-anchor="end">94.88%</text>
<rect x="944" y="110" width="470" height="24" fill="none" stroke="#b7b7b7" stroke-width="1"/>
<text x="950" y="125.66666666666667" font-size="11" text-anchor="start">N/A 5.1%, {{content_title}} 0.2%, nail in the coffin: the f… 0.2%, haus of …</text>
<rect x="720" y="134" width="158" height="24" fill="none" stroke="#b7b7b7" stroke-width="1"/>
<text x="726" y="149.83333333333334" font-size="11.5" text-anchor="start">contentGenre</text>
<rect x="878" y="134" width="66" height="24" fill="#d9ead3"/>
<rect x="878" y="134" width="66" height="24" fill="none" stroke="#b7b7b7" stroke-width="1"/>
<text x="938" y="149.83333333333334" font-size="11.5" text-anchor="end">98.45%</text>
<rect x="944" y="134" width="470" height="24" fill="none" stroke="#b7b7b7" stroke-width="1"/>
<text x="950" y="149.66666666666666" font-size="11" text-anchor="start">drama 9.9%, other 7.2%, horror 4.7%, documentary 4.6%</text>
<rect x="720" y="158" width="158" height="24" fill="none" stroke="#b7b7b7" stroke-width="1"/>
<text x="726" y="173.83333333333334" font-size="11.5" text-anchor="start">contentSeries</text>
<rect x="878" y="158" width="66" height="24" fill="#f4cccc"/>
<rect x="878" y="158" width="66" height="24" fill="none" stroke="#b7b7b7" stroke-width="1"/>
<text x="938" y="173.83333333333334" font-size="11.5" text-anchor="end">5.86%</text>
<rect x="944" y="158" width="470" height="24" fill="none" stroke="#b7b7b7" stroke-width="1"/>
<text x="950" y="173.66666666666666" font-size="11" text-anchor="start">N/A 94.1%, VOD 0.9%, OTT Studios Entertainment… 0.3%, No Series 0.1%</text>
<rect x="720" y="182" width="158" height="24" fill="none" stroke="#b7b7b7" stroke-width="1"/>
<text x="726" y="197.83333333333334" font-size="11.5" text-anchor="start">contentLanguage</text>
<rect x="878" y="182" width="66" height="24" fill="#fff2cc"/>
<rect x="878" y="182" width="66" height="24" fill="none" stroke="#b7b7b7" stroke-width="1"/>
<text x="938" y="197.83333333333334" font-size="11.5" text-anchor="end">62.38%</text>
<rect x="944" y="182" width="470" height="24" fill="none" stroke="#b7b7b7" stroke-width="1"/>
<text x="950" y="197.66666666666666" font-size="11" text-anchor="start">en 41.8%, N/A 37.6%, es 15.9%, c 1.8%</text>
<rect x="720" y="206" width="158" height="24" fill="none" stroke="#b7b7b7" stroke-width="1"/>
<text x="726" y="221.83333333333334" font-size="11.5" text-anchor="start">contentCategory</text>
<rect x="878" y="206" width="66" height="24" fill="#fce5cd"/>
<rect x="878" y="206" width="66" height="24" fill="none" stroke="#b7b7b7" stroke-width="1"/>
<text x="938" y="221.83333333333334" font-size="11.5" text-anchor="end">24.00%</text>
<rect x="944" y="206" width="470" height="24" fill="none" stroke="#b7b7b7" stroke-width="1"/>
<text x="950" y="221.66666666666666" font-size="11" text-anchor="start">[-7] 76.0%, [IAB1] 6.8%, [IAB1-22] 3.4%, [IAB1, IAB1-5] 2.3%</text>
<rect x="720" y="230" width="158" height="24" fill="none" stroke="#b7b7b7" stroke-width="1"/>
<text x="726" y="245.83333333333334" font-size="11.5" text-anchor="start">contentRating</text>
<rect x="878" y="230" width="66" height="24" fill="#fff2cc"/>
<rect x="878" y="230" width="66" height="24" fill="none" stroke="#b7b7b7" stroke-width="1"/>
<text x="938" y="245.83333333333334" font-size="11.5" text-anchor="end">80.70%</text>
<rect x="944" y="230" width="470" height="24" fill="none" stroke="#b7b7b7" stroke-width="1"/>
<text x="950" y="245.66666666666666" font-size="11" text-anchor="start">N/A 19.3%, r 11.8%, tv-14 9.8%, tv-pg 8.8%</text>
<rect x="720" y="254" width="158" height="24" fill="none" stroke="#b7b7b7" stroke-width="1"/>
<text x="726" y="269.8333333333333" font-size="11.5" text-anchor="start">contentLength</text>
<rect x="878" y="254" width="66" height="24" fill="#f4cccc"/>
<rect x="878" y="254" width="66" height="24" fill="none" stroke="#b7b7b7" stroke-width="1"/>
<text x="938" y="269.8333333333333" font-size="11.5" text-anchor="end">9.66%</text>
<rect x="944" y="254" width="470" height="24" fill="none" stroke="#b7b7b7" stroke-width="1"/>
<text x="950" y="269.6666666666667" font-size="11" text-anchor="start">N/A 90.3%, 4 3.2%, 5 2.8%, 6 2.6%</text>
<rect x="720" y="278" width="158" height="24" fill="none" stroke="#b7b7b7" stroke-width="1"/>
<text x="726" y="293.8333333333333" font-size="11.5" text-anchor="start">contentIsLiveStream</text>
<rect x="878" y="278" width="66" height="24" fill="#fce5cd"/>
<rect x="878" y="278" width="66" height="24" fill="none" stroke="#b7b7b7" stroke-width="1"/>
<text x="938" y="293.8333333333333" font-size="11.5" text-anchor="end">27.12%</text>
<rect x="944" y="278" width="470" height="24" fill="none" stroke="#b7b7b7" stroke-width="1"/>
<text x="950" y="293.6666666666667" font-size="11" text-anchor="start">Unknown 43.4%, N/A 29.5%, 1 27.1%</text>
<rect x="720" y="302" width="158" height="24" fill="none" stroke="#b7b7b7" stroke-width="1"/>
<text x="726" y="317.8333333333333" font-size="11.5" text-anchor="start">contentIsTitlePresent</text>
<rect x="878" y="302" width="66" height="24" fill="#d9ead3"/>
<rect x="878" y="302" width="66" height="24" fill="none" stroke="#b7b7b7" stroke-width="1"/>
<text x="938" y="317.8333333333333" font-size="11.5" text-anchor="end">100.00%</text>
<rect x="944" y="302" width="470" height="24" fill="none" stroke="#b7b7b7" stroke-width="1"/>
<text x="950" y="317.6666666666667" font-size="11" text-anchor="start">true 94.9%, false 5.1%</text>
<rect x="1430" y="10" width="694" height="26" fill="#efefef"/>
<rect x="1430" y="10" width="694" height="26" fill="none" stroke="#b7b7b7" stroke-width="1"/>
<text x="1777.0" y="27.333333333333332" font-size="13" text-anchor="middle" font-weight="bold">CL</text>
<rect x="1430" y="36" width="158" height="26" fill="#f7f7f7"/>
<rect x="1430" y="36" width="158" height="26" fill="none" stroke="#b7b7b7" stroke-width="1"/>
<text x="1436" y="53.0" font-size="12" text-anchor="start" font-weight="bold">Columna</text>
<rect x="1588" y="36" width="66" height="26" fill="#f7f7f7"/>
<rect x="1588" y="36" width="66" height="26" fill="none" stroke="#b7b7b7" stroke-width="1"/>
<text x="1594" y="53.0" font-size="12" text-anchor="start" font-weight="bold">Fill</text>
<rect x="1654" y="36" width="470" height="26" fill="#f7f7f7"/>
<rect x="1654" y="36" width="470" height="26" fill="none" stroke="#b7b7b7" stroke-width="1"/>
<text x="1660" y="53.0" font-size="12" text-anchor="start" font-weight="bold">Top valores (% filas del país)</text>
<rect x="1430" y="62" width="158" height="24" fill="none" stroke="#b7b7b7" stroke-width="1"/>
<text x="1436" y="77.83333333333333" font-size="11.5" text-anchor="start">Publisher</text>
<rect x="1588" y="62" width="66" height="24" fill="#d9ead3"/>
<rect x="1588" y="62" width="66" height="24" fill="none" stroke="#b7b7b7" stroke-width="1"/>
<text x="1648" y="77.83333333333333" font-size="11.5" text-anchor="end">100.00%</text>
<rect x="1654" y="62" width="470" height="24" fill="none" stroke="#b7b7b7" stroke-width="1"/>
<text x="1660" y="77.66666666666667" font-size="11" text-anchor="start">iion 21.8%, TCL Springserve 18.3%, OTTera 18.1%, TCL APAC 16.2%</text>
<rect x="1430" y="86" width="158" height="24" fill="none" stroke="#b7b7b7" stroke-width="1"/>
<text x="1436" y="101.83333333333333" font-size="11.5" text-anchor="start">App Name</text>
<rect x="1588" y="86" width="66" height="24" fill="#d9ead3"/>
<rect x="1588" y="86" width="66" height="24" fill="none" stroke="#b7b7b7" stroke-width="1"/>
<text x="1648" y="101.83333333333333" font-size="11.5" text-anchor="end">92.53%</text>
<rect x="1654" y="86" width="470" height="24" fill="none" stroke="#b7b7b7" stroke-width="1"/>
<text x="1660" y="101.66666666666667" font-size="11" text-anchor="start">MovieArk 42.5%, Live TV 29.6%, N/A 7.5%, TCL CHANNEL 6.9%</text>
<rect x="1430" y="110" width="158" height="24" fill="none" stroke="#b7b7b7" stroke-width="1"/>
<text x="1436" y="125.83333333333333" font-size="11.5" text-anchor="start">contentTitle</text>
<rect x="1588" y="110" width="66" height="24" fill="#d9ead3"/>
<rect x="1588" y="110" width="66" height="24" fill="none" stroke="#b7b7b7" stroke-width="1"/>
<text x="1648" y="125.83333333333333" font-size="11.5" text-anchor="end">96.70%</text>
<rect x="1654" y="110" width="470" height="24" fill="none" stroke="#b7b7b7" stroke-width="1"/>
<text x="1660" y="125.66666666666667" font-size="11" text-anchor="start">N/A 3.3%, catalunya �ber alles! 0.2%, the baddest bad boy 0.1%, haus of hor…</text>
<rect x="1430" y="134" width="158" height="24" fill="none" stroke="#b7b7b7" stroke-width="1"/>
<text x="1436" y="149.83333333333334" font-size="11.5" text-anchor="start">contentGenre</text>
<rect x="1588" y="134" width="66" height="24" fill="#d9ead3"/>
<rect x="1588" y="134" width="66" height="24" fill="none" stroke="#b7b7b7" stroke-width="1"/>
<text x="1648" y="149.83333333333334" font-size="11.5" text-anchor="end">99.47%</text>
<rect x="1654" y="134" width="470" height="24" fill="none" stroke="#b7b7b7" stroke-width="1"/>
<text x="1660" y="149.66666666666666" font-size="11" text-anchor="start">drama 8.5%, other 6.4%, documentary 6.1%, horror 3.9%</text>
<rect x="1430" y="158" width="158" height="24" fill="none" stroke="#b7b7b7" stroke-width="1"/>
<text x="1436" y="173.83333333333334" font-size="11.5" text-anchor="start">contentSeries</text>
<rect x="1588" y="158" width="66" height="24" fill="#f4cccc"/>
<rect x="1588" y="158" width="66" height="24" fill="none" stroke="#b7b7b7" stroke-width="1"/>
<text x="1648" y="173.83333333333334" font-size="11.5" text-anchor="end">4.50%</text>
<rect x="1654" y="158" width="470" height="24" fill="none" stroke="#b7b7b7" stroke-width="1"/>
<text x="1660" y="173.66666666666666" font-size="11" text-anchor="start">N/A 95.5%, VOD 0.9%, OTT Studios Entertainment… 0.2%, {{CONTENT_SERIES}} 0.…</text>
<rect x="1430" y="182" width="158" height="24" fill="none" stroke="#b7b7b7" stroke-width="1"/>
<text x="1436" y="197.83333333333334" font-size="11.5" text-anchor="start">contentLanguage</text>
<rect x="1588" y="182" width="66" height="24" fill="#fff2cc"/>
<rect x="1588" y="182" width="66" height="24" fill="none" stroke="#b7b7b7" stroke-width="1"/>
<text x="1648" y="197.83333333333334" font-size="11.5" text-anchor="end">74.39%</text>
<rect x="1654" y="182" width="470" height="24" fill="none" stroke="#b7b7b7" stroke-width="1"/>
<text x="1660" y="197.66666666666666" font-size="11" text-anchor="start">en 52.0%, N/A 25.6%, es 18.5%, pt 1.3%</text>
<rect x="1430" y="206" width="158" height="24" fill="none" stroke="#b7b7b7" stroke-width="1"/>
<text x="1436" y="221.83333333333334" font-size="11.5" text-anchor="start">contentCategory</text>
<rect x="1588" y="206" width="66" height="24" fill="#f4cccc"/>
<rect x="1588" y="206" width="66" height="24" fill="none" stroke="#b7b7b7" stroke-width="1"/>
<text x="1648" y="221.83333333333334" font-size="11.5" text-anchor="end">14.88%</text>
<rect x="1654" y="206" width="470" height="24" fill="none" stroke="#b7b7b7" stroke-width="1"/>
<text x="1660" y="221.66666666666666" font-size="11" text-anchor="start">[-7] 85.1%, [IAB1] 6.3%, [IAB1-22] 1.1%, [IAB1, IAB1-5] 0.8%</text>
<rect x="1430" y="230" width="158" height="24" fill="none" stroke="#b7b7b7" stroke-width="1"/>
<text x="1436" y="245.83333333333334" font-size="11.5" text-anchor="start">contentRating</text>
<rect x="1588" y="230" width="66" height="24" fill="#fff2cc"/>
<rect x="1588" y="230" width="66" height="24" fill="none" stroke="#b7b7b7" stroke-width="1"/>
<text x="1648" y="245.83333333333334" font-size="11.5" text-anchor="end">83.00%</text>
<rect x="1654" y="230" width="470" height="24" fill="none" stroke="#b7b7b7" stroke-width="1"/>
<text x="1660" y="245.66666666666666" font-size="11" text-anchor="start">N/A 17.0%, tv-ma 13.2%, r 11.5%, tv-14 10.5%</text>
<rect x="1430" y="254" width="158" height="24" fill="none" stroke="#b7b7b7" stroke-width="1"/>
<text x="1436" y="269.8333333333333" font-size="11.5" text-anchor="start">contentLength</text>
<rect x="1588" y="254" width="66" height="24" fill="#f4cccc"/>
<rect x="1588" y="254" width="66" height="24" fill="none" stroke="#b7b7b7" stroke-width="1"/>
<text x="1648" y="269.8333333333333" font-size="11.5" text-anchor="end">6.78%</text>
<rect x="1654" y="254" width="470" height="24" fill="none" stroke="#b7b7b7" stroke-width="1"/>
<text x="1660" y="269.6666666666667" font-size="11" text-anchor="start">N/A 93.2%, 4 2.5%, 5 1.8%, 6 1.7%</text>
<rect x="1430" y="278" width="158" height="24" fill="none" stroke="#b7b7b7" stroke-width="1"/>
<text x="1436" y="293.8333333333333" font-size="11.5" text-anchor="start">contentIsLiveStream</text>
<rect x="1588" y="278" width="66" height="24" fill="#f4cccc"/>
<rect x="1588" y="278" width="66" height="24" fill="none" stroke="#b7b7b7" stroke-width="1"/>
<text x="1648" y="293.8333333333333" font-size="11.5" text-anchor="end">16.88%</text>
<rect x="1654" y="278" width="470" height="24" fill="none" stroke="#b7b7b7" stroke-width="1"/>
<text x="1660" y="293.6666666666667" font-size="11" text-anchor="start">N/A 42.5%, Unknown 40.6%, 1 16.9%</text>
<rect x="1430" y="302" width="158" height="24" fill="none" stroke="#b7b7b7" stroke-width="1"/>
<text x="1436" y="317.8333333333333" font-size="11.5" text-anchor="start">contentIsTitlePresent</text>
<rect x="1588" y="302" width="66" height="24" fill="#d9ead3"/>
<rect x="1588" y="302" width="66" height="24" fill="none" stroke="#b7b7b7" stroke-width="1"/>
<text x="1648" y="317.8333333333333" font-size="11.5" text-anchor="end">100.00%</text>
<rect x="1654" y="302" width="470" height="24" fill="none" stroke="#b7b7b7" stroke-width="1"/>
<text x="1660" y="317.6666666666667" font-size="11" text-anchor="start">true 96.7%, false 3.3%</text>
</svg>