<svg xmlns="http://www.w3.org/2000/svg" width="1056" height="872" viewBox="0 0 1056 872" font-family="system-ui,-apple-system,Segoe UI,sans-serif">
<rect width="1056" height="872" fill="#fcfcfb"/>
<text x="0" y="22" font-size="17" font-weight="700" fill="#0b0b0b">¿La completitud de la columna se relaciona con el precio?</text>
<text x="0" y="42" font-size="12" fill="#52514e">x = % de filas del grupo donde la columna trae dato útil; y = eCPM ponderado de esas filas (azul) y de las vacías (naranja). Recta OLS y R² por serie.</text>
<g transform="translate(0,56)"><rect x="0" y="0" width="520" height="400" fill="#fcfcfb"/>
<text x="62" y="22" font-size="15" font-weight="600" fill="#0b0b0b">Total consolidado</text>
<line x1="62.0" y1="82" x2="62.0" y2="346" stroke="#e1e0d9" stroke-width="1"/>
<text x="62.0" y="362" font-size="11" text-anchor="middle" fill="#898781">0</text>
<line x1="145.5" y1="82" x2="145.5" y2="346" stroke="#e1e0d9" stroke-width="1"/>
<text x="145.5" y="362" font-size="11" text-anchor="middle" fill="#898781">20</text>
<line x1="228.9" y1="82" x2="228.9" y2="346" stroke="#e1e0d9" stroke-width="1"/>
<text x="228.9" y="362" font-size="11" text-anchor="middle" fill="#898781">40</text>
<line x1="312.4" y1="82" x2="312.4" y2="346" stroke="#e1e0d9" stroke-width="1"/>
<text x="312.4" y="362" font-size="11" text-anchor="middle" fill="#898781">60</text>
<line x1="395.9" y1="82" x2="395.9" y2="346" stroke="#e1e0d9" stroke-width="1"/>
<text x="395.9" y="362" font-size="11" text-anchor="middle" fill="#898781">80</text>
<line x1="479.3" y1="82" x2="479.3" y2="346" stroke="#e1e0d9" stroke-width="1"/>
<text x="479.3" y="362" font-size="11" text-anchor="middle" fill="#898781">100</text>
<line x1="62" y1="346.0" x2="500" y2="346.0" stroke="#e1e0d9" stroke-width="1"/>
<text x="56" y="350.0" font-size="11" text-anchor="end" fill="#898781">0</text>
<line x1="62" y1="295.1" x2="500" y2="295.1" stroke="#e1e0d9" stroke-width="1"/>
<text x="56" y="299.1" font-size="11" text-anchor="end" fill="#898781">1</text>
<line x1="62" y1="244.1" x2="500" y2="244.1" stroke="#e1e0d9" stroke-width="1"/>
<text x="56" y="248.1" font-size="11" text-anchor="end" fill="#898781">2</text>
<line x1="62" y1="193.2" x2="500" y2="193.2" stroke="#e1e0d9" stroke-width="1"/>
<text x="56" y="197.2" font-size="11" text-anchor="end" fill="#898781">3</text>
<line x1="62" y1="142.3" x2="500" y2="142.3" stroke="#e1e0d9" stroke-width="1"/>
<text x="56" y="146.3" font-size="11" text-anchor="end" fill="#898781">4</text>
<line x1="62" y1="91.3" x2="500" y2="91.3" stroke="#e1e0d9" stroke-width="1"/>
<text x="56" y="95.3" font-size="11" text-anchor="end" fill="#898781">5</text>
<line x1="62" y1="346" x2="500" y2="346" stroke="#c3c2b7" stroke-width="1"/>
<line x1="62" y1="82" x2="62" y2="346" stroke="#c3c2b7" stroke-width="1"/>
<text x="281.0" y="386" font-size="11.5" text-anchor="middle" fill="#52514e">% de filas llenas de la columna</text>
<text transform="translate(16,214.0) rotate(-90)" font-size="11.5" text-anchor="middle" fill="#52514e">eCPM ponderado ($)</text>
<clipPath id="clip0_0_5480"><rect x="62" y="82" width="438" height="264"/></clipPath>
<line clip-path="url(#clip0_0_5480)" x1="62.0" y1="137.4" x2="500.0" y2="136.8" stroke="#2a78d6" stroke-width="2" stroke-opacity="0.55"/>
<line clip-path="url(#clip0_0_5480)" x1="62.0" y1="139.8" x2="500.0" y2="161.2" stroke="#eb6834" stroke-width="2" stroke-opacity="0.55"/>
<circle cx="453.1" cy="133.0" r="5" fill="#2a78d6" stroke="#fcfcfb" stroke-width="2"/>
<text x="460.1" y="127.0" font-size="10" fill="#52514e">App Name</text>
<circle cx="447.7" cy="144.5" r="5" fill="#2a78d6" stroke="#fcfcfb" stroke-width="2"/>
<text x="454.7" y="138.5" font-size="10" fill="#52514e">Genre</text>
<circle cx="450.6" cy="138.8" r="5" fill="#2a78d6" stroke="#fcfcfb" stroke-width="2"/>
<text x="457.6" y="132.8" font-size="10" fill="#52514e">Title</text>
<circle cx="374.6" cy="130.1" r="5" fill="#2a78d6" stroke="#fcfcfb" stroke-width="2"/>
<text x="381.6" y="124.1" font-size="10" fill="#52514e">Rating</text>
<circle cx="338.4" cy="139.1" r="5" fill="#2a78d6" stroke="#fcfcfb" stroke-width="2"/>
<text x="345.4" y="133.1" font-size="10" fill="#52514e">Language</text>
<circle cx="182.6" cy="142.1" r="5" fill="#2a78d6" stroke="#fcfcfb" stroke-width="2"/>
<text x="189.6" y="136.1" font-size="10" fill="#52514e">LiveStream</text>
<circle cx="153.2" cy="127.0" r="5" fill="#2a78d6" stroke="#fcfcfb" stroke-width="2"/>
<text x="160.2" y="121.0" font-size="10" fill="#52514e">Category</text>
<circle cx="111.6" cy="116.4" r="5" fill="#2a78d6" stroke="#fcfcfb" stroke-width="2"/>
<text x="118.6" y="110.4" font-size="10" fill="#52514e">Length</text>
<circle cx="89.1" cy="162.4" r="5" fill="#2a78d6" stroke="#fcfcfb" stroke-width="2"/>
<text x="96.1" y="156.4" font-size="10" fill="#52514e">Series</text>
<circle cx="453.1" cy="209.2" r="5" fill="#eb6834" stroke="#fcfcfb" stroke-width="2"/>
<circle cx="447.7" cy="121.5" r="5" fill="#eb6834" stroke="#fcfcfb" stroke-width="2"/>
<circle cx="450.6" cy="143.2" r="5" fill="#eb6834" stroke="#fcfcfb" stroke-width="2"/>
<circle cx="374.6" cy="168.3" r="5" fill="#eb6834" stroke="#fcfcfb" stroke-width="2"/>
<circle cx="338.4" cy="142.8" r="5" fill="#eb6834" stroke="#fcfcfb" stroke-width="2"/>
<circle cx="182.6" cy="138.6" r="5" fill="#eb6834" stroke="#fcfcfb" stroke-width="2"/>
<circle cx="153.2" cy="146.5" r="5" fill="#eb6834" stroke="#fcfcfb" stroke-width="2"/>
<circle cx="111.6" cy="150.0" r="5" fill="#eb6834" stroke="#fcfcfb" stroke-width="2"/>
<circle cx="89.1" cy="138.5" r="5" fill="#eb6834" stroke="#fcfcfb" stroke-width="2"/>
<circle cx="66" cy="39" r="4" fill="#2a78d6"/>
<text x="74" y="43" font-size="11" fill="#0b0b0b">eCPM filas llenas: R² = 0.00, pendiente 0.000</text>
<circle cx="66" cy="54" r="4" fill="#eb6834"/>
<text x="74" y="58" font-size="11" fill="#0b0b0b">eCPM filas vacías: R² = 0.09, pendiente -0.004</text></g>
<g transform="translate(536,56)"><rect x="0" y="0" width="520" height="400" fill="#fcfcfb"/>
<text x="62" y="22" font-size="15" font-weight="600" fill="#0b0b0b">México</text>
<line x1="62.0" y1="82" x2="62.0" y2="346" stroke="#e1e0d9" stroke-width="1"/>
<text x="62.0" y="362" font-size="11" text-anchor="middle" fill="#898781">0</text>
<line x1="147.7" y1="82" x2="147.7" y2="346" stroke="#e1e0d9" stroke-width="1"/>
<text x="147.7" y="362" font-size="11" text-anchor="middle" fill="#898781">20</text>
<line x1="233.5" y1="82" x2="233.5" y2="346" stroke="#e1e0d9" stroke-width="1"/>
<text x="233.5" y="362" font-size="11" text-anchor="middle" fill="#898781">40</text>
<line x1="319.2" y1="82" x2="319.2" y2="346" stroke="#e1e0d9" stroke-width="1"/>
<text x="319.2" y="362" font-size="11" text-anchor="middle" fill="#898781">60</text>
<line x1="404.9" y1="82" x2="404.9" y2="346" stroke="#e1e0d9" stroke-width="1"/>
<text x="404.9" y="362" font-size="11" text-anchor="middle" fill="#898781">80</text>
<line x1="490.7" y1="82" x2="490.7" y2="346" stroke="#e1e0d9" stroke-width="1"/>
<text x="490.7" y="362" font-size="11" text-anchor="middle" fill="#898781">100</text>
<line x1="62" y1="346.0" x2="500" y2="346.0" stroke="#e1e0d9" stroke-width="1"/>
<text x="56" y="350.0" font-size="11" text-anchor="end" fill="#898781">0</text>
<line x1="62" y1="297.0" x2="500" y2="297.0" stroke="#e1e0d9" stroke-width="1"/>
<text x="56" y="301.0" font-size="11" text-anchor="end" fill="#898781">1</text>
<line x1="62" y1="248.1" x2="500" y2="248.1" stroke="#e1e0d9" stroke-width="1"/>
<text x="56" y="252.1" font-size="11" text-anchor="end" fill="#898781">2</text>
<line x1="62" y1="199.1" x2="500" y2="199.1" stroke="#e1e0d9" stroke-width="1"/>
<text x="56" y="203.1" font-size="11" text-anchor="end" fill="#898781">3</text>
<line x1="62" y1="150.1" x2="500" y2="150.1" stroke="#e1e0d9" stroke-width="1"/>
<text x="56" y="154.1" font-size="11" text-anchor="end" fill="#898781">4</text>
<line x1="62" y1="101.2" x2="500" y2="101.2" stroke="#e1e0d9" stroke-width="1"/>
<text x="56" y="105.2" font-size="11" text-anchor="end" fill="#898781">5</text>
<line x1="62" y1="346" x2="500" y2="346" stroke="#c3c2b7" stroke-width="1"/>
<line x1="62" y1="82" x2="62" y2="346" stroke="#c3c2b7" stroke-width="1"/>
<text x="281.0" y="386" font-size="11.5" text-anchor="middle" fill="#52514e">% de filas llenas de la columna</text>
<text transform="translate(16,214.0) rotate(-90)" font-size="11.5" text-anchor="middle" fill="#52514e">eCPM ponderado ($)</text>
<clipPath id="clip0_0_9833"><rect x="62" y="82" width="438" height="264"/></clipPath>
<line clip-path="url(#clip0_0_9833)" x1="62.0" y1="136.5" x2="500.0" y2="198.6" stroke="#2a78d6" stroke-width="2" stroke-opacity="0.55"/>
<line clip-path="url(#clip0_0_9833)" x1="62.0" y1="215.2" x2="500.0" y2="202.7" stroke="#eb6834" stroke-width="2" stroke-opacity="0.55"/>
<circle cx="436.7" cy="183.0" r="5" fill="#2a78d6" stroke="#fcfcfb" stroke-width="2"/>
<text x="443.7" y="177.0" font-size="10" fill="#52514e">App Name</text>
<circle cx="453.1" cy="191.4" r="5" fill="#2a78d6" stroke="#fcfcfb" stroke-width="2"/>
<text x="460.1" y="185.4" font-size="10" fill="#52514e">Genre</text>
<circle cx="436.2" cy="201.4" r="5" fill="#2a78d6" stroke="#fcfcfb" stroke-width="2"/>
<text x="443.2" y="195.4" font-size="10" fill="#52514e">Title</text>
<circle cx="367.0" cy="174.5" r="5" fill="#2a78d6" stroke="#fcfcfb" stroke-width="2"/>
<text x="374.0" y="168.5" font-size="10" fill="#52514e">Rating</text>
<circle cx="329.3" cy="175.6" r="5" fill="#2a78d6" stroke="#fcfcfb" stroke-width="2"/>
<text x="336.3" y="169.6" font-size="10" fill="#52514e">Language</text>
<circle cx="169.6" cy="173.4" r="5" fill="#2a78d6" stroke="#fcfcfb" stroke-width="2"/>
<text x="176.6" y="167.4" font-size="10" fill="#52514e">LiveStream</text>
<circle cx="164.5" cy="133.1" r="5" fill="#2a78d6" stroke="#fcfcfb" stroke-width="2"/>
<text x="171.5" y="127.1" font-size="10" fill="#52514e">Category</text>
<circle cx="127.8" cy="116.4" r="5" fill="#2a78d6" stroke="#fcfcfb" stroke-width="2"/>
<text x="134.8" y="110.4" font-size="10" fill="#52514e">Length</text>
<circle cx="90.5" cy="164.7" r="5" fill="#2a78d6" stroke="#fcfcfb" stroke-width="2"/>
<text x="97.5" y="158.7" font-size="10" fill="#52514e">Series</text>
<circle cx="436.7" cy="235.2" r="5" fill="#eb6834" stroke="#fcfcfb" stroke-width="2"/>
<circle cx="453.1" cy="178.2" r="5" fill="#eb6834" stroke="#fcfcfb" stroke-width="2"/>
<circle cx="436.2" cy="172.4" r="5" fill="#eb6834" stroke="#fcfcfb" stroke-width="2"/>
<circle cx="367.0" cy="231.5" r="5" fill="#eb6834" stroke="#fcfcfb" stroke-width="2"/>
<circle cx="329.3" cy="216.0" r="5" fill="#eb6834" stroke="#fcfcfb" stroke-width="2"/>
<circle cx="169.6" cy="206.9" r="5" fill="#eb6834" stroke="#fcfcfb" stroke-width="2"/>
<circle cx="164.5" cy="221.4" r="5" fill="#eb6834" stroke="#fcfcfb" stroke-width="2"/>
<circle cx="127.8" cy="226.4" r="5" fill="#eb6834" stroke="#fcfcfb" stroke-width="2"/>
<circle cx="90.5" cy="190.6" r="5" fill="#eb6834" stroke="#fcfcfb" stroke-width="2"/>
<circle cx="66" cy="39" r="4" fill="#2a78d6"/>
<text x="74" y="43" font-size="11" fill="#0b0b0b">eCPM filas llenas: R² = 0.58, pendiente -0.012</text>
<circle cx="66" cy="54" r="4" fill="#eb6834"/>
<text x="74" y="58" font-size="11" fill="#0b0b0b">eCPM filas vacías: R² = 0.03, pendiente 0.003</text></g>
<g transform="translate(0,472)"><rect x="0" y="0" width="520" height="400" fill="#fcfcfb"/>
<text x="62" y="22" font-size="15" font-weight="600" fill="#0b0b0b">Colombia</text>
<line x1="62.0" y1="82" x2="62.0" y2="346" stroke="#e1e0d9" stroke-width="1"/>
<text x="62.0" y="362" font-size="11" text-anchor="middle" fill="#898781">0</text>
<line x1="142.3" y1="82" x2="142.3" y2="346" stroke="#e1e0d9" stroke-width="1"/>
<text x="142.3" y="362" font-size="11" text-anchor="middle" fill="#898781">20</text>
<line x1="222.7" y1="82" x2="222.7" y2="346" stroke="#e1e0d9" stroke-width="1"/>
<text x="222.7" y="362" font-size="11" text-anchor="middle" fill="#898781">40</text>
<line x1="303.0" y1="82" x2="303.0" y2="346" stroke="#e1e0d9" stroke-width="1"/>
<text x="303.0" y="362" font-size="11" text-anchor="middle" fill="#898781">60</text>
<line x1="383.3" y1="82" x2="383.3" y2="346" stroke="#e1e0d9" stroke-width="1"/>
<text x="383.3" y="362" font-size="11" text-anchor="middle" fill="#898781">80</text>
<line x1="463.7" y1="82" x2="463.7" y2="346" stroke="#e1e0d9" stroke-width="1"/>
<text x="463.7" y="362" font-size="11" text-anchor="middle" fill="#898781">100</text>
<line x1="62" y1="346.0" x2="500" y2="346.0" stroke="#e1e0d9" stroke-width="1"/>
<text x="56" y="350.0" font-size="11" text-anchor="end" fill="#898781">0</text>
<line x1="62" y1="284.4" x2="500" y2="284.4" stroke="#e1e0d9" stroke-width="1"/>
<text x="56" y="288.4" font-size="11" text-anchor="end" fill="#898781">2</text>
<line x1="62" y1="222.9" x2="500" y2="222.9" stroke="#e1e0d9" stroke-width="1"/>
<text x="56" y="226.9" font-size="11" text-anchor="end" fill="#898781">4</text>
<line x1="62" y1="161.3" x2="500" y2="161.3" stroke="#e1e0d9" stroke-width="1"/>
<text x="56" y="165.3" font-size="11" text-anchor="end" fill="#898781">6</text>
<line x1="62" y1="99.7" x2="500" y2="99.7" stroke="#e1e0d9" stroke-width="1"/>
<text x="56" y="103.7" font-size="11" text-anchor="end" fill="#898781">8</text>
<line x1="62" y1="346" x2="500" y2="346" stroke="#c3c2b7" stroke-width="1"/>
<line x1="62" y1="82" x2="62" y2="346" stroke="#c3c2b7" stroke-width="1"/>
<text x="281.0" y="386" font-size="11.5" text-anchor="middle" fill="#52514e">% de filas llenas de la columna</text>
<text transform="translate(16,214.0) rotate(-90)" font-size="11.5" text-anchor="middle" fill="#52514e">eCPM ponderado ($)</text>
<clipPath id="clip0_0_509"><rect x="62" y="82" width="438" height="264"/></clipPath>
<line clip-path="url(#clip0_0_509)" x1="62.0" y1="239.8" x2="500.0" y2="176.0" stroke="#2a78d6" stroke-width="2" stroke-opacity="0.55"/>
<line clip-path="url(#clip0_0_509)" x1="62.0" y1="164.1" x2="500.0" y2="212.4" stroke="#eb6834" stroke-width="2" stroke-opacity="0.55"/>
<circle cx="453.1" cy="195.0" r="5" fill="#2a78d6" stroke="#fcfcfb" stroke-width="2"/>
<text x="460.1" y="189.0" font-size="10" fill="#52514e">App Name</text>
<circle cx="431.7" cy="178.3" r="5" fill="#2a78d6" stroke="#fcfcfb" stroke-width="2"/>
<text x="438.7" y="172.3" font-size="10" fill="#52514e">Genre</text>
<circle cx="445.7" cy="182.4" r="5" fill="#2a78d6" stroke="#fcfcfb" stroke-width="2"/>
<text x="452.7" y="176.4" font-size="10" fill="#52514e">Title</text>
<circle cx="345.9" cy="184.6" r="5" fill="#2a78d6" stroke="#fcfcfb" stroke-width="2"/>
<text x="352.9" y="178.6" font-size="10" fill="#52514e">Rating</text>
<circle cx="273.8" cy="234.4" r="5" fill="#2a78d6" stroke="#fcfcfb" stroke-width="2"/>
<text x="280.8" y="228.4" font-size="10" fill="#52514e">Language</text>
<circle cx="169.2" cy="212.0" r="5" fill="#2a78d6" stroke="#fcfcfb" stroke-width="2"/>
<text x="176.2" y="206.0" font-size="10" fill="#52514e">LiveStream</text>
<circle cx="151.2" cy="200.2" r="5" fill="#2a78d6" stroke="#fcfcfb" stroke-width="2"/>
<text x="158.2" y="194.2" font-size="10" fill="#52514e">Category</text>
<circle cx="104.2" cy="238.1" r="5" fill="#2a78d6" stroke="#fcfcfb" stroke-width="2"/>
<text x="111.2" y="232.1" font-size="10" fill="#52514e">Length</text>
<circle cx="87.9" cy="255.1" r="5" fill="#2a78d6" stroke="#fcfcfb" stroke-width="2"/>
<text x="94.9" y="249.1" font-size="10" fill="#52514e">Series</text>
<circle cx="453.1" cy="150.3" r="5" fill="#eb6834" stroke="#fcfcfb" stroke-width="2"/>
<circle cx="431.7" cy="254.0" r="5" fill="#eb6834" stroke="#fcfcfb" stroke-width="2"/>
<circle cx="445.7" cy="241.0" r="5" fill="#eb6834" stroke="#fcfcfb" stroke-width="2"/>
<circle cx="345.9" cy="211.3" r="5" fill="#eb6834" stroke="#fcfcfb" stroke-width="2"/>
<circle cx="273.8" cy="116.4" r="5" fill="#eb6834" stroke="#fcfcfb" stroke-width="2"/>
<circle cx="169.2" cy="174.1" r="5" fill="#eb6834" stroke="#fcfcfb" stroke-width="2"/>
<circle cx="151.2" cy="187.1" r="5" fill="#eb6834" stroke="#fcfcfb" stroke-width="2"/>
<circle cx="104.2" cy="176.2" r="5" fill="#eb6834" stroke="#fcfcfb" stroke-width="2"/>
<circle cx="87.9" cy="177.1" r="5" fill="#eb6834" stroke="#fcfcfb" stroke-width="2"/>
<circle cx="66" cy="39" r="4" fill="#2a78d6"/>
<text x="74" y="43" font-size="11" fill="#0b0b0b">eCPM filas llenas: R² = 0.63, pendiente 0.019</text>
<circle cx="66" cy="54" r="4" fill="#eb6834"/>
<text x="74" y="58" font-size="11" fill="#0b0b0b">eCPM filas vacías: R² = 0.15, pendiente -0.014</text></g>
<g transform="translate(536,472)"><rect x="0" y="0" width="520" height="400" fill="#fcfcfb"/>
<text x="62" y="22" font-size="15" font-weight="600" fill="#0b0b0b">Chile</text>
<line x1="62.0" y1="82" x2="62.0" y2="346" stroke="#e1e0d9" stroke-width="1"/>
<text x="62.0" y="362" font-size="11" text-anchor="middle" fill="#898781">0</text>
<line x1="142.6" y1="82" x2="142.6" y2="346" stroke="#e1e0d9" stroke-width="1"/>
<text x="142.6" y="362" font-size="11" text-anchor="middle" fill="#898781">20</text>
<line x1="223.1" y1="82" x2="223.1" y2="346" stroke="#e1e0d9" stroke-width="1"/>
<text x="223.1" y="362" font-size="11" text-anchor="middle" fill="#898781">40</text>
<line x1="303.7" y1="82" x2="303.7" y2="346" stroke="#e1e0d9" stroke-width="1"/>
<text x="303.7" y="362" font-size="11" text-anchor="middle" fill="#898781">60</text>
<line x1="384.2" y1="82" x2="384.2" y2="346" stroke="#e1e0d9" stroke-width="1"/>
<text x="384.2" y="362" font-size="11" text-anchor="middle" fill="#898781">80</text>
<line x1="464.8" y1="82" x2="464.8" y2="346" stroke="#e1e0d9" stroke-width="1"/>
<text x="464.8" y="362" font-size="11" text-anchor="middle" fill="#898781">100</text>
<line x1="62" y1="346.0" x2="500" y2="346.0" stroke="#e1e0d9" stroke-width="1"/>
<text x="56" y="350.0" font-size="11" text-anchor="end" fill="#898781">0</text>
<line x1="62" y1="295.8" x2="500" y2="295.8" stroke="#e1e0d9" stroke-width="1"/>
<text x="56" y="299.8" font-size="11" text-anchor="end" fill="#898781">2</text>
<line x1="62" y1="245.6" x2="500" y2="245.6" stroke="#e1e0d9" stroke-width="1"/>
<text x="56" y="249.6" font-size="11" text-anchor="end" fill="#898781">4</text>
<line x1="62" y1="195.4" x2="500" y2="195.4" stroke="#e1e0d9" stroke-width="1"/>
<text x="56" y="199.4" font-size="11" text-anchor="end" fill="#898781">6</text>
<line x1="62" y1="145.1" x2="500" y2="145.1" stroke="#e1e0d9" stroke-width="1"/>
<text x="56" y="149.1" font-size="11" text-anchor="end" fill="#898781">8</text>
<line x1="62" y1="94.9" x2="500" y2="94.9" stroke="#e1e0d9" stroke-width="1"/>
<text x="56" y="98.9" font-size="11" text-anchor="end" fill="#898781">10</text>
<line x1="62" y1="346" x2="500" y2="346" stroke="#c3c2b7" stroke-width="1"/>
<line x1="62" y1="82" x2="62" y2="346" stroke="#c3c2b7" stroke-width="1"/>
<text x="281.0" y="386" font-size="11.5" text-anchor="middle" fill="#52514e">% de filas llenas de la columna</text>
<text transform="translate(16,214.0) rotate(-90)" font-size="11.5" text-anchor="middle" fill="#52514e">eCPM ponderado ($)</text>
<clipPath id="clip0_0_69"><rect x="62" y="82" width="438" height="264"/></clipPath>
<line clip-path="url(#clip0_0_69)" x1="62.0" y1="219.1" x2="500.0" y2="191.5" stroke="#2a78d6" stroke-width="2" stroke-opacity="0.55"/>
<line clip-path="url(#clip0_0_69)" x1="62.0" y1="192.3" x2="500.0" y2="147.3" stroke="#eb6834" stroke-width="2" stroke-opacity="0.55"/>
<circle cx="445.5" cy="192.4" r="5" fill="#2a78d6" stroke="#fcfcfb" stroke-width="2"/>
<text x="452.5" y="186.4" font-size="10" fill="#52514e">App Name</text>
<circle cx="434.4" cy="199.2" r="5" fill="#2a78d6" stroke="#fcfcfb" stroke-width="2"/>
<text x="441.4" y="193.2" font-size="10" fill="#52514e">Genre</text>
<circle cx="453.1" cy="200.5" r="5" fill="#2a78d6" stroke="#fcfcfb" stroke-width="2"/>
<text x="460.1" y="194.5" font-size="10" fill="#52514e">Title</text>
<circle cx="355.4" cy="197.6" r="5" fill="#2a78d6" stroke="#fcfcfb" stroke-width="2"/>
<text x="362.4" y="191.6" font-size="10" fill="#52514e">Rating</text>
<circle cx="312.5" cy="198.0" r="5" fill="#2a78d6" stroke="#fcfcfb" stroke-width="2"/>
<text x="319.5" y="192.0" font-size="10" fill="#52514e">Language</text>
<circle cx="135.4" cy="199.6" r="5" fill="#2a78d6" stroke="#fcfcfb" stroke-width="2"/>
<text x="142.4" y="193.6" font-size="10" fill="#52514e">LiveStream</text>
<circle cx="124.6" cy="223.2" r="5" fill="#2a78d6" stroke="#fcfcfb" stroke-width="2"/>
<text x="131.6" y="217.2" font-size="10" fill="#52514e">Category</text>
<circle cx="95.9" cy="218.8" r="5" fill="#2a78d6" stroke="#fcfcfb" stroke-width="2"/>
<text x="102.9" y="212.8" font-size="10" fill="#52514e">Length</text>
<circle cx="85.5" cy="224.2" r="5" fill="#2a78d6" stroke="#fcfcfb" stroke-width="2"/>
<text x="92.5" y="218.2" font-size="10" fill="#52514e">Series</text>
<circle cx="445.5" cy="195.4" r="5" fill="#eb6834" stroke="#fcfcfb" stroke-width="2"/>
<circle cx="434.4" cy="146.4" r="5" fill="#eb6834" stroke="#fcfcfb" stroke-width="2"/>
<circle cx="453.1" cy="116.4" r="5" fill="#eb6834" stroke="#fcfcfb" stroke-width="2"/>
<circle cx="355.4" cy="167.7" r="5" fill="#eb6834" stroke="#fcfcfb" stroke-width="2"/>
<circle cx="312.5" cy="161.3" r="5" fill="#eb6834" stroke="#fcfcfb" stroke-width="2"/>
<circle cx="135.4" cy="190.4" r="5" fill="#eb6834" stroke="#fcfcfb" stroke-width="2"/>
<circle cx="124.6" cy="185.6" r="5" fill="#eb6834" stroke="#fcfcfb" stroke-width="2"/>
<circle cx="95.9" cy="186.8" r="5" fill="#eb6834" stroke="#fcfcfb" stroke-width="2"/>
<circle cx="85.5" cy="187.5" r="5" fill="#eb6834" stroke="#fcfcfb" stroke-width="2"/>
<circle cx="66" cy="39" r="4" fill="#2a78d6"/>
<text x="74" y="43" font-size="11" fill="#0b0b0b">eCPM filas llenas: R² = 0.65, pendiente 0.010</text>
<circle cx="66" cy="54" r="4" fill="#eb6834"/>
<text x="74" y="58" font-size="11" fill="#0b0b0b">eCPM filas vacías: R² = 0.40, pendiente 0.017</text></g>
</svg>