<svg xmlns="http://www.w3.org/2000/svg" width="900" height="800" viewBox="0 0 900 800" font-family="Segoe UI, Helvetica, Arial, sans-serif" font-size="12">
<rect width="900" height="800" fill="#ffffff"/>
<text x="16" y="24" font-size="17" font-weight="700" fill="#1f2933">Apps: eCPM ponderado vs requests totales</text>
<text x="16" y="44" font-size="12" fill="#5f6b76">Un punto por App Name con requests vendidos (217 apps; otras 349 no vendieron nada y no tienen eCPM).</text>
<text x="16" y="60" font-size="12" fill="#5f6b76">x = eCPM ponderado de la app (eCPM &gt; 0); y = requests totales de la app. Los dos ejes en escala logarítmica.</text>
<text x="16" y="76" font-size="12" fill="#5f6b76">En azul, las 12 apps de las barras de arriba; con nombre, las 15 de más requests. Línea punteada: eCPM ponderado del consolidado ($3.81).</text>
<circle cx="24" cy="96" r="5" fill="#2a78d6"/><text x="34" y="100" font-size="11" fill="#1f2933">top 12 por requests vendidos</text>
<circle cx="200" cy="96" r="4" fill="#9aa5b1"/><text x="210" y="100" font-size="11" fill="#1f2933">resto de apps</text>
<line x1="84.0" y1="136" x2="84.0" y2="744" stroke="#e3e7ea"/>
<text x="84.0" y="760" text-anchor="middle" font-size="10.5" fill="#5f6b76">$0.1</text>
<line x1="162.9" y1="136" x2="162.9" y2="744" stroke="#e3e7ea"/>
<text x="162.9" y="760" text-anchor="middle" font-size="10.5" fill="#5f6b76">$0.2</text>
<line x1="267.1" y1="136" x2="267.1" y2="744" stroke="#e3e7ea"/>
<text x="267.1" y="760" text-anchor="middle" font-size="10.5" fill="#5f6b76">$0.5</text>
<line x1="346.0" y1="136" x2="346.0" y2="744" stroke="#e3e7ea"/>
<text x="346.0" y="760" text-anchor="middle" font-size="10.5" fill="#5f6b76">$1</text>
<line x1="424.9" y1="136" x2="424.9" y2="744" stroke="#e3e7ea"/>
<text x="424.9" y="760" text-anchor="middle" font-size="10.5" fill="#5f6b76">$2</text>
<line x1="529.1" y1="136" x2="529.1" y2="744" stroke="#e3e7ea"/>
<text x="529.1" y="760" text-anchor="middle" font-size="10.5" fill="#5f6b76">$5</text>
<line x1="608.0" y1="136" x2="608.0" y2="744" stroke="#e3e7ea"/>
<text x="608.0" y="760" text-anchor="middle" font-size="10.5" fill="#5f6b76">$10</text>
<line x1="686.9" y1="136" x2="686.9" y2="744" stroke="#e3e7ea"/>
<text x="686.9" y="760" text-anchor="middle" font-size="10.5" fill="#5f6b76">$20</text>
<line x1="791.1" y1="136" x2="791.1" y2="744" stroke="#e3e7ea"/>
<text x="791.1" y="760" text-anchor="middle" font-size="10.5" fill="#5f6b76">$50</text>
<line x1="870.0" y1="136" x2="870.0" y2="744" stroke="#e3e7ea"/>
<text x="870.0" y="760" text-anchor="middle" font-size="10.5" fill="#5f6b76">$100</text>
<line x1="84" y1="744.0" x2="870" y2="744.0" stroke="#e3e7ea"/>
<text x="78" y="748.0" text-anchor="end" font-size="10.5" fill="#5f6b76">10 mil</text>
<line x1="84" y1="662.9" x2="870" y2="662.9" stroke="#e3e7ea"/>
<text x="78" y="666.9" text-anchor="end" font-size="10.5" fill="#5f6b76">100 mil</text>
<line x1="84" y1="581.9" x2="870" y2="581.9" stroke="#e3e7ea"/>
<text x="78" y="585.9" text-anchor="end" font-size="10.5" fill="#5f6b76">1 M</text>
<line x1="84" y1="500.8" x2="870" y2="500.8" stroke="#e3e7ea"/>
<text x="78" y="504.8" text-anchor="end" font-size="10.5" fill="#5f6b76">10 M</text>
<line x1="84" y1="419.7" x2="870" y2="419.7" stroke="#e3e7ea"/>
<text x="78" y="423.7" text-anchor="end" font-size="10.5" fill="#5f6b76">100 M</text>
<line x1="84" y1="338.7" x2="870" y2="338.7" stroke="#e3e7ea"/>
<text x="78" y="342.7" text-anchor="end" font-size="10.5" fill="#5f6b76">1,000 M</text>
<line x1="84" y1="257.6" x2="870" y2="257.6" stroke="#e3e7ea"/>
<text x="78" y="261.6" text-anchor="end" font-size="10.5" fill="#5f6b76">10,000 M</text>
<line x1="84" y1="176.5" x2="870" y2="176.5" stroke="#e3e7ea"/>
<text x="78" y="180.5" text-anchor="end" font-size="10.5" fill="#5f6b76">100,000 M</text>
<line x1="498.1" y1="136" x2="498.1" y2="744" stroke="#5f6b76" stroke-dasharray="5 4"/>
<text x="477.0" y="790" text-anchor="middle" fill="#1f2933">eCPM ponderado de la app ($, escala log)</text>
<text transform="translate(18,440.0) rotate(-90)" text-anchor="middle" fill="#1f2933">requests totales de la app (escala log)</text>
<circle cx="533.9" cy="705.2" r="4" fill="#9aa5b1" fill-opacity="0.6" stroke="#ffffff" stroke-width="1"/>
<circle cx="561.1" cy="701.8" r="4" fill="#9aa5b1" fill-opacity="0.6" stroke="#ffffff" stroke-width="1"/>
<circle cx="570.3" cy="698.1" r="4" fill="#9aa5b1" fill-opacity="0.6" stroke="#ffffff" stroke-width="1"/>
<circle cx="333.8" cy="697.3" r="4" fill="#9aa5b1" fill-opacity="0.6" stroke="#ffffff" stroke-width="1"/>
<circle cx="457.4" cy="669.7" r="4" fill="#9aa5b1" fill-opacity="0.6" stroke="#ffffff" stroke-width="1"/>
<circle cx="510.6" cy="668.0" r="4" fill="#9aa5b1" fill-opacity="0.6" stroke="#ffffff" stroke-width="1"/>
<circle cx="591.1" cy="664.4" r="4" fill="#9aa5b1" fill-opacity="0.6" stroke="#ffffff" stroke-width="1"/>
<circle cx="412.8" cy="653.3" r="4" fill="#9aa5b1" fill-opacity="0.6" stroke="#ffffff" stroke-width="1"/>
<circle cx="331.2" cy="652.2" r="4" fill="#9aa5b1" fill-opacity="0.6" stroke="#ffffff" stroke-width="1"/>
<circle cx="412.9" cy="649.5" r="4" fill="#9aa5b1" fill-opacity="0.6" stroke="#ffffff" stroke-width="1"/>
<circle cx="104.7" cy="648.5" r="4" fill="#9aa5b1" fill-opacity="0.6" stroke="#ffffff" stroke-width="1"/>
<circle cx="407.7" cy="643.4" r="4" fill="#9aa5b1" fill-opacity="0.6" stroke="#ffffff" stroke-width="1"/>
<circle cx="581.7" cy="642.9" r="4" fill="#9aa5b1" fill-opacity="0.6" stroke="#ffffff" stroke-width="1"/>
<circle cx="513.3" cy="641.5" r="4" fill="#9aa5b1" fill-opacity="0.6" stroke="#ffffff" stroke-width="1"/>
<circle cx="447.0" cy="636.2" r="4" fill="#9aa5b1" fill-opacity="0.6" stroke="#ffffff" stroke-width="1"/>
<circle cx="341.8" cy="633.9" r="4" fill="#9aa5b1" fill-opacity="0.6" stroke="#ffffff" stroke-width="1"/>
<circle cx="152.8" cy="630.9" r="4" fill="#9aa5b1" fill-opacity="0.6" stroke="#ffffff" stroke-width="1"/>
<circle cx="408.2" cy="630.9" r="4" fill="#9aa5b1" fill-opacity="0.6" stroke="#ffffff" stroke-width="1"/>
<circle cx="458.6" cy="627.0" r="4" fill="#9aa5b1" fill-opacity="0.6" stroke="#ffffff" stroke-width="1"/>
<circle cx="612.8" cy="625.6" r="4" fill="#9aa5b1" fill-opacity="0.6" stroke="#ffffff" stroke-width="1"/>
<circle cx="289.8" cy="623.4" r="4" fill="#9aa5b1" fill-opacity="0.6" stroke="#ffffff" stroke-width="1"/>
<circle cx="500.7" cy="620.6" r="4" fill="#9aa5b1" fill-opacity="0.6" stroke="#ffffff" stroke-width="1"/>
<circle cx="510.1" cy="615.4" r="4" fill="#9aa5b1" fill-opacity="0.6" stroke="#ffffff" stroke-width="1"/>
<circle cx="456.7" cy="614.0" r="4" fill="#9aa5b1" fill-opacity="0.6" stroke="#ffffff" stroke-width="1"/>
<circle cx="529.1" cy="612.3" r="4" fill="#9aa5b1" fill-opacity="0.6" stroke="#ffffff" stroke-width="1"/>
<circle cx="624.0" cy="611.7" r="4" fill="#9aa5b1" fill-opacity="0.6" stroke="#ffffff" stroke-width="1"/>
<circle cx="490.5" cy="608.5" r="4" fill="#9aa5b1" fill-opacity="0.6" stroke="#ffffff" stroke-width="1"/>
<circle cx="646.3" cy="608.1" r="4" fill="#9aa5b1" fill-opacity="0.6" stroke="#ffffff" stroke-width="1"/>
<circle cx="577.9" cy="606.7" r="4" fill="#9aa5b1" fill-opacity="0.6" stroke="#ffffff" stroke-width="1"/>
<circle cx="449.9" cy="605.2" r="4" fill="#9aa5b1" fill-opacity="0.6" stroke="#ffffff" stroke-width="1"/>
<circle cx="629.5" cy="603.8" r="4" fill="#9aa5b1" fill-opacity="0.6" stroke="#ffffff" stroke-width="1"/>
<circle cx="649.5" cy="603.7" r="4" fill="#9aa5b1" fill-opacity="0.6" stroke="#ffffff" stroke-width="1"/>
<circle cx="420.3" cy="599.8" r="4" fill="#9aa5b1" fill-opacity="0.6" stroke="#ffffff" stroke-width="1"/>
<circle cx="425.9" cy="599.0" r="4" fill="#9aa5b1" fill-opacity="0.6" stroke="#ffffff" stroke-width="1"/>
<circle cx="386.1" cy="597.6" r="4" fill="#9aa5b1" fill-opacity="0.6" stroke="#ffffff" stroke-width="1"/>
<circle cx="254.4" cy="596.1" r="4" fill="#9aa5b1" fill-opacity="0.6" stroke="#ffffff" stroke-width="1"/>
<circle cx="569.3" cy="596.1" r="4" fill="#9aa5b1" fill-opacity="0.6" stroke="#ffffff" stroke-width="1"/>
<circle cx="401.9" cy="593.7" r="4" fill="#9aa5b1" fill-opacity="0.6" stroke="#ffffff" stroke-width="1"/>
<circle cx="372.6" cy="592.2" r="4" fill="#9aa5b1" fill-opacity="0.6" stroke="#ffffff" stroke-width="1"/>
<circle cx="395.4" cy="590.1" r="4" fill="#9aa5b1" fill-opacity="0.6" stroke="#ffffff" stroke-width="1"/>
<circle cx="517.5" cy="589.0" r="4" fill="#9aa5b1" fill-opacity="0.6" stroke="#ffffff" stroke-width="1"/>
<circle cx="438.1" cy="587.5" r="4" fill="#9aa5b1" fill-opacity="0.6" stroke="#ffffff" stroke-width="1"/>
<circle cx="347.1" cy="584.0" r="4" fill="#9aa5b1" fill-opacity="0.6" stroke="#ffffff" stroke-width="1"/>
<circle cx="346.0" cy="582.7" r="4" fill="#9aa5b1" fill-opacity="0.6" stroke="#ffffff" stroke-width="1"/>
<circle cx="451.8" cy="582.6" r="4" fill="#9aa5b1" fill-opacity="0.6" stroke="#ffffff" stroke-width="1"/>
<circle cx="429.8" cy="582.2" r="4" fill="#9aa5b1" fill-opacity="0.6" stroke="#ffffff" stroke-width="1"/>
<circle cx="624.3" cy="581.0" r="4" fill="#9aa5b1" fill-opacity="0.6" stroke="#ffffff" stroke-width="1"/>
<circle cx="207.5" cy="580.9" r="4" fill="#9aa5b1" fill-opacity="0.6" stroke="#ffffff" stroke-width="1"/>
<circle cx="520.2" cy="580.8" r="4" fill="#9aa5b1" fill-opacity="0.6" stroke="#ffffff" stroke-width="1"/>
<circle cx="349.4" cy="578.9" r="4" fill="#9aa5b1" fill-opacity="0.6" stroke="#ffffff" stroke-width="1"/>
<circle cx="478.2" cy="577.6" r="4" fill="#9aa5b1" fill-opacity="0.6" stroke="#ffffff" stroke-width="1"/>
<circle cx="366.0" cy="576.3" r="4" fill="#9aa5b1" fill-opacity="0.6" stroke="#ffffff" stroke-width="1"/>
<circle cx="523.3" cy="575.8" r="4" fill="#9aa5b1" fill-opacity="0.6" stroke="#ffffff" stroke-width="1"/>
<circle cx="717.3" cy="575.5" r="4" fill="#9aa5b1" fill-opacity="0.6" stroke="#ffffff" stroke-width="1"/>
<circle cx="471.0" cy="575.2" r="4" fill="#9aa5b1" fill-opacity="0.6" stroke="#ffffff" stroke-width="1"/>
<circle cx="517.5" cy="575.0" r="4" fill="#9aa5b1" fill-opacity="0.6" stroke="#ffffff" stroke-width="1"/>
<circle cx="559.3" cy="574.9" r="4" fill="#9aa5b1" fill-opacity="0.6" stroke="#ffffff" stroke-width="1"/>
<circle cx="336.3" cy="573.6" r="4" fill="#9aa5b1" fill-opacity="0.6" stroke="#ffffff" stroke-width="1"/>
<circle cx="575.1" cy="573.5" r="4" fill="#9aa5b1" fill-opacity="0.6" stroke="#ffffff" stroke-width="1"/>
<circle cx="518.7" cy="573.2" r="4" fill="#9aa5b1" fill-opacity="0.6" stroke="#ffffff" stroke-width="1"/>
<circle cx="510.6" cy="572.2" r="4" fill="#9aa5b1" fill-opacity="0.6" stroke="#ffffff" stroke-width="1"/>
<circle cx="531.5" cy="570.8" r="4" fill="#9aa5b1" fill-opacity="0.6" stroke="#ffffff" stroke-width="1"/>
<circle cx="351.6" cy="570.2" r="4" fill="#9aa5b1" fill-opacity="0.6" stroke="#ffffff" stroke-width="1"/>
<circle cx="528.8" cy="568.4" r="4" fill="#9aa5b1" fill-opacity="0.6" stroke="#ffffff" stroke-width="1"/>
<circle cx="443.0" cy="567.9" r="4" fill="#9aa5b1" fill-opacity="0.6" stroke="#ffffff" stroke-width="1"/>
<circle cx="630.3" cy="566.3" r="4" fill="#9aa5b1" fill-opacity="0.6" stroke="#ffffff" stroke-width="1"/>
<circle cx="478.3" cy="563.8" r="4" fill="#9aa5b1" fill-opacity="0.6" stroke="#ffffff" stroke-width="1"/>
<circle cx="499.4" cy="563.2" r="4" fill="#9aa5b1" fill-opacity="0.6" stroke="#ffffff" stroke-width="1"/>
<circle cx="519.6" cy="562.8" r="4" fill="#9aa5b1" fill-opacity="0.6" stroke="#ffffff" stroke-width="1"/>
<circle cx="400.2" cy="560.4" r="4" fill="#9aa5b1" fill-opacity="0.6" stroke="#ffffff" stroke-width="1"/>
<circle cx="406.2" cy="558.9" r="4" fill="#9aa5b1" fill-opacity="0.6" stroke="#ffffff" stroke-width="1"/>
<circle cx="490.5" cy="558.9" r="4" fill="#9aa5b1" fill-opacity="0.6" stroke="#ffffff" stroke-width="1"/>
<circle cx="394.3" cy="558.2" r="4" fill="#9aa5b1" fill-opacity="0.6" stroke="#ffffff" stroke-width="1"/>
<circle cx="582.3" cy="557.2" r="4" fill="#9aa5b1" fill-opacity="0.6" stroke="#ffffff" stroke-width="1"/>
<circle cx="496.6" cy="555.8" r="4" fill="#9aa5b1" fill-opacity="0.6" stroke="#ffffff" stroke-width="1"/>
<circle cx="396.5" cy="555.6" r="4" fill="#9aa5b1" fill-opacity="0.6" stroke="#ffffff" stroke-width="1"/>
<circle cx="459.6" cy="553.2" r="4" fill="#9aa5b1" fill-opacity="0.6" stroke="#ffffff" stroke-width="1"/>
<circle cx="508.2" cy="552.9" r="4" fill="#9aa5b1" fill-opacity="0.6" stroke="#ffffff" stroke-width="1"/>
<circle cx="423.2" cy="552.6" r="4" fill="#9aa5b1" fill-opacity="0.6" stroke="#ffffff" stroke-width="1"/>
<circle cx="427.4" cy="552.0" r="4" fill="#9aa5b1" fill-opacity="0.6" stroke="#ffffff" stroke-width="1"/>
<circle cx="423.2" cy="551.5" r="4" fill="#9aa5b1" fill-opacity="0.6" stroke="#ffffff" stroke-width="1"/>
<circle cx="474.7" cy="548.2" r="4" fill="#9aa5b1" fill-opacity="0.6" stroke="#ffffff" stroke-width="1"/>
<circle cx="406.2" cy="548.1" r="4" fill="#9aa5b1" fill-opacity="0.6" stroke="#ffffff" stroke-width="1"/>
<circle cx="455.1" cy="547.7" r="4" fill="#9aa5b1" fill-opacity="0.6" stroke="#ffffff" stroke-width="1"/>
<circle cx="495.4" cy="547.2" r="4" fill="#9aa5b1" fill-opacity="0.6" stroke="#ffffff" stroke-width="1"/>
<circle cx="388.1" cy="546.3" r="4" fill="#9aa5b1" fill-opacity="0.6" stroke="#ffffff" stroke-width="1"/>
<circle cx="398.8" cy="545.0" r="4" fill="#9aa5b1" fill-opacity="0.6" stroke="#ffffff" stroke-width="1"/>
<circle cx="432.0" cy="544.7" r="4" fill="#9aa5b1" fill-opacity="0.6" stroke="#ffffff" stroke-width="1"/>
<circle cx="606.4" cy="544.4" r="4" fill="#9aa5b1" fill-opacity="0.6" stroke="#ffffff" stroke-width="1"/>
<circle cx="438.7" cy="543.8" r="4" fill="#9aa5b1" fill-opacity="0.6" stroke="#ffffff" stroke-width="1"/>
<circle cx="592.4" cy="543.2" r="4" fill="#9aa5b1" fill-opacity="0.6" stroke="#ffffff" stroke-width="1"/>
<circle cx="547.1" cy="540.8" r="4" fill="#9aa5b1" fill-opacity="0.6" stroke="#ffffff" stroke-width="1"/>
<circle cx="503.3" cy="538.9" r="4" fill="#9aa5b1" fill-opacity="0.6" stroke="#ffffff" stroke-width="1"/>
<circle cx="410.8" cy="538.3" r="4" fill="#9aa5b1" fill-opacity="0.6" stroke="#ffffff" stroke-width="1"/>
<circle cx="433.5" cy="537.7" r="4" fill="#9aa5b1" fill-opacity="0.6" stroke="#ffffff" stroke-width="1"/>
<circle cx="529.1" cy="537.6" r="4" fill="#9aa5b1" fill-opacity="0.6" stroke="#ffffff" stroke-width="1"/>
<circle cx="435.6" cy="535.4" r="4" fill="#9aa5b1" fill-opacity="0.6" stroke="#ffffff" stroke-width="1"/>
<circle cx="412.9" cy="534.9" r="4" fill="#9aa5b1" fill-opacity="0.6" stroke="#ffffff" stroke-width="1"/>
<circle cx="673.8" cy="533.7" r="4" fill="#9aa5b1" fill-opacity="0.6" stroke="#ffffff" stroke-width="1"/>
<circle cx="581.1" cy="533.7" r="4" fill="#9aa5b1" fill-opacity="0.6" stroke="#ffffff" stroke-width="1"/>
<circle cx="394.9" cy="532.6" r="4" fill="#9aa5b1" fill-opacity="0.6" stroke="#ffffff" stroke-width="1"/>
<circle cx="419.7" cy="531.3" r="4" fill="#9aa5b1" fill-opacity="0.6" stroke="#ffffff" stroke-width="1"/>
<circle cx="475.0" cy="531.1" r="4" fill="#9aa5b1" fill-opacity="0.6" stroke="#ffffff" stroke-width="1"/>
<circle cx="464.1" cy="530.4" r="4" fill="#9aa5b1" fill-opacity="0.6" stroke="#ffffff" stroke-width="1"/>
<circle cx="572.5" cy="530.2" r="4" fill="#9aa5b1" fill-opacity="0.6" stroke="#ffffff" stroke-width="1"/>
<circle cx="402.3" cy="528.8" r="4" fill="#9aa5b1" fill-opacity="0.6" stroke="#ffffff" stroke-width="1"/>
<circle cx="399.6" cy="528.6" r="4" fill="#9aa5b1" fill-opacity="0.6" stroke="#ffffff" stroke-width="1"/>
<circle cx="615.1" cy="528.1" r="4" fill="#9aa5b1" fill-opacity="0.6" stroke="#ffffff" stroke-width="1"/>
<circle cx="421.9" cy="527.0" r="4" fill="#9aa5b1" fill-opacity="0.6" stroke="#ffffff" stroke-width="1"/>
<circle cx="403.5" cy="527.0" r="4" fill="#9aa5b1" fill-opacity="0.6" stroke="#ffffff" stroke-width="1"/>
<circle cx="464.2" cy="526.2" r="4" fill="#9aa5b1" fill-opacity="0.6" stroke="#ffffff" stroke-width="1"/>
<circle cx="493.1" cy="525.0" r="4" fill="#9aa5b1" fill-opacity="0.6" stroke="#ffffff" stroke-width="1"/>
<circle cx="423.7" cy="524.8" r="4" fill="#9aa5b1" fill-opacity="0.6" stroke="#ffffff" stroke-width="1"/>
<circle cx="544.5" cy="523.6" r="4" fill="#9aa5b1" fill-opacity="0.6" stroke="#ffffff" stroke-width="1"/>
<circle cx="353.7" cy="519.3" r="4" fill="#9aa5b1" fill-opacity="0.6" stroke="#ffffff" stroke-width="1"/>
<circle cx="400.5" cy="515.4" r="4" fill="#9aa5b1" fill-opacity="0.6" stroke="#ffffff" stroke-width="1"/>
<circle cx="577.3" cy="514.6" r="4" fill="#9aa5b1" fill-opacity="0.6" stroke="#ffffff" stroke-width="1"/>
<circle cx="418.4" cy="513.1" r="4" fill="#9aa5b1" fill-opacity="0.6" stroke="#ffffff" stroke-width="1"/>
<circle cx="408.2" cy="512.3" r="4" fill="#9aa5b1" fill-opacity="0.6" stroke="#ffffff" stroke-width="1"/>
<circle cx="329.2" cy="511.6" r="4" fill="#9aa5b1" fill-opacity="0.6" stroke="#ffffff" stroke-width="1"/>
<circle cx="628.7" cy="510.1" r="4" fill="#9aa5b1" fill-opacity="0.6" stroke="#ffffff" stroke-width="1"/>
<circle cx="586.2" cy="509.2" r="4" fill="#9aa5b1" fill-opacity="0.6" stroke="#ffffff" stroke-width="1"/>
<circle cx="562.0" cy="509.1" r="4" fill="#9aa5b1" fill-opacity="0.6" stroke="#ffffff" stroke-width="1"/>
<circle cx="499.3" cy="509.0" r="4" fill="#9aa5b1" fill-opacity="0.6" stroke="#ffffff" stroke-width="1"/>
<circle cx="513.4" cy="506.1" r="4" fill="#9aa5b1" fill-opacity="0.6" stroke="#ffffff" stroke-width="1"/>
<circle cx="660.7" cy="503.1" r="4" fill="#9aa5b1" fill-opacity="0.6" stroke="#ffffff" stroke-width="1"/>
<circle cx="487.8" cy="502.0" r="4" fill="#9aa5b1" fill-opacity="0.6" stroke="#ffffff" stroke-width="1"/>
<circle cx="651.9" cy="501.9" r="4" fill="#9aa5b1" fill-opacity="0.6" stroke="#ffffff" stroke-width="1"/>
<circle cx="424.4" cy="501.7" r="4" fill="#9aa5b1" fill-opacity="0.6" stroke="#ffffff" stroke-width="1"/>
<circle cx="393.3" cy="499.2" r="4" fill="#9aa5b1" fill-opacity="0.6" stroke="#ffffff" stroke-width="1"/>
<circle cx="510.2" cy="498.7" r="4" fill="#9aa5b1" fill-opacity="0.6" stroke="#ffffff" stroke-width="1"/>
<circle cx="490.1" cy="498.5" r="4" fill="#9aa5b1" fill-opacity="0.6" stroke="#ffffff" stroke-width="1"/>
<circle cx="468.3" cy="497.8" r="4" fill="#9aa5b1" fill-opacity="0.6" stroke="#ffffff" stroke-width="1"/>
<circle cx="448.1" cy="493.3" r="4" fill="#9aa5b1" fill-opacity="0.6" stroke="#ffffff" stroke-width="1"/>
<circle cx="261.5" cy="490.8" r="4" fill="#9aa5b1" fill-opacity="0.6" stroke="#ffffff" stroke-width="1"/>
<circle cx="478.8" cy="490.5" r="4" fill="#9aa5b1" fill-opacity="0.6" stroke="#ffffff" stroke-width="1"/>
<circle cx="516.8" cy="490.1" r="4" fill="#9aa5b1" fill-opacity="0.6" stroke="#ffffff" stroke-width="1"/>
<circle cx="506.8" cy="488.0" r="4" fill="#9aa5b1" fill-opacity="0.6" stroke="#ffffff" stroke-width="1"/>
<circle cx="679.2" cy="487.7" r="4" fill="#9aa5b1" fill-opacity="0.6" stroke="#ffffff" stroke-width="1"/>
<circle cx="459.3" cy="485.8" r="4" fill="#9aa5b1" fill-opacity="0.6" stroke="#ffffff" stroke-width="1"/>
<circle cx="615.1" cy="483.6" r="4" fill="#9aa5b1" fill-opacity="0.6" stroke="#ffffff" stroke-width="1"/>
<circle cx="577.3" cy="482.3" r="4" fill="#9aa5b1" fill-opacity="0.6" stroke="#ffffff" stroke-width="1"/>
<circle cx="385.9" cy="481.0" r="4" fill="#9aa5b1" fill-opacity="0.6" stroke="#ffffff" stroke-width="1"/>
<circle cx="465.6" cy="479.4" r="4" fill="#9aa5b1" fill-opacity="0.6" stroke="#ffffff" stroke-width="1"/>
<circle cx="653.0" cy="479.4" r="4" fill="#9aa5b1" fill-opacity="0.6" stroke="#ffffff" stroke-width="1"/>
<circle cx="492.9" cy="471.7" r="4" fill="#9aa5b1" fill-opacity="0.6" stroke="#ffffff" stroke-width="1"/>
<circle cx="500.9" cy="469.3" r="4" fill="#9aa5b1" fill-opacity="0.6" stroke="#ffffff" stroke-width="1"/>
<circle cx="606.6" cy="468.2" r="4" fill="#9aa5b1" fill-opacity="0.6" stroke="#ffffff" stroke-width="1"/>
<circle cx="493.9" cy="464.8" r="4" fill="#9aa5b1" fill-opacity="0.6" stroke="#ffffff" stroke-width="1"/>
<circle cx="560.1" cy="464.7" r="4" fill="#9aa5b1" fill-opacity="0.6" stroke="#ffffff" stroke-width="1"/>
<circle cx="462.5" cy="464.1" r="4" fill="#9aa5b1" fill-opacity="0.6" stroke="#ffffff" stroke-width="1"/>
<circle cx="478.2" cy="463.7" r="4" fill="#9aa5b1" fill-opacity="0.6" stroke="#ffffff" stroke-width="1"/>
<circle cx="474.7" cy="462.1" r="4" fill="#9aa5b1" fill-opacity="0.6" stroke="#ffffff" stroke-width="1"/>
<circle cx="571.8" cy="460.0" r="4" fill="#9aa5b1" fill-opacity="0.6" stroke="#ffffff" stroke-width="1"/>
<circle cx="477.0" cy="458.2" r="4" fill="#9aa5b1" fill-opacity="0.6" stroke="#ffffff" stroke-width="1"/>
<circle cx="477.4" cy="458.1" r="4" fill="#9aa5b1" fill-opacity="0.6" stroke="#ffffff" stroke-width="1"/>
<circle cx="638.9" cy="458.0" r="4" fill="#9aa5b1" fill-opacity="0.6" stroke="#ffffff" stroke-width="1"/>
<circle cx="575.3" cy="457.6" r="4" fill="#9aa5b1" fill-opacity="0.6" stroke="#ffffff" stroke-width="1"/>
<circle cx="439.6" cy="456.1" r="4" fill="#9aa5b1" fill-opacity="0.6" stroke="#ffffff" stroke-width="1"/>
<circle cx="463.0" cy="454.9" r="4" fill="#9aa5b1" fill-opacity="0.6" stroke="#ffffff" stroke-width="1"/>
<circle cx="583.1" cy="454.8" r="4" fill="#9aa5b1" fill-opacity="0.6" stroke="#ffffff" stroke-width="1"/>
<circle cx="477.6" cy="454.0" r="4" fill="#9aa5b1" fill-opacity="0.6" stroke="#ffffff" stroke-width="1"/>
<circle cx="623.4" cy="451.3" r="4" fill="#9aa5b1" fill-opacity="0.6" stroke="#ffffff" stroke-width="1"/>
<circle cx="473.7" cy="444.7" r="4" fill="#9aa5b1" fill-opacity="0.6" stroke="#ffffff" stroke-width="1"/>
<circle cx="478.0" cy="444.0" r="4" fill="#9aa5b1" fill-opacity="0.6" stroke="#ffffff" stroke-width="1"/>
<circle cx="619.8" cy="443.5" r="4" fill="#9aa5b1" fill-opacity="0.6" stroke="#ffffff" stroke-width="1"/>
<circle cx="454.0" cy="440.8" r="4" fill="#9aa5b1" fill-opacity="0.6" stroke="#ffffff" stroke-width="1"/>
<circle cx="461.8" cy="437.1" r="4" fill="#9aa5b1" fill-opacity="0.6" stroke="#ffffff" stroke-width="1"/>
<circle cx="507.5" cy="432.5" r="4" fill="#9aa5b1" fill-opacity="0.6" stroke="#ffffff" stroke-width="1"/>
<circle cx="619.3" cy="428.6" r="4" fill="#9aa5b1" fill-opacity="0.6" stroke="#ffffff" stroke-width="1"/>
<circle cx="366.2" cy="421.4" r="4" fill="#9aa5b1" fill-opacity="0.6" stroke="#ffffff" stroke-width="1"/>
<circle cx="570.5" cy="418.3" r="4" fill="#9aa5b1" fill-opacity="0.6" stroke="#ffffff" stroke-width="1"/>
<circle cx="597.2" cy="418.2" r="4" fill="#9aa5b1" fill-opacity="0.6" stroke="#ffffff" stroke-width="1"/>
<circle cx="275.3" cy="416.1" r="4" fill="#9aa5b1" fill-opacity="0.6" stroke="#ffffff" stroke-width="1"/>
<circle cx="519.2" cy="412.7" r="4" fill="#9aa5b1" fill-opacity="0.6" stroke="#ffffff" stroke-width="1"/>
<circle cx="542.6" cy="405.4" r="4" fill="#9aa5b1" fill-opacity="0.6" stroke="#ffffff" stroke-width="1"/>
<circle cx="566.6" cy="401.6" r="4" fill="#9aa5b1" fill-opacity="0.6" stroke="#ffffff" stroke-width="1"/>
<circle cx="464.0" cy="399.7" r="4" fill="#9aa5b1" fill-opacity="0.6" stroke="#ffffff" stroke-width="1"/>
<circle cx="535.9" cy="394.0" r="4" fill="#9aa5b1" fill-opacity="0.6" stroke="#ffffff" stroke-width="1"/>
<circle cx="478.6" cy="386.5" r="4" fill="#9aa5b1" fill-opacity="0.6" stroke="#ffffff" stroke-width="1"/>
<circle cx="483.3" cy="385.4" r="4" fill="#9aa5b1" fill-opacity="0.6" stroke="#ffffff" stroke-width="1"/>
<circle cx="597.3" cy="384.9" r="4" fill="#9aa5b1" fill-opacity="0.6" stroke="#ffffff" stroke-width="1"/>
<circle cx="487.4" cy="370.8" r="4" fill="#9aa5b1" fill-opacity="0.6" stroke="#ffffff" stroke-width="1"/>
<circle cx="464.9" cy="364.5" r="4" fill="#9aa5b1" fill-opacity="0.6" stroke="#ffffff" stroke-width="1"/>
<circle cx="509.1" cy="360.3" r="4" fill="#9aa5b1" fill-opacity="0.6" stroke="#ffffff" stroke-width="1"/>
<circle cx="520.2" cy="360.2" r="4" fill="#9aa5b1" fill-opacity="0.6" stroke="#ffffff" stroke-width="1"/>
<circle cx="520.1" cy="360.0" r="4" fill="#9aa5b1" fill-opacity="0.6" stroke="#ffffff" stroke-width="1"/>
<circle cx="449.1" cy="355.8" r="4" fill="#9aa5b1" fill-opacity="0.6" stroke="#ffffff" stroke-width="1"/>
<circle cx="635.2" cy="354.1" r="4" fill="#9aa5b1" fill-opacity="0.6" stroke="#ffffff" stroke-width="1"/>
<circle cx="351.0" cy="353.6" r="4" fill="#9aa5b1" fill-opacity="0.6" stroke="#ffffff" stroke-width="1"/>
<circle cx="632.5" cy="347.9" r="4" fill="#9aa5b1" fill-opacity="0.6" stroke="#ffffff" stroke-width="1"/>
<circle cx="481.6" cy="344.1" r="4" fill="#9aa5b1" fill-opacity="0.6" stroke="#ffffff" stroke-width="1"/>
<circle cx="519.0" cy="343.6" r="4" fill="#9aa5b1" fill-opacity="0.6" stroke="#ffffff" stroke-width="1"/>
<circle cx="502.6" cy="339.3" r="4" fill="#9aa5b1" fill-opacity="0.6" stroke="#ffffff" stroke-width="1"/>
<circle cx="633.0" cy="339.0" r="4" fill="#9aa5b1" fill-opacity="0.6" stroke="#ffffff" stroke-width="1"/>
<circle cx="541.1" cy="337.8" r="4" fill="#9aa5b1" fill-opacity="0.6" stroke="#ffffff" stroke-width="1"/>
<circle cx="548.2" cy="335.5" r="4" fill="#9aa5b1" fill-opacity="0.6" stroke="#ffffff" stroke-width="1"/>
<circle cx="513.2" cy="331.0" r="4" fill="#9aa5b1" fill-opacity="0.6" stroke="#ffffff" stroke-width="1"/>
<circle cx="374.6" cy="327.5" r="4" fill="#9aa5b1" fill-opacity="0.6" stroke="#ffffff" stroke-width="1"/>
<circle cx="427.7" cy="324.5" r="4" fill="#9aa5b1" fill-opacity="0.6" stroke="#ffffff" stroke-width="1"/>
<circle cx="481.9" cy="315.3" r="4" fill="#9aa5b1" fill-opacity="0.6" stroke="#ffffff" stroke-width="1"/>
<circle cx="474.9" cy="305.9" r="4" fill="#9aa5b1" fill-opacity="0.6" stroke="#ffffff" stroke-width="1"/>
<circle cx="471.9" cy="305.3" r="4" fill="#9aa5b1" fill-opacity="0.6" stroke="#ffffff" stroke-width="1"/>
<circle cx="822.5" cy="289.9" r="4" fill="#9aa5b1" fill-opacity="0.6" stroke="#ffffff" stroke-width="1"/>
<circle cx="420.6" cy="285.4" r="4" fill="#9aa5b1" fill-opacity="0.6" stroke="#ffffff" stroke-width="1"/>
<circle cx="461.6" cy="267.9" r="5.5" fill="#2a78d6" fill-opacity="0.95" stroke="#ffffff" stroke-width="1"/>
<circle cx="386.6" cy="260.4" r="5.5" fill="#2a78d6" fill-opacity="0.95" stroke="#ffffff" stroke-width="1"/>
<circle cx="511.3" cy="229.2" r="5.5" fill="#2a78d6" fill-opacity="0.95" stroke="#ffffff" stroke-width="1"/>
<circle cx="402.2" cy="228.4" r="5.5" fill="#2a78d6" fill-opacity="0.95" stroke="#ffffff" stroke-width="1"/>
<circle cx="447.0" cy="220.8" r="5.5" fill="#2a78d6" fill-opacity="0.95" stroke="#ffffff" stroke-width="1"/>
<circle cx="569.0" cy="217.1" r="5.5" fill="#2a78d6" fill-opacity="0.95" stroke="#ffffff" stroke-width="1"/>
<circle cx="535.0" cy="215.3" r="5.5" fill="#2a78d6" fill-opacity="0.95" stroke="#ffffff" stroke-width="1"/>
<circle cx="448.1" cy="200.7" r="5.5" fill="#2a78d6" fill-opacity="0.95" stroke="#ffffff" stroke-width="1"/>
<circle cx="523.1" cy="198.0" r="5.5" fill="#2a78d6" fill-opacity="0.95" stroke="#ffffff" stroke-width="1"/>
<circle cx="537.9" cy="189.2" r="5.5" fill="#2a78d6" fill-opacity="0.95" stroke="#ffffff" stroke-width="1"/>
<circle cx="498.4" cy="175.0" r="5.5" fill="#2a78d6" fill-opacity="0.95" stroke="#ffffff" stroke-width="1"/>
<circle cx="464.2" cy="172.2" r="5.5" fill="#2a78d6" fill-opacity="0.95" stroke="#ffffff" stroke-width="1"/>
<text x="455.2" y="176.2" text-anchor="end" font-size="10.5" font-weight="600" fill="#1f2933" stroke="#ffffff" stroke-width="3" paint-order="stroke">Live TV</text>
<text x="504.9" y="168.6" text-anchor="start" font-size="10.5" font-weight="600" fill="#1f2933" stroke="#ffffff" stroke-width="3" paint-order="stroke">MovieArk</text>
<text x="546.9" y="193.2" text-anchor="start" font-size="10.5" font-weight="600" fill="#1f2933" stroke="#ffffff" stroke-width="3" paint-order="stroke">The Roku Channel</text>
<line x1="523.1" y1="198.0" x2="497.3" y2="230.8" stroke="#5f6b76" stroke-width="0.8"/>
<text x="494.3" y="234.8" text-anchor="end" font-size="10.5" font-weight="600" fill="#1f2933" stroke="#ffffff" stroke-width="3" paint-order="stroke">TCL CHANNEL</text>
<text x="439.1" y="204.7" text-anchor="end" font-size="10.5" font-weight="600" fill="#1f2933" stroke="#ffffff" stroke-width="3" paint-order="stroke">(App Name vacío)</text>
<text x="535.0" y="234.3" text-anchor="middle" font-size="10.5" font-weight="600" fill="#1f2933" stroke="#ffffff" stroke-width="3" paint-order="stroke">Tubi</text>
<text x="578.0" y="221.1" text-anchor="start" font-size="10.5" font-weight="600" fill="#1f2933" stroke="#ffffff" stroke-width="3" paint-order="stroke">BrowseHere</text>
<line x1="447.0" y1="220.8" x2="472.8" y2="253.6" stroke="#5f6b76" stroke-width="0.8"/>
<text x="475.8" y="257.6" text-anchor="start" font-size="10.5" font-weight="600" fill="#1f2933" stroke="#ffffff" stroke-width="3" paint-order="stroke">ViX Deportes y Noticias</text>
<text x="393.2" y="232.4" text-anchor="end" font-size="10.5" font-weight="600" fill="#1f2933" stroke="#ffffff" stroke-width="3" paint-order="stroke">ViX Sports and News</text>
<line x1="511.3" y1="229.2" x2="485.5" y2="262.0" stroke="#5f6b76" stroke-width="0.8"/>
<text x="482.5" y="266.0" text-anchor="end" font-size="10.5" font-weight="600" fill="#1f2933" stroke="#ffffff" stroke-width="3" paint-order="stroke">Coolita Channel</text>
<text x="377.6" y="264.4" text-anchor="end" font-size="10.5" font-weight="600" fill="#1f2933" stroke="#ffffff" stroke-width="3" paint-order="stroke">Vidaa</text>
<text x="461.6" y="286.9" text-anchor="middle" font-size="10.5" font-weight="600" fill="#1f2933" stroke="#ffffff" stroke-width="3" paint-order="stroke">WhaleLive</text>
<text x="411.6" y="289.4" text-anchor="end" font-size="10.5" font-weight="600" fill="#1f2933" stroke="#ffffff" stroke-width="3" paint-order="stroke">ViX: Cine y TV Gratis en E</text>
<text x="813.5" y="293.9" text-anchor="end" font-size="10.5" font-weight="600" fill="#1f2933" stroke="#ffffff" stroke-width="3" paint-order="stroke">Tubi - Free Movies &amp; TV</text>
<text x="480.9" y="309.3" text-anchor="start" font-size="10.5" font-weight="600" fill="#1f2933" stroke="#ffffff" stroke-width="3" paint-order="stroke">TV Azteca En Vivo</text>
</svg>