<svg xmlns="http://www.w3.org/2000/svg" width="2188" height="336" viewBox="0 0 2188 336" font-family="Arial, sans-serif">
<rect width="2188" height="336" fill="white"/>
<rect x="10" y="10" width="712" height="26" fill="#efefef"/>
<rect x="10" y="10" width="712" height="26" fill="none" stroke="#b7b7b7" stroke-width="1"/>
<text x="366.0" y="27.333333333333332" font-size="13" text-anchor="middle" font-weight="bold">MX</text>
<rect x="10" y="36" width="158" height="26" fill="#f7f7f7"/>
<rect x="10" y="36" width="158" height="26" fill="none" stroke="#b7b7b7" stroke-width="1"/>
<text x="16" y="53.0" font-size="12" text-anchor="start" font-weight="bold">Columna</text>
<rect x="168" y="36" width="84" height="26" fill="#f7f7f7"/>
<rect x="168" y="36" width="84" height="26" fill="none" stroke="#b7b7b7" stroke-width="1"/>
<text x="174" y="53.0" font-size="12" text-anchor="start" font-weight="bold">No vacías</text>
<rect x="252" y="36" width="470" height="26" fill="#f7f7f7"/>
<rect x="252" y="36" width="470" height="26" fill="none" stroke="#b7b7b7" stroke-width="1"/>
<text x="258" y="53.0" font-size="12" text-anchor="start" font-weight="bold">Top valores (% filas del país)</text>
<rect x="10" y="62" width="158" height="24" fill="none" stroke="#b7b7b7" stroke-width="1"/>
<text x="16" y="77.83333333333333" font-size="11.5" text-anchor="start">Publisher</text>
<rect x="168" y="62" width="84" height="24" fill="#d9ead3"/>
<rect x="168" y="62" width="84" height="24" fill="none" stroke="#b7b7b7" stroke-width="1"/>
<text x="246" y="77.83333333333333" font-size="11.5" text-anchor="end">100.00%</text>
<rect x="252" y="62" width="470" height="24" fill="none" stroke="#b7b7b7" stroke-width="1"/>
<text x="258" y="77.66666666666667" font-size="11" text-anchor="start">iion 45.1%, TCL Springserve 11.8%, TCL APAC 9.1%, OTTera 6.0%</text>
<rect x="10" y="86" width="158" height="24" fill="none" stroke="#b7b7b7" stroke-width="1"/>
<text x="16" y="101.83333333333333" font-size="11.5" text-anchor="start">App Name</text>
<rect x="168" y="86" width="84" height="24" fill="#d9ead3"/>
<rect x="168" y="86" width="84" height="24" fill="none" stroke="#b7b7b7" stroke-width="1"/>
<text x="246" y="101.83333333333333" font-size="11.5" text-anchor="end">95.37%</text>
<rect x="252" y="86" width="470" height="24" fill="none" stroke="#b7b7b7" stroke-width="1"/>
<text x="258" y="101.66666666666667" font-size="11" text-anchor="start">MovieArk 47.2%, Live TV 24.8%, ViX: TV, Deportes y Notic… 5.2%, N/A 4.6%</text>
<rect x="10" y="110" width="158" height="24" fill="none" stroke="#b7b7b7" stroke-width="1"/>
<text x="16" y="125.83333333333333" font-size="11.5" text-anchor="start">contentTitle</text>
<rect x="168" y="110" width="84" height="24" fill="#d9ead3"/>
<rect x="168" y="110" width="84" height="24" fill="none" stroke="#b7b7b7" stroke-width="1"/>
<text x="246" y="125.83333333333333" font-size="11.5" text-anchor="end">95.28%</text>
<rect x="252" y="110" width="470" height="24" fill="none" stroke="#b7b7b7" stroke-width="1"/>
<text x="258" y="125.66666666666667" font-size="11" text-anchor="start">N/A 4.7%, {{content_title}} 0.3%, las estrellas 0.3%, golden 0.2%</text>
<rect x="10" y="134" width="158" height="24" fill="none" stroke="#b7b7b7" stroke-width="1"/>
<text x="16" y="149.83333333333334" font-size="11.5" text-anchor="start">contentGenre</text>
<rect x="168" y="134" width="84" height="24" fill="#fff2cc"/>
<rect x="168" y="134" width="84" height="24" fill="none" stroke="#b7b7b7" stroke-width="1"/>
<text x="246" y="149.83333333333334" font-size="11.5" text-anchor="end">85.70%</text>
<rect x="252" y="134" width="470" height="24" fill="none" stroke="#b7b7b7" stroke-width="1"/>
<text x="258" y="149.66666666666666" font-size="11" text-anchor="start">N/A 14.3%, Drama 14.0%, Horror 5.7%, drama 5.4%</text>
<rect x="10" y="158" width="158" height="24" fill="none" stroke="#b7b7b7" stroke-width="1"/>
<text x="16" y="173.83333333333334" font-size="11.5" text-anchor="start">contentSeries</text>
<rect x="168" y="158" width="84" height="24" fill="#f4cccc"/>
<rect x="168" y="158" width="84" height="24" fill="none" stroke="#b7b7b7" stroke-width="1"/>
<text x="246" y="173.83333333333334" font-size="11.5" text-anchor="end">3.74%</text>
<rect x="252" y="158" width="470" height="24" fill="none" stroke="#b7b7b7" stroke-width="1"/>
<text x="258" y="173.66666666666666" font-size="11" text-anchor="start">N/A 95.6%, md5-vacío 0.7%, VOD 0.5%, {{CONTENT_SERIES}} 0.2%</text>
<rect x="10" y="182" width="158" height="24" fill="none" stroke="#b7b7b7" stroke-width="1"/>
<text x="16" y="197.83333333333334" font-size="11.5" text-anchor="start">contentLanguage</text>
<rect x="168" y="182" width="84" height="24" fill="#f4cccc"/>
<rect x="168" y="182" width="84" height="24" fill="none" stroke="#b7b7b7" stroke-width="1"/>
<text x="246" y="197.83333333333334" font-size="11.5" text-anchor="end">0.00%</text>
<rect x="252" y="182" width="470" height="24" fill="none" stroke="#b7b7b7" stroke-width="1"/>
<text x="258" y="197.66666666666666" font-size="11" text-anchor="start">N/A 99.4%, Unknown 0.6%</text>
<rect x="10" y="206" width="158" height="24" fill="none" stroke="#b7b7b7" stroke-width="1"/>
<text x="16" y="221.83333333333334" font-size="11.5" text-anchor="start">contentCategory</text>
<rect x="168" y="206" width="84" height="24" fill="#f4cccc"/>
<rect x="168" y="206" width="84" height="24" fill="none" stroke="#b7b7b7" stroke-width="1"/>
<text x="246" y="221.83333333333334" font-size="11.5" text-anchor="end">10.47%</text>
<rect x="252" y="206" width="470" height="24" fill="none" stroke="#b7b7b7" stroke-width="1"/>
<text x="258" y="221.66666666666666" font-size="11" text-anchor="start">[-7] 89.5%, [IAB1-5] 2.5%, [IAB1, IAB1-5] 1.7%, [IAB1] 1.5%</text>
<rect x="10" y="230" width="158" height="24" fill="none" stroke="#b7b7b7" stroke-width="1"/>
<text x="16" y="245.83333333333334" font-size="11.5" text-anchor="start">contentRating</text>
<rect x="168" y="230" width="84" height="24" fill="#fce5cd"/>
<rect x="168" y="230" width="84" height="24" fill="none" stroke="#b7b7b7" stroke-width="1"/>
<text x="246" y="245.83333333333334" font-size="11.5" text-anchor="end">47.98%</text>
<rect x="252" y="230" width="470" height="24" fill="none" stroke="#b7b7b7" stroke-width="1"/>
<text x="258" y="245.66666666666666" font-size="11" text-anchor="start">N/A 52.0%, Adults 6.8%, Teen Plus 6.1%, tv-14 5.8%</text>
<rect x="10" y="254" width="158" height="24" fill="none" stroke="#b7b7b7" stroke-width="1"/>
<text x="16" y="269.8333333333333" font-size="11.5" text-anchor="start">contentLength</text>
<rect x="168" y="254" width="84" height="24" fill="#f4cccc"/>
<rect x="168" y="254" width="84" height="24" fill="none" stroke="#b7b7b7" stroke-width="1"/>
<text x="246" y="269.8333333333333" font-size="11.5" text-anchor="end">11.59%</text>
<rect x="252" y="254" width="470" height="24" fill="none" stroke="#b7b7b7" stroke-width="1"/>
<text x="258" y="269.6666666666667" font-size="11" text-anchor="start">N/A 88.4%, 8 6.3%, 6 1.7%, 4 1.6%</text>
<rect x="10" y="278" width="158" height="24" fill="none" stroke="#b7b7b7" stroke-width="1"/>
<text x="16" y="293.8333333333333" font-size="11.5" text-anchor="start">contentIsLiveStream</text>
<rect x="168" y="278" width="84" height="24" fill="#f4cccc"/>
<rect x="168" y="278" width="84" height="24" fill="none" stroke="#b7b7b7" stroke-width="1"/>
<text x="246" y="293.8333333333333" font-size="11.5" text-anchor="end">14.19%</text>
<rect x="252" y="278" width="470" height="24" fill="none" stroke="#b7b7b7" stroke-width="1"/>
<text x="258" y="293.6666666666667" font-size="11" text-anchor="start">N/A 56.2%, Unknown 29.6%, 1 14.2%</text>
<rect x="10" y="302" width="158" height="24" fill="none" stroke="#b7b7b7" stroke-width="1"/>
<text x="16" y="317.8333333333333" font-size="11.5" text-anchor="start">contentIsTitlePresent</text>
<rect x="168" y="302" width="84" height="24" fill="#d9ead3"/>
<rect x="168" y="302" width="84" height="24" fill="none" stroke="#b7b7b7" stroke-width="1"/>
<text x="246" y="317.8333333333333" font-size="11.5" text-anchor="end">100.00%</text>
<rect x="252" y="302" width="470" height="24" fill="none" stroke="#b7b7b7" stroke-width="1"/>
<text x="258" y="317.6666666666667" font-size="11" text-anchor="start">true 95.3%, false 4.7%</text>
<rect x="738" y="10" width="712" height="26" fill="#efefef"/>
<rect x="738" y="10" width="712" height="26" fill="none" stroke="#b7b7b7" stroke-width="1"/>
<text x="1094.0" y="27.333333333333332" font-size="13" text-anchor="middle" font-weight="bold">CO</text>
<rect x="738" y="36" width="158" height="26" fill="#f7f7f7"/>
<rect x="738" y="36" width="158" height="26" fill="none" stroke="#b7b7b7" stroke-width="1"/>
<text x="744" y="53.0" font-size="12" text-anchor="start" font-weight="bold">Columna</text>
<rect x="896" y="36" width="84" height="26" fill="#f7f7f7"/>
<rect x="896" y="36" width="84" height="26" fill="none" stroke="#b7b7b7" stroke-width="1"/>
<text x="902" y="53.0" font-size="12" text-anchor="start" font-weight="bold">No vacías</text>
<rect x="980" y="36" width="470" height="26" fill="#f7f7f7"/>
<rect x="980" y="36" width="470" height="26" fill="none" stroke="#b7b7b7" stroke-width="1"/>
<text x="986" y="53.0" font-size="12" text-anchor="start" font-weight="bold">Top valores (% filas del país)</text>
<rect x="738" y="62" width="158" height="24" fill="none" stroke="#b7b7b7" stroke-width="1"/>
<text x="744" y="77.83333333333333" font-size="11.5" text-anchor="start">Publisher</text>
<rect x="896" y="62" width="84" height="24" fill="#d9ead3"/>
<rect x="896" y="62" width="84" height="24" fill="none" stroke="#b7b7b7" stroke-width="1"/>
<text x="974" y="77.83333333333333" font-size="11.5" text-anchor="end">100.00%</text>
<rect x="980" y="62" width="470" height="24" fill="none" stroke="#b7b7b7" stroke-width="1"/>
<text x="986" y="77.66666666666667" font-size="11" text-anchor="start">iion 69.2%, Select Plus 7.1%, METAX 6.8%, OTTera 4.1%</text>
<rect x="738" y="86" width="158" height="24" fill="none" stroke="#b7b7b7" stroke-width="1"/>
<text x="744" y="101.83333333333333" font-size="11.5" text-anchor="start">App Name</text>
<rect x="896" y="86" width="84" height="24" fill="#d9ead3"/>
<rect x="896" y="86" width="84" height="24" fill="none" stroke="#b7b7b7" stroke-width="1"/>
<text x="974" y="101.83333333333333" font-size="11.5" text-anchor="end">99.21%</text>
<rect x="980" y="86" width="470" height="24" fill="none" stroke="#b7b7b7" stroke-width="1"/>
<text x="986" y="101.66666666666667" font-size="11" text-anchor="start">MovieArk 44.5%, Live TV 33.1%, TCL CHANNEL 9.6%, BrowseHere 5.6%</text>
<rect x="738" y="110" width="158" height="24" fill="none" stroke="#b7b7b7" stroke-width="1"/>
<text x="744" y="125.83333333333333" font-size="11.5" text-anchor="start">contentTitle</text>
<rect x="896" y="110" width="84" height="24" fill="#d9ead3"/>
<rect x="896" y="110" width="84" height="24" fill="none" stroke="#b7b7b7" stroke-width="1"/>
<text x="974" y="125.83333333333333" font-size="11.5" text-anchor="end">98.06%</text>
<rect x="980" y="110" width="470" height="24" fill="none" stroke="#b7b7b7" stroke-width="1"/>
<text x="986" y="125.66666666666667" font-size="11" text-anchor="start">N/A 1.9%, {{content_title}} 0.3%, hatchback 0.2%, the baddest bad boy 0.2%</text>
<rect x="738" y="134" width="158" height="24" fill="none" stroke="#b7b7b7" stroke-width="1"/>
<text x="744" y="149.83333333333334" font-size="11.5" text-anchor="start">contentGenre</text>
<rect x="896" y="134" width="84" height="24" fill="#d9ead3"/>
<rect x="896" y="134" width="84" height="24" fill="none" stroke="#b7b7b7" stroke-width="1"/>
<text x="974" y="149.83333333333334" font-size="11.5" text-anchor="end">90.42%</text>
<rect x="980" y="134" width="470" height="24" fill="none" stroke="#b7b7b7" stroke-width="1"/>
<text x="986" y="149.66666666666666" font-size="11" text-anchor="start">Drama 13.7%, N/A 9.6%, Horror 6.0%, drama 4.4%</text>
<rect x="738" y="158" width="158" height="24" fill="none" stroke="#b7b7b7" stroke-width="1"/>
<text x="744" y="173.83333333333334" font-size="11.5" text-anchor="start">contentSeries</text>
<rect x="896" y="158" width="84" height="24" fill="#f4cccc"/>
<rect x="896" y="158" width="84" height="24" fill="none" stroke="#b7b7b7" stroke-width="1"/>
<text x="974" y="173.83333333333334" font-size="11.5" text-anchor="end">3.59%</text>
<rect x="980" y="158" width="470" height="24" fill="none" stroke="#b7b7b7" stroke-width="1"/>
<text x="986" y="173.66666666666666" font-size="11" text-anchor="start">N/A 96.4%, VOD 1.0%, {{CONTENT_SERIES}} 0.2%, Esmeraldas 0.1%</text>
<rect x="738" y="182" width="158" height="24" fill="none" stroke="#b7b7b7" stroke-width="1"/>
<text x="744" y="197.83333333333334" font-size="11.5" text-anchor="start">contentLanguage</text>
<rect x="896" y="182" width="84" height="24" fill="#f4cccc"/>
<rect x="896" y="182" width="84" height="24" fill="none" stroke="#b7b7b7" stroke-width="1"/>
<text x="974" y="197.83333333333334" font-size="11.5" text-anchor="end">0.00%</text>
<rect x="980" y="182" width="470" height="24" fill="none" stroke="#b7b7b7" stroke-width="1"/>
<text x="986" y="197.66666666666666" font-size="11" text-anchor="start">N/A 100.0%</text>
<rect x="738" y="206" width="158" height="24" fill="none" stroke="#b7b7b7" stroke-width="1"/>
<text x="744" y="221.83333333333334" font-size="11.5" text-anchor="start">contentCategory</text>
<rect x="896" y="206" width="84" height="24" fill="#f4cccc"/>
<rect x="896" y="206" width="84" height="24" fill="none" stroke="#b7b7b7" stroke-width="1"/>
<text x="974" y="221.83333333333334" font-size="11.5" text-anchor="end">9.08%</text>
<rect x="980" y="206" width="470" height="24" fill="none" stroke="#b7b7b7" stroke-width="1"/>
<text x="986" y="221.66666666666666" font-size="11" text-anchor="start">[-7] 90.9%, [IAB1] 2.3%, [IAB1, IAB1-5] 2.1%, [IAB1, IAB1-5, IAB1-7] 0.8%</text>
<rect x="738" y="230" width="158" height="24" fill="none" stroke="#b7b7b7" stroke-width="1"/>
<text x="744" y="245.83333333333334" font-size="11.5" text-anchor="start">contentRating</text>
<rect x="896" y="230" width="84" height="24" fill="#fce5cd"/>
<rect x="896" y="230" width="84" height="24" fill="none" stroke="#b7b7b7" stroke-width="1"/>
<text x="974" y="245.83333333333334" font-size="11.5" text-anchor="end">52.94%</text>
<rect x="980" y="230" width="470" height="24" fill="none" stroke="#b7b7b7" stroke-width="1"/>
<text x="986" y="245.66666666666666" font-size="11" text-anchor="start">N/A 47.0%, Adults 7.1%, r 6.0%, Teen Plus 4.8%</text>
<rect x="738" y="254" width="158" height="24" fill="none" stroke="#b7b7b7" stroke-width="1"/>
<text x="744" y="269.8333333333333" font-size="11.5" text-anchor="start">contentLength</text>
<rect x="896" y="254" width="84" height="24" fill="#f4cccc"/>
<rect x="896" y="254" width="84" height="24" fill="none" stroke="#b7b7b7" stroke-width="1"/>
<text x="974" y="269.8333333333333" font-size="11.5" text-anchor="end">5.60%</text>
<rect x="980" y="254" width="470" height="24" fill="none" stroke="#b7b7b7" stroke-width="1"/>
<text x="986" y="269.6666666666667" font-size="11" text-anchor="start">N/A 94.4%, 4 3.2%, 5 0.9%, 6 0.8%</text>
<rect x="738" y="278" width="158" height="24" fill="none" stroke="#b7b7b7" stroke-width="1"/>
<text x="744" y="293.8333333333333" font-size="11.5" text-anchor="start">contentIsLiveStream</text>
<rect x="896" y="278" width="84" height="24" fill="#f4cccc"/>
<rect x="896" y="278" width="84" height="24" fill="none" stroke="#b7b7b7" stroke-width="1"/>
<text x="974" y="293.8333333333333" font-size="11.5" text-anchor="end">11.51%</text>
<rect x="980" y="278" width="470" height="24" fill="none" stroke="#b7b7b7" stroke-width="1"/>
<text x="986" y="293.6666666666667" font-size="11" text-anchor="start">N/A 46.7%, Unknown 41.8%, 1 11.5%</text>
<rect x="738" y="302" width="158" height="24" fill="none" stroke="#b7b7b7" stroke-width="1"/>
<text x="744" y="317.8333333333333" font-size="11.5" text-anchor="start">contentIsTitlePresent</text>
<rect x="896" y="302" width="84" height="24" fill="#d9ead3"/>
<rect x="896" y="302" width="84" height="24" fill="none" stroke="#b7b7b7" stroke-width="1"/>
<text x="974" y="317.8333333333333" font-size="11.5" text-anchor="end">100.00%</text>
<rect x="980" y="302" width="470" height="24" fill="none" stroke="#b7b7b7" stroke-width="1"/>
<text x="986" y="317.6666666666667" font-size="11" text-anchor="start">true 98.1%, false 1.9%</text>
<rect x="1466" y="10" width="712" height="26" fill="#efefef"/>
<rect x="1466" y="10" width="712" height="26" fill="none" stroke="#b7b7b7" stroke-width="1"/>
<text x="1822.0" y="27.333333333333332" font-size="13" text-anchor="middle" font-weight="bold">CL</text>
<rect x="1466" y="36" width="158" height="26" fill="#f7f7f7"/>
<rect x="1466" y="36" width="158" height="26" fill="none" stroke="#b7b7b7" stroke-width="1"/>
<text x="1472" y="53.0" font-size="12" text-anchor="start" font-weight="bold">Columna</text>
<rect x="1624" y="36" width="84" height="26" fill="#f7f7f7"/>
<rect x="1624" y="36" width="84" height="26" fill="none" stroke="#b7b7b7" stroke-width="1"/>
<text x="1630" y="53.0" font-size="12" text-anchor="start" font-weight="bold">No vacías</text>
<rect x="1708" y="36" width="470" height="26" fill="#f7f7f7"/>
<rect x="1708" y="36" width="470" height="26" fill="none" stroke="#b7b7b7" stroke-width="1"/>
<text x="1714" y="53.0" font-size="12" text-anchor="start" font-weight="bold">Top valores (% filas del país)</text>
<rect x="1466" y="62" width="158" height="24" fill="none" stroke="#b7b7b7" stroke-width="1"/>
<text x="1472" y="77.83333333333333" font-size="11.5" text-anchor="start">Publisher</text>
<rect x="1624" y="62" width="84" height="24" fill="#d9ead3"/>
<rect x="1624" y="62" width="84" height="24" fill="none" stroke="#b7b7b7" stroke-width="1"/>
<text x="1702" y="77.83333333333333" font-size="11.5" text-anchor="end">100.00%</text>
<rect x="1708" y="62" width="470" height="24" fill="none" stroke="#b7b7b7" stroke-width="1"/>
<text x="1714" y="77.66666666666667" font-size="11" text-anchor="start">iion 62.9%, TCL Springserve 8.9%, OTTera 5.5%, PML Digital 4.7%</text>
<rect x="1466" y="86" width="158" height="24" fill="none" stroke="#b7b7b7" stroke-width="1"/>
<text x="1472" y="101.83333333333333" font-size="11.5" text-anchor="start">App Name</text>
<rect x="1624" y="86" width="84" height="24" fill="#d9ead3"/>
<rect x="1624" y="86" width="84" height="24" fill="none" stroke="#b7b7b7" stroke-width="1"/>
<text x="1702" y="101.83333333333333" font-size="11.5" text-anchor="end">99.17%</text>
<rect x="1708" y="86" width="470" height="24" fill="none" stroke="#b7b7b7" stroke-width="1"/>
<text x="1714" y="101.66666666666667" font-size="11" text-anchor="start">MovieArk 54.8%, Live TV 35.5%, Coolita Channel 2.9%, BrowseHere 1.9%</text>
<rect x="1466" y="110" width="158" height="24" fill="none" stroke="#b7b7b7" stroke-width="1"/>
<text x="1472" y="125.83333333333333" font-size="11.5" text-anchor="start">contentTitle</text>
<rect x="1624" y="110" width="84" height="24" fill="#d9ead3"/>
<rect x="1624" y="110" width="84" height="24" fill="none" stroke="#b7b7b7" stroke-width="1"/>
<text x="1702" y="125.83333333333333" font-size="11.5" text-anchor="end">98.41%</text>
<rect x="1708" y="110" width="470" height="24" fill="none" stroke="#b7b7b7" stroke-width="1"/>
<text x="1714" y="125.66666666666667" font-size="11" text-anchor="start">N/A 1.6%, catalunya �ber alles! 0.3%, hatchback 0.2%, {{content_title}} 0.2%</text>
<rect x="1466" y="134" width="158" height="24" fill="none" stroke="#b7b7b7" stroke-width="1"/>
<text x="1472" y="149.83333333333334" font-size="11.5" text-anchor="start">contentGenre</text>
<rect x="1624" y="134" width="84" height="24" fill="#d9ead3"/>
<rect x="1624" y="134" width="84" height="24" fill="none" stroke="#b7b7b7" stroke-width="1"/>
<text x="1702" y="149.83333333333334" font-size="11.5" text-anchor="end">91.58%</text>
<rect x="1708" y="134" width="470" height="24" fill="none" stroke="#b7b7b7" stroke-width="1"/>
<text x="1714" y="149.66666666666666" font-size="11" text-anchor="start">Drama 14.8%, N/A 8.4%, Horror 6.7%, drama 3.9%</text>
<rect x="1466" y="158" width="158" height="24" fill="none" stroke="#b7b7b7" stroke-width="1"/>
<text x="1472" y="173.83333333333334" font-size="11.5" text-anchor="start">contentSeries</text>
<rect x="1624" y="158" width="84" height="24" fill="#f4cccc"/>
<rect x="1624" y="158" width="84" height="24" fill="none" stroke="#b7b7b7" stroke-width="1"/>
<text x="1702" y="173.83333333333334" font-size="11.5" text-anchor="end">3.95%</text>
<rect x="1708" y="158" width="470" height="24" fill="none" stroke="#b7b7b7" stroke-width="1"/>
<text x="1714" y="173.66666666666666" font-size="11" text-anchor="start">N/A 96.0%, VOD 1.0%, {{CONTENT_SERIES}} 0.1%, The Cube USA 0.1%</text>
<rect x="1466" y="182" width="158" height="24" fill="none" stroke="#b7b7b7" stroke-width="1"/>
<text x="1472" y="197.83333333333334" font-size="11.5" text-anchor="start">contentLanguage</text>
<rect x="1624" y="182" width="84" height="24" fill="#f4cccc"/>
<rect x="1624" y="182" width="84" height="24" fill="none" stroke="#b7b7b7" stroke-width="1"/>
<text x="1702" y="197.83333333333334" font-size="11.5" text-anchor="end">0.00%</text>
<rect x="1708" y="182" width="470" height="24" fill="none" stroke="#b7b7b7" stroke-width="1"/>
<text x="1714" y="197.66666666666666" font-size="11" text-anchor="start">N/A 100.0%, Unknown 0.0%</text>
<rect x="1466" y="206" width="158" height="24" fill="none" stroke="#b7b7b7" stroke-width="1"/>
<text x="1472" y="221.83333333333334" font-size="11.5" text-anchor="start">contentCategory</text>
<rect x="1624" y="206" width="84" height="24" fill="#f4cccc"/>
<rect x="1624" y="206" width="84" height="24" fill="none" stroke="#b7b7b7" stroke-width="1"/>
<text x="1702" y="221.83333333333334" font-size="11.5" text-anchor="end">9.14%</text>
<rect x="1708" y="206" width="470" height="24" fill="none" stroke="#b7b7b7" stroke-width="1"/>
<text x="1714" y="221.66666666666666" font-size="11" text-anchor="start">[-7] 90.9%, [IAB1] 3.4%, [IAB1, IAB1-5] 1.2%, [IAB17] 0.7%</text>
<rect x="1466" y="230" width="158" height="24" fill="none" stroke="#b7b7b7" stroke-width="1"/>
<text x="1472" y="245.83333333333334" font-size="11.5" text-anchor="start">contentRating</text>
<rect x="1624" y="230" width="84" height="24" fill="#fce5cd"/>
<rect x="1624" y="230" width="84" height="24" fill="none" stroke="#b7b7b7" stroke-width="1"/>
<text x="1702" y="245.83333333333334" font-size="11.5" text-anchor="end">51.27%</text>
<rect x="1708" y="230" width="470" height="24" fill="none" stroke="#b7b7b7" stroke-width="1"/>
<text x="1714" y="245.66666666666666" font-size="11" text-anchor="start">N/A 48.7%, Adults 7.4%, tv-ma 6.9%, r 5.7%</text>
<rect x="1466" y="254" width="158" height="24" fill="none" stroke="#b7b7b7" stroke-width="1"/>
<text x="1472" y="269.8333333333333" font-size="11.5" text-anchor="start">contentLength</text>
<rect x="1624" y="254" width="84" height="24" fill="#f4cccc"/>
<rect x="1624" y="254" width="84" height="24" fill="none" stroke="#b7b7b7" stroke-width="1"/>
<text x="1702" y="269.8333333333333" font-size="11.5" text-anchor="end">6.03%</text>
<rect x="1708" y="254" width="470" height="24" fill="none" stroke="#b7b7b7" stroke-width="1"/>
<text x="1714" y="269.6666666666667" font-size="11" text-anchor="start">N/A 94.0%, 4 3.1%, 5 1.2%, 6 0.7%</text>
<rect x="1466" y="278" width="158" height="24" fill="none" stroke="#b7b7b7" stroke-width="1"/>
<text x="1472" y="293.8333333333333" font-size="11.5" text-anchor="start">contentIsLiveStream</text>
<rect x="1624" y="278" width="84" height="24" fill="#f4cccc"/>
<rect x="1624" y="278" width="84" height="24" fill="none" stroke="#b7b7b7" stroke-width="1"/>
<text x="1702" y="293.8333333333333" font-size="11.5" text-anchor="end">7.72%</text>
<rect x="1708" y="278" width="470" height="24" fill="none" stroke="#b7b7b7" stroke-width="1"/>
<text x="1714" y="293.6666666666667" font-size="11" text-anchor="start">N/A 50.7%, Unknown 41.6%, 1 7.7%</text>
<rect x="1466" y="302" width="158" height="24" fill="none" stroke="#b7b7b7" stroke-width="1"/>
<text x="1472" y="317.8333333333333" font-size="11.5" text-anchor="start">contentIsTitlePresent</text>
<rect x="1624" y="302" width="84" height="24" fill="#d9ead3"/>
<rect x="1624" y="302" width="84" height="24" fill="none" stroke="#b7b7b7" stroke-width="1"/>
<text x="1702" y="317.8333333333333" font-size="11.5" text-anchor="end">100.00%</text>
<rect x="1708" y="302" width="470" height="24" fill="none" stroke="#b7b7b7" stroke-width="1"/>
<text x="1714" y="317.6666666666667" font-size="11" text-anchor="start">true 98.4%, false 1.6%</text>
</svg>