<svg xmlns="http://www.w3.org/2000/svg" width="900" height="540" viewBox="0 0 900 540" font-family="Segoe UI, Helvetica, Arial, sans-serif" font-size="12">
<rect width="900" height="540" fill="#ffffff"/>
<text x="16" y="24" font-size="17" font-weight="700" fill="#1f2933">Canales: eCPM ponderado vs requests totales</text>
<text x="16" y="44" font-size="12" fill="#5f6b76">Un punto por canal (Publisher o App Name que lo nombra). x = eCPM ponderado de sus filas con eCPM &gt; 0 (punto hueco en $0: canal sin</text>
<text x="16" y="60" font-size="12" fill="#5f6b76">ninguna fila vendida); y = requests totales del canal en escala logarítmica. Junto al punto, requests y % vendidos.</text>
<line x1="84" y1="470.0" x2="860" y2="470.0" stroke="#e3e7ea"/>
<text x="78" y="474.0" text-anchor="end" font-size="10.5" fill="#5f6b76">1</text>
<line x1="84" y1="436.5" x2="860" y2="436.5" stroke="#e3e7ea"/>
<text x="78" y="440.5" text-anchor="end" font-size="10.5" fill="#5f6b76">10</text>
<line x1="84" y1="403.0" x2="860" y2="403.0" stroke="#e3e7ea"/>
<text x="78" y="407.0" text-anchor="end" font-size="10.5" fill="#5f6b76">100</text>
<line x1="84" y1="369.5" x2="860" y2="369.5" stroke="#e3e7ea"/>
<text x="78" y="373.5" text-anchor="end" font-size="10.5" fill="#5f6b76">1,000</text>
<line x1="84" y1="335.9" x2="860" y2="335.9" stroke="#e3e7ea"/>
<text x="78" y="339.9" text-anchor="end" font-size="10.5" fill="#5f6b76">10,000</text>
<line x1="84" y1="302.4" x2="860" y2="302.4" stroke="#e3e7ea"/>
<text x="78" y="306.4" text-anchor="end" font-size="10.5" fill="#5f6b76">100,000</text>
<line x1="84" y1="268.9" x2="860" y2="268.9" stroke="#e3e7ea"/>
<text x="78" y="272.9" text-anchor="end" font-size="10.5" fill="#5f6b76">1 M</text>
<line x1="84" y1="235.4" x2="860" y2="235.4" stroke="#e3e7ea"/>
<text x="78" y="239.4" text-anchor="end" font-size="10.5" fill="#5f6b76">10 M</text>
<line x1="84" y1="201.9" x2="860" y2="201.9" stroke="#e3e7ea"/>
<text x="78" y="205.9" text-anchor="end" font-size="10.5" fill="#5f6b76">100 M</text>
<line x1="84" y1="168.4" x2="860" y2="168.4" stroke="#e3e7ea"/>
<text x="78" y="172.4" text-anchor="end" font-size="10.5" fill="#5f6b76">1,000 M</text>
<line x1="84" y1="134.9" x2="860" y2="134.9" stroke="#e3e7ea"/>
<text x="78" y="138.9" text-anchor="end" font-size="10.5" fill="#5f6b76">10,000 M</text>
<line x1="84" y1="101.4" x2="860" y2="101.4" stroke="#e3e7ea"/>
<text x="78" y="105.4" text-anchor="end" font-size="10.5" fill="#5f6b76">100,000 M</text>
<line x1="107.3" y1="86" x2="107.3" y2="470" stroke="#e3e7ea"/>
<text x="107.3" y="488" text-anchor="middle" font-size="10.5" fill="#5f6b76">$0</text>
<line x1="225.0" y1="86" x2="225.0" y2="470" stroke="#e3e7ea"/>
<text x="225.0" y="488" text-anchor="middle" font-size="10.5" fill="#5f6b76">$1</text>
<line x1="342.7" y1="86" x2="342.7" y2="470" stroke="#e3e7ea"/>
<text x="342.7" y="488" text-anchor="middle" font-size="10.5" fill="#5f6b76">$2</text>
<line x1="460.4" y1="86" x2="460.4" y2="470" stroke="#e3e7ea"/>
<text x="460.4" y="488" text-anchor="middle" font-size="10.5" fill="#5f6b76">$3</text>
<line x1="578.1" y1="86" x2="578.1" y2="470" stroke="#e3e7ea"/>
<text x="578.1" y="488" text-anchor="middle" font-size="10.5" fill="#5f6b76">$4</text>
<line x1="695.8" y1="86" x2="695.8" y2="470" stroke="#e3e7ea"/>
<text x="695.8" y="488" text-anchor="middle" font-size="10.5" fill="#5f6b76">$5</text>
<line x1="813.6" y1="86" x2="813.6" y2="470" stroke="#e3e7ea"/>
<text x="813.6" y="488" text-anchor="middle" font-size="10.5" fill="#5f6b76">$6</text>
<text x="472.0" y="510" text-anchor="middle" fill="#1f2933">eCPM ponderado ($)</text>
<text transform="translate(18,278.0) rotate(-90)" text-anchor="middle" fill="#1f2933">requests totales del canal (escala log)</text>
<circle cx="353.3" cy="106.7" r="8" fill="#2a78d6" stroke="#ffffff" stroke-width="2"/>
<text x="365.3" y="104.7" text-anchor="start" font-size="12" font-weight="600" fill="#1f2933">Televisa · $2.09</text>
<text x="365.3" y="118.7" text-anchor="start" font-size="10.5" fill="#5f6b76">69,357,009,562 req · 88% vendidos</text>
<circle cx="715.1" cy="116.7" r="8" fill="#2a78d6" stroke="#ffffff" stroke-width="2"/>
<text x="703.1" y="114.7" text-anchor="end" font-size="12" font-weight="600" fill="#1f2933">TV Azteca · $5.16</text>
<text x="703.1" y="128.7" text-anchor="end" font-size="10.5" fill="#5f6b76">34,870,802,960 req · 94% vendidos</text>
<circle cx="261.4" cy="199.3" r="8" fill="#2a78d6" stroke="#ffffff" stroke-width="2"/>
<text x="249.4" y="197.3" text-anchor="end" font-size="12" font-weight="600" fill="#1f2933">RCN · $1.31</text>
<text x="249.4" y="211.3" text-anchor="end" font-size="10.5" fill="#5f6b76">119,415,040 req · 100% vendidos</text>
<circle cx="107.3" cy="235.0" r="7" fill="#ffffff" stroke="#2a78d6" stroke-width="2.5"/>
<text x="119.3" y="233.0" text-anchor="start" font-size="12" font-weight="600" fill="#1f2933">Canal 13 · sin venta</text>
<text x="119.3" y="247.0" text-anchor="start" font-size="10.5" fill="#5f6b76">10,307,360 req · 0% vendidos</text>
<circle cx="402.5" cy="208.8" r="8" fill="#2a78d6" stroke="#ffffff" stroke-width="2"/>
<text x="414.5" y="206.8" text-anchor="start" font-size="12" font-weight="600" fill="#1f2933">Caracol · $2.51</text>
<text x="414.5" y="220.8" text-anchor="start" font-size="10.5" fill="#5f6b76">62,388,400 req · 98% vendidos</text>
</svg>