<svg xmlns="http://www.w3.org/2000/svg" width="1102" height="800" viewBox="0 0 1102 800" font-family="system-ui,-apple-system,Segoe UI,sans-serif">
<rect width="1102" height="800" fill="#fcfcfb"/>
<text x="16" y="24" font-size="17" font-weight="700" fill="#0b0b0b">Reparto del gasto (eCPM × requests / 1000) entre filas llenas y vacías, por columna</text>
<text x="16" y="44" font-size="12" fill="#52514e">El número del centro es la parte del gasto del grupo que cae en filas donde la columna trae dato útil. Debajo: eCPM ponderado llenas / vacías.</text>
<circle cx="24" cy="60" r="5" fill="#2a78d6"/><text x="34" y="64" font-size="11.5" fill="#0b0b0b">filas llenas</text>
<circle cx="140" cy="60" r="5" fill="#eb6834"/><text x="150" y="64" font-size="11.5" fill="#0b0b0b">filas vacías</text>
<text x="16" y="88" font-size="14" font-weight="600" fill="#0b0b0b">Total consolidado</text>
<path d="M99.0,148 L99.0,104 A44,44 0 1,1 82.32,107.28 Z" fill="#2a78d6" stroke="#fcfcfb" stroke-width="2"/>
<path d="M99.0,148 L82.32,107.28 A44,44 0 0,1 99.0,104 Z" fill="#eb6834" stroke="#fcfcfb" stroke-width="2"/>
<circle cx="99.0" cy="148" r="24.2" fill="#fcfcfb"/>
<text x="99.0" y="152" font-size="12" font-weight="600" text-anchor="middle" fill="#0b0b0b">94%</text>
<text x="99.0" y="208" font-size="11" text-anchor="middle" fill="#0b0b0b">App Name</text>
<text x="99.0" y="222" font-size="10" text-anchor="middle" fill="#52514e">$4.19 / $2.67</text>
<path d="M217.0,148 L217.0,104 A44,44 0 1,1 177.06,129.54 Z" fill="#2a78d6" stroke="#fcfcfb" stroke-width="2"/>
<path d="M217.0,148 L177.06,129.54 A44,44 0 0,1 217.0,104 Z" fill="#eb6834" stroke="#fcfcfb" stroke-width="2"/>
<circle cx="217.0" cy="148" r="24.2" fill="#fcfcfb"/>
<text x="217.0" y="152" font-size="12" font-weight="600" text-anchor="middle" fill="#0b0b0b">82%</text>
<text x="217.0" y="208" font-size="11" text-anchor="middle" fill="#0b0b0b">Genre</text>
<text x="217.0" y="222" font-size="10" text-anchor="middle" fill="#52514e">$4.00 / $4.26</text>
<path d="M335.0,148 L335.0,104 A44,44 0 1,1 301.60,176.64 Z" fill="#2a78d6" stroke="#fcfcfb" stroke-width="2"/>
<path d="M335.0,148 L301.60,176.64 A44,44 0 0,1 335.0,104 Z" fill="#eb6834" stroke="#fcfcfb" stroke-width="2"/>
<circle cx="335.0" cy="148" r="24.2" fill="#fcfcfb"/>
<text x="335.0" y="152" font-size="12" font-weight="600" text-anchor="middle" fill="#0b0b0b">64%</text>
<text x="335.0" y="208" font-size="11" text-anchor="middle" fill="#0b0b0b">Title</text>
<text x="335.0" y="222" font-size="10" text-anchor="middle" fill="#52514e">$4.00 / $4.12</text>
<path d="M453.0,148 L453.0,104 A44,44 0 1,1 410.83,135.45 Z" fill="#2a78d6" stroke="#fcfcfb" stroke-width="2"/>
<path d="M453.0,148 L410.83,135.45 A44,44 0 0,1 453.0,104 Z" fill="#eb6834" stroke="#fcfcfb" stroke-width="2"/>
<circle cx="453.0" cy="148" r="24.2" fill="#fcfcfb"/>
<text x="453.0" y="152" font-size="12" font-weight="600" text-anchor="middle" fill="#0b0b0b">80%</text>
<text x="453.0" y="208" font-size="11" text-anchor="middle" fill="#0b0b0b">Rating</text>
<text x="453.0" y="222" font-size="10" text-anchor="middle" fill="#52514e">$4.26 / $3.38</text>
<path d="M571.0,148 L571.0,104 A44,44 0 1,1 531.17,166.71 Z" fill="#2a78d6" stroke="#fcfcfb" stroke-width="2"/>
<path d="M571.0,148 L531.17,166.71 A44,44 0 0,1 571.0,104 Z" fill="#eb6834" stroke="#fcfcfb" stroke-width="2"/>
<circle cx="571.0" cy="148" r="24.2" fill="#fcfcfb"/>
<text x="571.0" y="152" font-size="12" font-weight="600" text-anchor="middle" fill="#0b0b0b">68%</text>
<text x="571.0" y="208" font-size="11" text-anchor="middle" fill="#0b0b0b">Language</text>
<text x="571.0" y="222" font-size="10" text-anchor="middle" fill="#52514e">$4.15 / $3.85</text>
<path d="M689.0,148 L689.0,104 A44,44 0 0,1 695.36,191.54 Z" fill="#2a78d6" stroke="#fcfcfb" stroke-width="2"/>
<path d="M689.0,148 L695.36,191.54 A44,44 0 1,1 689.0,104 Z" fill="#eb6834" stroke="#fcfcfb" stroke-width="2"/>
<circle cx="689.0" cy="148" r="24.2" fill="#fcfcfb"/>
<text x="689.0" y="152" font-size="12" font-weight="600" text-anchor="middle" fill="#0b0b0b">48%</text>
<text x="689.0" y="208" font-size="11" text-anchor="middle" fill="#0b0b0b">LiveStream</text>
<text x="689.0" y="222" font-size="10" text-anchor="middle" fill="#52514e">$3.97 / $4.12</text>
<path d="M807.0,148 L807.0,104 A44,44 0 0,1 845.60,169.11 Z" fill="#2a78d6" stroke="#fcfcfb" stroke-width="2"/>
<path d="M807.0,148 L845.60,169.11 A44,44 0 1,1 807.0,104 Z" fill="#eb6834" stroke="#fcfcfb" stroke-width="2"/>
<circle cx="807.0" cy="148" r="24.2" fill="#fcfcfb"/>
<text x="807.0" y="152" font-size="12" font-weight="600" text-anchor="middle" fill="#0b0b0b">33%</text>
<text x="807.0" y="208" font-size="11" text-anchor="middle" fill="#0b0b0b">Category</text>
<text x="807.0" y="222" font-size="10" text-anchor="middle" fill="#52514e">$4.30 / $3.93</text>
<path d="M925.0,148 L925.0,104 A44,44 0 0,1 965.35,165.55 Z" fill="#2a78d6" stroke="#fcfcfb" stroke-width="2"/>
<path d="M925.0,148 L965.35,165.55 A44,44 0 1,1 925.0,104 Z" fill="#eb6834" stroke="#fcfcfb" stroke-width="2"/>
<circle cx="925.0" cy="148" r="24.2" fill="#fcfcfb"/>
<text x="925.0" y="152" font-size="12" font-weight="600" text-anchor="middle" fill="#0b0b0b">32%</text>
<text x="925.0" y="208" font-size="11" text-anchor="middle" fill="#0b0b0b">Length</text>
<text x="925.0" y="222" font-size="10" text-anchor="middle" fill="#52514e">$4.48 / $3.87</text>
<path d="M1043.0,148 L1043.0,104 A44,44 0 0,1 1061.24,107.96 Z" fill="#2a78d6" stroke="#fcfcfb" stroke-width="2"/>
<path d="M1043.0,148 L1061.24,107.96 A44,44 0 1,1 1043.0,104 Z" fill="#eb6834" stroke="#fcfcfb" stroke-width="2"/>
<circle cx="1043.0" cy="148" r="24.2" fill="#fcfcfb"/>
<text x="1043.0" y="152" font-size="12" font-weight="600" text-anchor="middle" fill="#0b0b0b">7%</text>
<text x="1043.0" y="208" font-size="11" text-anchor="middle" fill="#0b0b0b">Series</text>
<text x="1043.0" y="222" font-size="10" text-anchor="middle" fill="#52514e">$3.59 / $4.08</text>
<text x="16" y="268" font-size="14" font-weight="600" fill="#0b0b0b">México</text>
<path d="M99.0,328 L99.0,284 A44,44 0 1,1 78.34,289.15 Z" fill="#2a78d6" stroke="#fcfcfb" stroke-width="2"/>
<path d="M99.0,328 L78.34,289.15 A44,44 0 0,1 99.0,284 Z" fill="#eb6834" stroke="#fcfcfb" stroke-width="2"/>
<circle cx="99.0" cy="328" r="24.2" fill="#fcfcfb"/>
<text x="99.0" y="332" font-size="12" font-weight="600" text-anchor="middle" fill="#0b0b0b">92%</text>
<text x="99.0" y="388" font-size="11" text-anchor="middle" fill="#0b0b0b">App Name</text>
<text x="99.0" y="402" font-size="10" text-anchor="middle" fill="#52514e">$3.47 / $2.23</text>
<path d="M217.0,328 L217.0,284 A44,44 0 1,1 181.10,302.56 Z" fill="#2a78d6" stroke="#fcfcfb" stroke-width="2"/>
<path d="M217.0,328 L181.10,302.56 A44,44 0 0,1 217.0,284 Z" fill="#eb6834" stroke="#fcfcfb" stroke-width="2"/>
<circle cx="217.0" cy="328" r="24.2" fill="#fcfcfb"/>
<text x="217.0" y="332" font-size="12" font-weight="600" text-anchor="middle" fill="#0b0b0b">85%</text>
<text x="217.0" y="388" font-size="11" text-anchor="middle" fill="#0b0b0b">Genre</text>
<text x="217.0" y="402" font-size="10" text-anchor="middle" fill="#52514e">$3.30 / $3.43</text>
<path d="M335.0,328 L335.0,284 A44,44 0 1,1 332.51,371.93 Z" fill="#2a78d6" stroke="#fcfcfb" stroke-width="2"/>
<path d="M335.0,328 L332.51,371.93 A44,44 0 0,1 335.0,284 Z" fill="#eb6834" stroke="#fcfcfb" stroke-width="2"/>
<circle cx="335.0" cy="328" r="24.2" fill="#fcfcfb"/>
<text x="335.0" y="332" font-size="12" font-weight="600" text-anchor="middle" fill="#0b0b0b">51%</text>
<text x="335.0" y="388" font-size="11" text-anchor="middle" fill="#0b0b0b">Title</text>
<text x="335.0" y="402" font-size="10" text-anchor="middle" fill="#52514e">$2.95 / $3.83</text>
<path d="M453.0,328 L453.0,284 A44,44 0 1,1 415.34,305.24 Z" fill="#2a78d6" stroke="#fcfcfb" stroke-width="2"/>
<path d="M453.0,328 L415.34,305.24 A44,44 0 0,1 453.0,284 Z" fill="#eb6834" stroke="#fcfcfb" stroke-width="2"/>
<circle cx="453.0" cy="328" r="24.2" fill="#fcfcfb"/>
<text x="453.0" y="332" font-size="12" font-weight="600" text-anchor="middle" fill="#0b0b0b">84%</text>
<text x="453.0" y="388" font-size="11" text-anchor="middle" fill="#0b0b0b">Rating</text>
<text x="453.0" y="402" font-size="10" text-anchor="middle" fill="#52514e">$3.64 / $2.30</text>
<path d="M571.0,328 L571.0,284 A44,44 0 1,1 527.04,329.84 Z" fill="#2a78d6" stroke="#fcfcfb" stroke-width="2"/>
<path d="M571.0,328 L527.04,329.84 A44,44 0 0,1 571.0,284 Z" fill="#eb6834" stroke="#fcfcfb" stroke-width="2"/>
<circle cx="571.0" cy="328" r="24.2" fill="#fcfcfb"/>
<text x="571.0" y="332" font-size="12" font-weight="600" text-anchor="middle" fill="#0b0b0b">74%</text>
<text x="571.0" y="388" font-size="11" text-anchor="middle" fill="#0b0b0b">Language</text>
<text x="571.0" y="402" font-size="10" text-anchor="middle" fill="#52514e">$3.67 / $2.61</text>
<path d="M689.0,328 L689.0,284 A44,44 0 1,1 677.70,370.52 Z" fill="#2a78d6" stroke="#fcfcfb" stroke-width="2"/>
<path d="M689.0,328 L677.70,370.52 A44,44 0 0,1 689.0,284 Z" fill="#eb6834" stroke="#fcfcfb" stroke-width="2"/>
<circle cx="689.0" cy="328" r="24.2" fill="#fcfcfb"/>
<text x="689.0" y="332" font-size="12" font-weight="600" text-anchor="middle" fill="#0b0b0b">54%</text>
<text x="689.0" y="388" font-size="11" text-anchor="middle" fill="#0b0b0b">LiveStream</text>
<text x="689.0" y="402" font-size="10" text-anchor="middle" fill="#52514e">$3.52 / $3.12</text>
<path d="M807.0,328 L807.0,284 A44,44 0 0,1 817.26,370.79 Z" fill="#2a78d6" stroke="#fcfcfb" stroke-width="2"/>
<path d="M807.0,328 L817.26,370.79 A44,44 0 1,1 807.0,284 Z" fill="#eb6834" stroke="#fcfcfb" stroke-width="2"/>
<circle cx="807.0" cy="328" r="24.2" fill="#fcfcfb"/>
<text x="807.0" y="332" font-size="12" font-weight="600" text-anchor="middle" fill="#0b0b0b">46%</text>
<text x="807.0" y="388" font-size="11" text-anchor="middle" fill="#0b0b0b">Category</text>
<text x="807.0" y="402" font-size="10" text-anchor="middle" fill="#52514e">$4.34 / $2.77</text>
<path d="M925.0,328 L925.0,284 A44,44 0 0,1 934.14,371.04 Z" fill="#2a78d6" stroke="#fcfcfb" stroke-width="2"/>
<path d="M925.0,328 L934.14,371.04 A44,44 0 1,1 925.0,284 Z" fill="#eb6834" stroke="#fcfcfb" stroke-width="2"/>
<circle cx="925.0" cy="328" r="24.2" fill="#fcfcfb"/>
<text x="925.0" y="332" font-size="12" font-weight="600" text-anchor="middle" fill="#0b0b0b">47%</text>
<text x="925.0" y="388" font-size="11" text-anchor="middle" fill="#0b0b0b">Length</text>
<text x="925.0" y="402" font-size="10" text-anchor="middle" fill="#52514e">$4.66 / $2.66</text>
<path d="M1043.0,328 L1043.0,284 A44,44 0 0,1 1057.23,286.37 Z" fill="#2a78d6" stroke="#fcfcfb" stroke-width="2"/>
<path d="M1043.0,328 L1057.23,286.37 A44,44 0 1,1 1043.0,284 Z" fill="#eb6834" stroke="#fcfcfb" stroke-width="2"/>
<circle cx="1043.0" cy="328" r="24.2" fill="#fcfcfb"/>
<text x="1043.0" y="332" font-size="12" font-weight="600" text-anchor="middle" fill="#0b0b0b">5%</text>
<text x="1043.0" y="388" font-size="11" text-anchor="middle" fill="#0b0b0b">Series</text>
<text x="1043.0" y="402" font-size="10" text-anchor="middle" fill="#52514e">$3.67 / $3.31</text>
<text x="16" y="448" font-size="14" font-weight="600" fill="#0b0b0b">Colombia</text>
<path d="M99.0,508 L99.0,464 A44,44 0 1,1 71.25,473.85 Z" fill="#2a78d6" stroke="#fcfcfb" stroke-width="2"/>
<path d="M99.0,508 L71.25,473.85 A44,44 0 0,1 99.0,464 Z" fill="#eb6834" stroke="#fcfcfb" stroke-width="2"/>
<circle cx="99.0" cy="508" r="24.2" fill="#fcfcfb"/>
<text x="99.0" y="512" font-size="12" font-weight="600" text-anchor="middle" fill="#0b0b0b">89%</text>
<text x="99.0" y="568" font-size="11" text-anchor="middle" fill="#0b0b0b">App Name</text>
<text x="99.0" y="582" font-size="10" text-anchor="middle" fill="#52514e">$4.33 / $6.09</text>
<path d="M217.0,508 L217.0,464 A44,44 0 1,1 191.47,472.16 Z" fill="#2a78d6" stroke="#fcfcfb" stroke-width="2"/>
<path d="M217.0,508 L191.47,472.16 A44,44 0 0,1 217.0,464 Z" fill="#eb6834" stroke="#fcfcfb" stroke-width="2"/>
<circle cx="217.0" cy="508" r="24.2" fill="#fcfcfb"/>
<text x="217.0" y="512" font-size="12" font-weight="600" text-anchor="middle" fill="#0b0b0b">90%</text>
<text x="217.0" y="568" font-size="11" text-anchor="middle" fill="#0b0b0b">Genre</text>
<text x="217.0" y="582" font-size="10" text-anchor="middle" fill="#52514e">$4.79 / $2.77</text>
<path d="M335.0,508 L335.0,464 A44,44 0 1,1 308.92,472.57 Z" fill="#2a78d6" stroke="#fcfcfb" stroke-width="2"/>
<path d="M335.0,508 L308.92,472.57 A44,44 0 0,1 335.0,464 Z" fill="#eb6834" stroke="#fcfcfb" stroke-width="2"/>
<circle cx="335.0" cy="508" r="24.2" fill="#fcfcfb"/>
<text x="335.0" y="512" font-size="12" font-weight="600" text-anchor="middle" fill="#0b0b0b">90%</text>
<text x="335.0" y="568" font-size="11" text-anchor="middle" fill="#0b0b0b">Title</text>
<text x="335.0" y="582" font-size="10" text-anchor="middle" fill="#52514e">$4.66 / $3.28</text>
<path d="M453.0,508 L453.0,464 A44,44 0 1,1 410.98,494.93 Z" fill="#2a78d6" stroke="#fcfcfb" stroke-width="2"/>
<path d="M453.0,508 L410.98,494.93 A44,44 0 0,1 453.0,464 Z" fill="#eb6834" stroke="#fcfcfb" stroke-width="2"/>
<circle cx="453.0" cy="508" r="24.2" fill="#fcfcfb"/>
<text x="453.0" y="512" font-size="12" font-weight="600" text-anchor="middle" fill="#0b0b0b">80%</text>
<text x="453.0" y="568" font-size="11" text-anchor="middle" fill="#0b0b0b">Rating</text>
<text x="453.0" y="582" font-size="10" text-anchor="middle" fill="#52514e">$4.58 / $4.09</text>
<path d="M571.0,508 L571.0,464 A44,44 0 0,1 579.68,551.14 Z" fill="#2a78d6" stroke="#fcfcfb" stroke-width="2"/>
<path d="M571.0,508 L579.68,551.14 A44,44 0 1,1 571.0,464 Z" fill="#eb6834" stroke="#fcfcfb" stroke-width="2"/>
<circle cx="571.0" cy="508" r="24.2" fill="#fcfcfb"/>
<text x="571.0" y="512" font-size="12" font-weight="600" text-anchor="middle" fill="#0b0b0b">47%</text>
<text x="571.0" y="568" font-size="11" text-anchor="middle" fill="#0b0b0b">Language</text>
<text x="571.0" y="582" font-size="10" text-anchor="middle" fill="#52514e">$3.44 / $6.09</text>
<path d="M689.0,508 L689.0,464 A44,44 0 0,1 714.61,543.78 Z" fill="#2a78d6" stroke="#fcfcfb" stroke-width="2"/>
<path d="M689.0,508 L714.61,543.78 A44,44 0 1,1 689.0,464 Z" fill="#eb6834" stroke="#fcfcfb" stroke-width="2"/>
<circle cx="689.0" cy="508" r="24.2" fill="#fcfcfb"/>
<text x="689.0" y="512" font-size="12" font-weight="600" text-anchor="middle" fill="#0b0b0b">40%</text>
<text x="689.0" y="568" font-size="11" text-anchor="middle" fill="#0b0b0b">LiveStream</text>
<text x="689.0" y="582" font-size="10" text-anchor="middle" fill="#52514e">$4.09 / $4.77</text>
<path d="M807.0,508 L807.0,464 A44,44 0 0,1 847.47,525.26 Z" fill="#2a78d6" stroke="#fcfcfb" stroke-width="2"/>
<path d="M807.0,508 L847.47,525.26 A44,44 0 1,1 807.0,464 Z" fill="#eb6834" stroke="#fcfcfb" stroke-width="2"/>
<circle cx="807.0" cy="508" r="24.2" fill="#fcfcfb"/>
<text x="807.0" y="512" font-size="12" font-weight="600" text-anchor="middle" fill="#0b0b0b">31%</text>
<text x="807.0" y="568" font-size="11" text-anchor="middle" fill="#0b0b0b">Category</text>
<text x="807.0" y="582" font-size="10" text-anchor="middle" fill="#52514e">$4.50 / $4.46</text>
<path d="M925.0,508 L925.0,464 A44,44 0 0,1 965.32,490.39 Z" fill="#2a78d6" stroke="#fcfcfb" stroke-width="2"/>
<path d="M925.0,508 L965.32,490.39 A44,44 0 1,1 925.0,464 Z" fill="#eb6834" stroke="#fcfcfb" stroke-width="2"/>
<circle cx="925.0" cy="508" r="24.2" fill="#fcfcfb"/>
<text x="925.0" y="512" font-size="12" font-weight="600" text-anchor="middle" fill="#0b0b0b">18%</text>
<text x="925.0" y="568" font-size="11" text-anchor="middle" fill="#0b0b0b">Length</text>
<text x="925.0" y="582" font-size="10" text-anchor="middle" fill="#52514e">$3.32 / $4.85</text>
<path d="M1043.0,508 L1043.0,464 A44,44 0 0,1 1072.83,475.65 Z" fill="#2a78d6" stroke="#fcfcfb" stroke-width="2"/>
<path d="M1043.0,508 L1072.83,475.65 A44,44 0 1,1 1043.0,464 Z" fill="#eb6834" stroke="#fcfcfb" stroke-width="2"/>
<circle cx="1043.0" cy="508" r="24.2" fill="#fcfcfb"/>
<text x="1043.0" y="512" font-size="12" font-weight="600" text-anchor="middle" fill="#0b0b0b">12%</text>
<text x="1043.0" y="568" font-size="11" text-anchor="middle" fill="#0b0b0b">Series</text>
<text x="1043.0" y="582" font-size="10" text-anchor="middle" fill="#52514e">$2.88 / $4.83</text>
<text x="16" y="628" font-size="14" font-weight="600" fill="#0b0b0b">Chile</text>
<path d="M99.0,688 L99.0,644 A44,44 0 1,1 88.10,645.37 Z" fill="#2a78d6" stroke="#fcfcfb" stroke-width="2"/>
<path d="M99.0,688 L88.10,645.37 A44,44 0 0,1 99.0,644 Z" fill="#eb6834" stroke="#fcfcfb" stroke-width="2"/>
<circle cx="99.0" cy="688" r="24.2" fill="#fcfcfb"/>
<text x="99.0" y="692" font-size="12" font-weight="600" text-anchor="middle" fill="#0b0b0b">96%</text>
<text x="99.0" y="748" font-size="11" text-anchor="middle" fill="#0b0b0b">App Name</text>
<text x="99.0" y="762" font-size="10" text-anchor="middle" fill="#52514e">$5.87 / $5.79</text>
<path d="M217.0,688 L217.0,644 A44,44 0 1,1 181.21,662.41 Z" fill="#2a78d6" stroke="#fcfcfb" stroke-width="2"/>
<path d="M217.0,688 L181.21,662.41 A44,44 0 0,1 217.0,644 Z" fill="#eb6834" stroke="#fcfcfb" stroke-width="2"/>
<circle cx="217.0" cy="688" r="24.2" fill="#fcfcfb"/>
<text x="217.0" y="692" font-size="12" font-weight="600" text-anchor="middle" fill="#0b0b0b">85%</text>
<text x="217.0" y="748" font-size="11" text-anchor="middle" fill="#0b0b0b">Genre</text>
<text x="217.0" y="762" font-size="10" text-anchor="middle" fill="#52514e">$5.67 / $7.30</text>
<path d="M335.0,688 L335.0,644 A44,44 0 1,1 303.30,657.48 Z" fill="#2a78d6" stroke="#fcfcfb" stroke-width="2"/>
<path d="M335.0,688 L303.30,657.48 A44,44 0 0,1 335.0,644 Z" fill="#eb6834" stroke="#fcfcfb" stroke-width="2"/>
<circle cx="335.0" cy="688" r="24.2" fill="#fcfcfb"/>
<text x="335.0" y="692" font-size="12" font-weight="600" text-anchor="middle" fill="#0b0b0b">87%</text>
<text x="335.0" y="748" font-size="11" text-anchor="middle" fill="#0b0b0b">Title</text>
<text x="335.0" y="762" font-size="10" text-anchor="middle" fill="#52514e">$5.62 / $8.41</text>
<path d="M453.0,688 L453.0,644 A44,44 0 1,1 413.46,668.69 Z" fill="#2a78d6" stroke="#fcfcfb" stroke-width="2"/>
<path d="M453.0,688 L413.46,668.69 A44,44 0 0,1 453.0,644 Z" fill="#eb6834" stroke="#fcfcfb" stroke-width="2"/>
<circle cx="453.0" cy="688" r="24.2" fill="#fcfcfb"/>
<text x="453.0" y="692" font-size="12" font-weight="600" text-anchor="middle" fill="#0b0b0b">82%</text>
<text x="453.0" y="748" font-size="11" text-anchor="middle" fill="#0b0b0b">Rating</text>
<text x="453.0" y="762" font-size="10" text-anchor="middle" fill="#52514e">$5.72 / $6.65</text>
<path d="M571.0,688 L571.0,644 A44,44 0 1,1 534.22,663.86 Z" fill="#2a78d6" stroke="#fcfcfb" stroke-width="2"/>
<path d="M571.0,688 L534.22,663.86 A44,44 0 0,1 571.0,644 Z" fill="#eb6834" stroke="#fcfcfb" stroke-width="2"/>
<circle cx="571.0" cy="688" r="24.2" fill="#fcfcfb"/>
<text x="571.0" y="692" font-size="12" font-weight="600" text-anchor="middle" fill="#0b0b0b">84%</text>
<text x="571.0" y="748" font-size="11" text-anchor="middle" fill="#0b0b0b">Language</text>
<text x="571.0" y="762" font-size="10" text-anchor="middle" fill="#52514e">$5.70 / $6.96</text>
<path d="M689.0,688 L689.0,644 A44,44 0 0,1 732.73,683.14 Z" fill="#2a78d6" stroke="#fcfcfb" stroke-width="2"/>
<path d="M689.0,688 L732.73,683.14 A44,44 0 1,1 689.0,644 Z" fill="#eb6834" stroke="#fcfcfb" stroke-width="2"/>
<circle cx="689.0" cy="688" r="24.2" fill="#fcfcfb"/>
<text x="689.0" y="692" font-size="12" font-weight="600" text-anchor="middle" fill="#0b0b0b">23%</text>
<text x="689.0" y="748" font-size="11" text-anchor="middle" fill="#0b0b0b">LiveStream</text>
<text x="689.0" y="762" font-size="10" text-anchor="middle" fill="#52514e">$5.77 / $5.90</text>
<path d="M807.0,688 L807.0,644 A44,44 0 0,1 842.87,662.51 Z" fill="#2a78d6" stroke="#fcfcfb" stroke-width="2"/>
<path d="M807.0,688 L842.87,662.51 A44,44 0 1,1 807.0,644 Z" fill="#eb6834" stroke="#fcfcfb" stroke-width="2"/>
<circle cx="807.0" cy="688" r="24.2" fill="#fcfcfb"/>
<text x="807.0" y="692" font-size="12" font-weight="600" text-anchor="middle" fill="#0b0b0b">15%</text>
<text x="807.0" y="748" font-size="11" text-anchor="middle" fill="#0b0b0b">Category</text>
<text x="807.0" y="762" font-size="10" text-anchor="middle" fill="#52514e">$4.91 / $6.08</text>
<path d="M925.0,688 L925.0,644 A44,44 0 0,1 960.63,662.18 Z" fill="#2a78d6" stroke="#fcfcfb" stroke-width="2"/>
<path d="M925.0,688 L960.63,662.18 A44,44 0 1,1 925.0,644 Z" fill="#eb6834" stroke="#fcfcfb" stroke-width="2"/>
<circle cx="925.0" cy="688" r="24.2" fill="#fcfcfb"/>
<text x="925.0" y="692" font-size="12" font-weight="600" text-anchor="middle" fill="#0b0b0b">15%</text>
<text x="925.0" y="748" font-size="11" text-anchor="middle" fill="#0b0b0b">Length</text>
<text x="925.0" y="762" font-size="10" text-anchor="middle" fill="#52514e">$5.09 / $6.03</text>
<path d="M1043.0,688 L1043.0,644 A44,44 0 0,1 1071.38,654.37 Z" fill="#2a78d6" stroke="#fcfcfb" stroke-width="2"/>
<path d="M1043.0,688 L1071.38,654.37 A44,44 0 1,1 1043.0,644 Z" fill="#eb6834" stroke="#fcfcfb" stroke-width="2"/>
<circle cx="1043.0" cy="688" r="24.2" fill="#fcfcfb"/>
<text x="1043.0" y="692" font-size="12" font-weight="600" text-anchor="middle" fill="#0b0b0b">11%</text>
<text x="1043.0" y="748" font-size="11" text-anchor="middle" fill="#0b0b0b">Series</text>
<text x="1043.0" y="762" font-size="10" text-anchor="middle" fill="#52514e">$4.89 / $6.02</text>
</svg>