<svg xmlns="http://www.w3.org/2000/svg" width="1040" height="600" viewBox="0 0 1040 600" font-family="Segoe UI, Helvetica, Arial, sans-serif" font-size="12">
<rect width="1040" height="600" fill="#ffffff"/>
<text x="16" y="24" font-size="17" font-weight="700" fill="#1f2933">Registros sin contentTitle: requests totales y eCPM ponderado por género</text>
<text x="16" y="44" font-size="12" fill="#5f6b76">Top 20 géneros (normalizados, tal como llegan, antes del relleno) por requests totales. Barras: requests totales (vendidos o no),</text>
<text x="16" y="60" font-size="12" fill="#5f6b76">en miles de millones (eje izquierdo). Línea: eCPM ponderado del género (eje derecho). Línea punteada: $3.98, el ponderado de todas las filas sin título.</text>
<rect x="16" y="72" width="12" height="12" rx="2" fill="#2a78d6"/><text x="32" y="82" font-size="11" fill="#1f2933">requests totales (eje izquierdo)</text>
<line x1="210" y1="78" x2="232" y2="78" stroke="#1f2933" stroke-width="2"/><circle cx="221" cy="78" r="3.5" fill="#ffffff" stroke="#1f2933" stroke-width="2"/><text x="238" y="82" font-size="11" fill="#1f2933">eCPM ponderado (eje derecho)</text>
<line x1="60" y1="470.0" x2="980" y2="470.0" stroke="#e3e7ea"/>
<text x="54" y="474.0" text-anchor="end" font-size="10.5" fill="#5f6b76">0</text>
<line x1="60" y1="416.0" x2="980" y2="416.0" stroke="#e3e7ea"/>
<text x="54" y="420.0" text-anchor="end" font-size="10.5" fill="#5f6b76">10</text>
<line x1="60" y1="361.9" x2="980" y2="361.9" stroke="#e3e7ea"/>
<text x="54" y="365.9" text-anchor="end" font-size="10.5" fill="#5f6b76">20</text>
<line x1="60" y1="307.9" x2="980" y2="307.9" stroke="#e3e7ea"/>
<text x="54" y="311.9" text-anchor="end" font-size="10.5" fill="#5f6b76">30</text>
<line x1="60" y1="253.9" x2="980" y2="253.9" stroke="#e3e7ea"/>
<text x="54" y="257.9" text-anchor="end" font-size="10.5" fill="#5f6b76">40</text>
<line x1="60" y1="199.9" x2="980" y2="199.9" stroke="#e3e7ea"/>
<text x="54" y="203.9" text-anchor="end" font-size="10.5" fill="#5f6b76">50</text>
<line x1="60" y1="145.8" x2="980" y2="145.8" stroke="#e3e7ea"/>
<text x="54" y="149.8" text-anchor="end" font-size="10.5" fill="#5f6b76">60</text>
<line x1="980" y1="470.0" x2="984" y2="470.0" stroke="#5f6b76"/>
<text x="987" y="474.0" font-size="10.5" fill="#5f6b76">$0</text>
<line x1="980" y1="419.8" x2="984" y2="419.8" stroke="#5f6b76"/>
<text x="987" y="423.8" font-size="10.5" fill="#5f6b76">$1</text>
<line x1="980" y1="369.6" x2="984" y2="369.6" stroke="#5f6b76"/>
<text x="987" y="373.6" font-size="10.5" fill="#5f6b76">$2</text>
<line x1="980" y1="319.5" x2="984" y2="319.5" stroke="#5f6b76"/>
<text x="987" y="323.5" font-size="10.5" fill="#5f6b76">$3</text>
<line x1="980" y1="269.3" x2="984" y2="269.3" stroke="#5f6b76"/>
<text x="987" y="273.3" font-size="10.5" fill="#5f6b76">$4</text>
<line x1="980" y1="219.1" x2="984" y2="219.1" stroke="#5f6b76"/>
<text x="987" y="223.1" font-size="10.5" fill="#5f6b76">$5</text>
<line x1="980" y1="168.9" x2="984" y2="168.9" stroke="#5f6b76"/>
<text x="987" y="172.9" font-size="10.5" fill="#5f6b76">$6</text>
<line x1="980" y1="118.7" x2="984" y2="118.7" stroke="#5f6b76"/>
<text x="987" y="122.7" font-size="10.5" fill="#5f6b76">$7</text>
<line x1="980" y1="110" x2="980" y2="470" stroke="#5f6b76"/>
<text transform="translate(18,290.0) rotate(-90)" text-anchor="middle" fill="#1f2933">requests totales (miles de millones)</text>
<text transform="translate(1026,290.0) rotate(90)" text-anchor="middle" fill="#1f2933">eCPM ponderado ($)</text>
<line x1="60" y1="270.2" x2="980" y2="270.2" stroke="#5f6b76" stroke-dasharray="5 4"/>
<rect x="68.7" y="157.0" width="28.5" height="313.0" rx="2" fill="#2a78d6"/>
<text transform="translate(80.0,482) rotate(40)" font-size="10.5" fill="#1f2933">(sin género)</text>
<rect x="114.7" y="356.0" width="28.5" height="114.0" rx="2" fill="#2a78d6"/>
<text transform="translate(126.0,482) rotate(40)" font-size="10.5" fill="#1f2933">deportes</text>
<rect x="160.7" y="357.1" width="28.5" height="112.9" rx="2" fill="#2a78d6"/>
<text transform="translate(172.0,482) rotate(40)" font-size="10.5" fill="#1f2933">drama</text>
<rect x="206.7" y="383.7" width="28.5" height="86.3" rx="2" fill="#2a78d6"/>
<text transform="translate(218.0,482) rotate(40)" font-size="10.5" fill="#1f2933">entretenimiento</text>
<rect x="252.7" y="429.7" width="28.5" height="40.3" rx="2" fill="#2a78d6"/>
<text transform="translate(264.0,482) rotate(40)" font-size="10.5" fill="#1f2933">noticias</text>
<rect x="298.7" y="433.6" width="28.5" height="36.4" rx="2" fill="#2a78d6"/>
<text transform="translate(310.0,482) rotate(40)" font-size="10.5" fill="#1f2933">comedia</text>
<rect x="344.7" y="437.5" width="28.5" height="32.5" rx="2" fill="#2a78d6"/>
<text transform="translate(356.0,482) rotate(40)" font-size="10.5" fill="#1f2933">accion</text>
<rect x="390.7" y="451.4" width="28.5" height="18.6" rx="2" fill="#2a78d6"/>
<text transform="translate(402.0,482) rotate(40)" font-size="10.5" fill="#1f2933">romance</text>
<rect x="436.7" y="457.1" width="28.5" height="12.9" rx="2" fill="#2a78d6"/>
<text transform="translate(448.0,482) rotate(40)" font-size="10.5" fill="#1f2933">aventura</text>
<rect x="482.7" y="459.4" width="28.5" height="10.6" rx="2" fill="#2a78d6"/>
<text transform="translate(494.0,482) rotate(40)" font-size="10.5" fill="#1f2933">terror</text>
<rect x="528.7" y="460.2" width="28.5" height="9.8" rx="2" fill="#2a78d6"/>
<text transform="translate(540.0,482) rotate(40)" font-size="10.5" fill="#1f2933">gastronomia</text>
<rect x="574.7" y="462.6" width="28.5" height="7.4" rx="2" fill="#2a78d6"/>
<text transform="translate(586.0,482) rotate(40)" font-size="10.5" fill="#1f2933">documental</text>
<rect x="620.7" y="463.0" width="28.5" height="7.0" rx="2" fill="#2a78d6"/>
<text transform="translate(632.0,482) rotate(40)" font-size="10.5" fill="#1f2933">pelicula</text>
<rect x="666.7" y="463.4" width="28.5" height="6.6" rx="2" fill="#2a78d6"/>
<text transform="translate(678.0,482) rotate(40)" font-size="10.5" fill="#1f2933">reality</text>
<rect x="712.7" y="464.0" width="28.5" height="6.0" rx="2" fill="#2a78d6"/>
<text transform="translate(724.0,482) rotate(40)" font-size="10.5" fill="#1f2933">animacion</text>
<rect x="758.7" y="464.7" width="28.5" height="5.3" rx="2" fill="#2a78d6"/>
<text transform="translate(770.0,482) rotate(40)" font-size="10.5" fill="#1f2933">thriller</text>
<rect x="804.7" y="465.2" width="28.5" height="4.8" rx="2" fill="#2a78d6"/>
<text transform="translate(816.0,482) rotate(40)" font-size="10.5" fill="#1f2933">crimen</text>
<rect x="850.7" y="465.6" width="28.5" height="4.4" rx="2" fill="#2a78d6"/>
<text transform="translate(862.0,482) rotate(40)" font-size="10.5" fill="#1f2933">concursos</text>
<rect x="896.7" y="466.8" width="28.5" height="3.2" rx="2" fill="#2a78d6"/>
<text transform="translate(908.0,482) rotate(40)" font-size="10.5" fill="#1f2933">musica</text>
<rect x="942.7" y="466.9" width="28.5" height="3.1" rx="2" fill="#2a78d6"/>
<text transform="translate(954.0,482) rotate(40)" font-size="10.5" fill="#1f2933">western</text>
<text x="83.0" y="153.0" text-anchor="middle" font-size="9.5" fill="#5f6b76" stroke="#ffffff" stroke-width="3" paint-order="stroke">57.9</text>
<text x="129.0" y="352.0" text-anchor="middle" font-size="9.5" fill="#5f6b76" stroke="#ffffff" stroke-width="3" paint-order="stroke">21.1</text>
<text x="175.0" y="353.1" text-anchor="middle" font-size="9.5" fill="#5f6b76" stroke="#ffffff" stroke-width="3" paint-order="stroke">20.9</text>
<text x="221.0" y="379.7" text-anchor="middle" font-size="9.5" fill="#5f6b76" stroke="#ffffff" stroke-width="3" paint-order="stroke">16.0</text>
<text x="267.0" y="425.7" text-anchor="middle" font-size="9.5" fill="#5f6b76" stroke="#ffffff" stroke-width="3" paint-order="stroke">7.5</text>
<text x="313.0" y="429.6" text-anchor="middle" font-size="9.5" fill="#5f6b76" stroke="#ffffff" stroke-width="3" paint-order="stroke">6.7</text>
<text x="359.0" y="433.5" text-anchor="middle" font-size="9.5" fill="#5f6b76" stroke="#ffffff" stroke-width="3" paint-order="stroke">6.0</text>
<text x="405.0" y="447.4" text-anchor="middle" font-size="9.5" fill="#5f6b76" stroke="#ffffff" stroke-width="3" paint-order="stroke">3.4</text>
<text x="451.0" y="453.1" text-anchor="middle" font-size="9.5" fill="#5f6b76" stroke="#ffffff" stroke-width="3" paint-order="stroke">2.4</text>
<text x="497.0" y="455.4" text-anchor="middle" font-size="9.5" fill="#5f6b76" stroke="#ffffff" stroke-width="3" paint-order="stroke">2.0</text>
<text x="543.0" y="456.2" text-anchor="middle" font-size="9.5" fill="#5f6b76" stroke="#ffffff" stroke-width="3" paint-order="stroke">1.8</text>
<text x="589.0" y="458.6" text-anchor="middle" font-size="9.5" fill="#5f6b76" stroke="#ffffff" stroke-width="3" paint-order="stroke">1.4</text>
<text x="635.0" y="459.0" text-anchor="middle" font-size="9.5" fill="#5f6b76" stroke="#ffffff" stroke-width="3" paint-order="stroke">1.3</text>
<text x="681.0" y="459.4" text-anchor="middle" font-size="9.5" fill="#5f6b76" stroke="#ffffff" stroke-width="3" paint-order="stroke">1.2</text>
<text x="727.0" y="460.0" text-anchor="middle" font-size="9.5" fill="#5f6b76" stroke="#ffffff" stroke-width="3" paint-order="stroke">1.1</text>
<text x="773.0" y="460.7" text-anchor="middle" font-size="9.5" fill="#5f6b76" stroke="#ffffff" stroke-width="3" paint-order="stroke">1.0</text>
<text x="819.0" y="461.2" text-anchor="middle" font-size="9.5" fill="#5f6b76" stroke="#ffffff" stroke-width="3" paint-order="stroke">0.9</text>
<text x="865.0" y="461.6" text-anchor="middle" font-size="9.5" fill="#5f6b76" stroke="#ffffff" stroke-width="3" paint-order="stroke">0.8</text>
<text x="911.0" y="462.8" text-anchor="middle" font-size="9.5" fill="#5f6b76" stroke="#ffffff" stroke-width="3" paint-order="stroke">0.6</text>
<text x="957.0" y="462.9" text-anchor="middle" font-size="9.5" fill="#5f6b76" stroke="#ffffff" stroke-width="3" paint-order="stroke">0.6</text>
<polyline points="83.0,257.3 129.0,380.2 175.0,196.4 221.0,252.7 267.0,206.1 313.0,304.1 359.0,235.7 405.0,335.3 451.0,202.0 497.0,227.1 543.0,209.8 589.0,172.8 635.0,246.2 681.0,347.3 727.0,321.3 773.0,254.6 819.0,230.6 865.0,157.0 911.0,337.7 957.0,302.8" fill="none" stroke="#1f2933" stroke-width="2"/>
<circle cx="83.0" cy="257.3" r="3.5" fill="#ffffff" stroke="#1f2933" stroke-width="2"/>
<text x="83.0" y="249.3" text-anchor="middle" font-size="10" font-weight="700" fill="#1f2933" stroke="#ffffff" stroke-width="3" paint-order="stroke">4.24</text>
<circle cx="129.0" cy="380.2" r="3.5" fill="#ffffff" stroke="#1f2933" stroke-width="2"/>
<text x="129.0" y="372.2" text-anchor="middle" font-size="10" font-weight="700" fill="#1f2933" stroke="#ffffff" stroke-width="3" paint-order="stroke">1.79</text>
<circle cx="175.0" cy="196.4" r="3.5" fill="#ffffff" stroke="#1f2933" stroke-width="2"/>
<text x="175.0" y="188.4" text-anchor="middle" font-size="10" font-weight="700" fill="#1f2933" stroke="#ffffff" stroke-width="3" paint-order="stroke">5.45</text>
<circle cx="221.0" cy="252.7" r="3.5" fill="#ffffff" stroke="#1f2933" stroke-width="2"/>
<text x="221.0" y="244.7" text-anchor="middle" font-size="10" font-weight="700" fill="#1f2933" stroke="#ffffff" stroke-width="3" paint-order="stroke">4.33</text>
<circle cx="267.0" cy="206.1" r="3.5" fill="#ffffff" stroke="#1f2933" stroke-width="2"/>
<text x="267.0" y="198.1" text-anchor="middle" font-size="10" font-weight="700" fill="#1f2933" stroke="#ffffff" stroke-width="3" paint-order="stroke">5.26</text>
<circle cx="313.0" cy="304.1" r="3.5" fill="#ffffff" stroke="#1f2933" stroke-width="2"/>
<text x="313.0" y="296.1" text-anchor="middle" font-size="10" font-weight="700" fill="#1f2933" stroke="#ffffff" stroke-width="3" paint-order="stroke">3.31</text>
<circle cx="359.0" cy="235.7" r="3.5" fill="#ffffff" stroke="#1f2933" stroke-width="2"/>
<text x="359.0" y="227.7" text-anchor="middle" font-size="10" font-weight="700" fill="#1f2933" stroke="#ffffff" stroke-width="3" paint-order="stroke">4.67</text>
<circle cx="405.0" cy="335.3" r="3.5" fill="#ffffff" stroke="#1f2933" stroke-width="2"/>
<text x="405.0" y="327.3" text-anchor="middle" font-size="10" font-weight="700" fill="#1f2933" stroke="#ffffff" stroke-width="3" paint-order="stroke">2.69</text>
<circle cx="451.0" cy="202.0" r="3.5" fill="#ffffff" stroke="#1f2933" stroke-width="2"/>
<text x="451.0" y="194.0" text-anchor="middle" font-size="10" font-weight="700" fill="#1f2933" stroke="#ffffff" stroke-width="3" paint-order="stroke">5.34</text>
<circle cx="497.0" cy="227.1" r="3.5" fill="#ffffff" stroke="#1f2933" stroke-width="2"/>
<text x="497.0" y="219.1" text-anchor="middle" font-size="10" font-weight="700" fill="#1f2933" stroke="#ffffff" stroke-width="3" paint-order="stroke">4.84</text>
<circle cx="543.0" cy="209.8" r="3.5" fill="#ffffff" stroke="#1f2933" stroke-width="2"/>
<text x="543.0" y="201.8" text-anchor="middle" font-size="10" font-weight="700" fill="#1f2933" stroke="#ffffff" stroke-width="3" paint-order="stroke">5.18</text>
<circle cx="589.0" cy="172.8" r="3.5" fill="#ffffff" stroke="#1f2933" stroke-width="2"/>
<text x="589.0" y="164.8" text-anchor="middle" font-size="10" font-weight="700" fill="#1f2933" stroke="#ffffff" stroke-width="3" paint-order="stroke">5.92</text>
<circle cx="635.0" cy="246.2" r="3.5" fill="#ffffff" stroke="#1f2933" stroke-width="2"/>
<text x="635.0" y="238.2" text-anchor="middle" font-size="10" font-weight="700" fill="#1f2933" stroke="#ffffff" stroke-width="3" paint-order="stroke">4.46</text>
<circle cx="681.0" cy="347.3" r="3.5" fill="#ffffff" stroke="#1f2933" stroke-width="2"/>
<text x="681.0" y="339.3" text-anchor="middle" font-size="10" font-weight="700" fill="#1f2933" stroke="#ffffff" stroke-width="3" paint-order="stroke">2.45</text>
<circle cx="727.0" cy="321.3" r="3.5" fill="#ffffff" stroke="#1f2933" stroke-width="2"/>
<text x="727.0" y="313.3" text-anchor="middle" font-size="10" font-weight="700" fill="#1f2933" stroke="#ffffff" stroke-width="3" paint-order="stroke">2.96</text>
<circle cx="773.0" cy="254.6" r="3.5" fill="#ffffff" stroke="#1f2933" stroke-width="2"/>
<text x="773.0" y="246.6" text-anchor="middle" font-size="10" font-weight="700" fill="#1f2933" stroke="#ffffff" stroke-width="3" paint-order="stroke">4.29</text>
<circle cx="819.0" cy="230.6" r="3.5" fill="#ffffff" stroke="#1f2933" stroke-width="2"/>
<text x="819.0" y="222.6" text-anchor="middle" font-size="10" font-weight="700" fill="#1f2933" stroke="#ffffff" stroke-width="3" paint-order="stroke">4.77</text>
<circle cx="865.0" cy="157.0" r="3.5" fill="#ffffff" stroke="#1f2933" stroke-width="2"/>
<text x="865.0" y="149.0" text-anchor="middle" font-size="10" font-weight="700" fill="#1f2933" stroke="#ffffff" stroke-width="3" paint-order="stroke">6.24</text>
<circle cx="911.0" cy="337.7" r="3.5" fill="#ffffff" stroke="#1f2933" stroke-width="2"/>
<text x="911.0" y="329.7" text-anchor="middle" font-size="10" font-weight="700" fill="#1f2933" stroke="#ffffff" stroke-width="3" paint-order="stroke">2.64</text>
<circle cx="957.0" cy="302.8" r="3.5" fill="#ffffff" stroke="#1f2933" stroke-width="2"/>
<text x="957.0" y="294.8" text-anchor="middle" font-size="10" font-weight="700" fill="#1f2933" stroke="#ffffff" stroke-width="3" paint-order="stroke">3.33</text>
</svg>